<?xml version="1.0" encoding="utf-8" standalone="no"?>
<!DOCTYPE svg PUBLIC "-//W3C//DTD SVG 1.1//EN"
  "http://www.w3.org/Graphics/SVG/1.1/DTD/svg11.dtd">
<!-- Created with matplotlib (https://matplotlib.org/) -->
<svg height="345.6pt" version="1.1" viewBox="0 0 460.8 345.6" width="460.8pt" xmlns="http://www.w3.org/2000/svg" xmlns:xlink="http://www.w3.org/1999/xlink">
 <metadata>
  <rdf:RDF xmlns:cc="http://creativecommons.org/ns#" xmlns:dc="http://purl.org/dc/elements/1.1/" xmlns:rdf="http://www.w3.org/1999/02/22-rdf-syntax-ns#">
   <cc:Work>
    <dc:type rdf:resource="http://purl.org/dc/dcmitype/StillImage"/>
    <dc:date>2021-07-19T00:50:58.956696</dc:date>
    <dc:format>image/svg+xml</dc:format>
    <dc:creator>
     <cc:Agent>
      <dc:title>Matplotlib v3.3.4, https://matplotlib.org/</dc:title>
     </cc:Agent>
    </dc:creator>
   </cc:Work>
  </rdf:RDF>
 </metadata>
 <defs>
  <style type="text/css">*{stroke-linecap:butt;stroke-linejoin:round;}</style>
 </defs>
 <g id="figure_1">
  <g id="patch_1">
   <path d="M 0 345.6 
L 460.8 345.6 
L 460.8 0 
L 0 0 
z
" style="fill:#ffffff;"/>
  </g>
  <g id="axes_1">
   <g id="patch_2">
    <path d="M 52.22 317.72 
L 450 317.72 
L 450 24 
L 52.22 24 
z
" style="fill:#ffffff;"/>
   </g>
   <g id="matplotlib.axis_1">
    <g id="xtick_1">
     <g id="line2d_1">
      <defs>
       <path d="M 0 0 
L 0 3.5 
" id="mcb7cfa9aa7" style="stroke:#000000;stroke-width:0.8;"/>
      </defs>
      <g>
       <use style="stroke:#000000;stroke-width:0.8;" x="113.192678" xlink:href="#mcb7cfa9aa7" y="317.72"/>
      </g>
     </g>
     <g id="text_1">
      <!-- 1970 -->
      <g transform="translate(100.467678 332.318437)scale(0.1 -0.1)">
       <defs>
        <path d="M 12.40625 8.296875 
L 28.515625 8.296875 
L 28.515625 63.921875 
L 10.984375 60.40625 
L 10.984375 69.390625 
L 28.421875 72.90625 
L 38.28125 72.90625 
L 38.28125 8.296875 
L 54.390625 8.296875 
L 54.390625 0 
L 12.40625 0 
z
" id="DejaVuSans-49"/>
        <path d="M 10.984375 1.515625 
L 10.984375 10.5 
Q 14.703125 8.734375 18.5 7.8125 
Q 22.3125 6.890625 25.984375 6.890625 
Q 35.75 6.890625 40.890625 13.453125 
Q 46.046875 20.015625 46.78125 33.40625 
Q 43.953125 29.203125 39.59375 26.953125 
Q 35.25 24.703125 29.984375 24.703125 
Q 19.046875 24.703125 12.671875 31.3125 
Q 6.296875 37.9375 6.296875 49.421875 
Q 6.296875 60.640625 12.9375 67.421875 
Q 19.578125 74.21875 30.609375 74.21875 
Q 43.265625 74.21875 49.921875 64.515625 
Q 56.59375 54.828125 56.59375 36.375 
Q 56.59375 19.140625 48.40625 8.859375 
Q 40.234375 -1.421875 26.421875 -1.421875 
Q 22.703125 -1.421875 18.890625 -0.6875 
Q 15.09375 0.046875 10.984375 1.515625 
z
M 30.609375 32.421875 
Q 37.25 32.421875 41.125 36.953125 
Q 45.015625 41.5 45.015625 49.421875 
Q 45.015625 57.28125 41.125 61.84375 
Q 37.25 66.40625 30.609375 66.40625 
Q 23.96875 66.40625 20.09375 61.84375 
Q 16.21875 57.28125 16.21875 49.421875 
Q 16.21875 41.5 20.09375 36.953125 
Q 23.96875 32.421875 30.609375 32.421875 
z
" id="DejaVuSans-57"/>
        <path d="M 8.203125 72.90625 
L 55.078125 72.90625 
L 55.078125 68.703125 
L 28.609375 0 
L 18.3125 0 
L 43.21875 64.59375 
L 8.203125 64.59375 
z
" id="DejaVuSans-55"/>
        <path d="M 31.78125 66.40625 
Q 24.171875 66.40625 20.328125 58.90625 
Q 16.5 51.421875 16.5 36.375 
Q 16.5 21.390625 20.328125 13.890625 
Q 24.171875 6.390625 31.78125 6.390625 
Q 39.453125 6.390625 43.28125 13.890625 
Q 47.125 21.390625 47.125 36.375 
Q 47.125 51.421875 43.28125 58.90625 
Q 39.453125 66.40625 31.78125 66.40625 
z
M 31.78125 74.21875 
Q 44.046875 74.21875 50.515625 64.515625 
Q 56.984375 54.828125 56.984375 36.375 
Q 56.984375 17.96875 50.515625 8.265625 
Q 44.046875 -1.421875 31.78125 -1.421875 
Q 19.53125 -1.421875 13.0625 8.265625 
Q 6.59375 17.96875 6.59375 36.375 
Q 6.59375 54.828125 13.0625 64.515625 
Q 19.53125 74.21875 31.78125 74.21875 
z
" id="DejaVuSans-48"/>
       </defs>
       <use xlink:href="#DejaVuSans-49"/>
       <use x="63.623047" xlink:href="#DejaVuSans-57"/>
       <use x="127.246094" xlink:href="#DejaVuSans-55"/>
       <use x="190.869141" xlink:href="#DejaVuSans-48"/>
      </g>
     </g>
    </g>
    <g id="xtick_2">
     <g id="line2d_2">
      <g>
       <use style="stroke:#000000;stroke-width:0.8;" x="175.179517" xlink:href="#mcb7cfa9aa7" y="317.72"/>
      </g>
     </g>
     <g id="text_2">
      <!-- 1980 -->
      <g transform="translate(162.454517 332.318437)scale(0.1 -0.1)">
       <defs>
        <path d="M 31.78125 34.625 
Q 24.75 34.625 20.71875 30.859375 
Q 16.703125 27.09375 16.703125 20.515625 
Q 16.703125 13.921875 20.71875 10.15625 
Q 24.75 6.390625 31.78125 6.390625 
Q 38.8125 6.390625 42.859375 10.171875 
Q 46.921875 13.96875 46.921875 20.515625 
Q 46.921875 27.09375 42.890625 30.859375 
Q 38.875 34.625 31.78125 34.625 
z
M 21.921875 38.8125 
Q 15.578125 40.375 12.03125 44.71875 
Q 8.5 49.078125 8.5 55.328125 
Q 8.5 64.0625 14.71875 69.140625 
Q 20.953125 74.21875 31.78125 74.21875 
Q 42.671875 74.21875 48.875 69.140625 
Q 55.078125 64.0625 55.078125 55.328125 
Q 55.078125 49.078125 51.53125 44.71875 
Q 48 40.375 41.703125 38.8125 
Q 48.828125 37.15625 52.796875 32.3125 
Q 56.78125 27.484375 56.78125 20.515625 
Q 56.78125 9.90625 50.3125 4.234375 
Q 43.84375 -1.421875 31.78125 -1.421875 
Q 19.734375 -1.421875 13.25 4.234375 
Q 6.78125 9.90625 6.78125 20.515625 
Q 6.78125 27.484375 10.78125 32.3125 
Q 14.796875 37.15625 21.921875 38.8125 
z
M 18.3125 54.390625 
Q 18.3125 48.734375 21.84375 45.5625 
Q 25.390625 42.390625 31.78125 42.390625 
Q 38.140625 42.390625 41.71875 45.5625 
Q 45.3125 48.734375 45.3125 54.390625 
Q 45.3125 60.0625 41.71875 63.234375 
Q 38.140625 66.40625 31.78125 66.40625 
Q 25.390625 66.40625 21.84375 63.234375 
Q 18.3125 60.0625 18.3125 54.390625 
z
" id="DejaVuSans-56"/>
       </defs>
       <use xlink:href="#DejaVuSans-49"/>
       <use x="63.623047" xlink:href="#DejaVuSans-57"/>
       <use x="127.246094" xlink:href="#DejaVuSans-56"/>
       <use x="190.869141" xlink:href="#DejaVuSans-48"/>
      </g>
     </g>
    </g>
    <g id="xtick_3">
     <g id="line2d_3">
      <g>
       <use style="stroke:#000000;stroke-width:0.8;" x="237.183329" xlink:href="#mcb7cfa9aa7" y="317.72"/>
      </g>
     </g>
     <g id="text_3">
      <!-- 1990 -->
      <g transform="translate(224.458329 332.318437)scale(0.1 -0.1)">
       <use xlink:href="#DejaVuSans-49"/>
       <use x="63.623047" xlink:href="#DejaVuSans-57"/>
       <use x="127.246094" xlink:href="#DejaVuSans-57"/>
       <use x="190.869141" xlink:href="#DejaVuSans-48"/>
      </g>
     </g>
    </g>
    <g id="xtick_4">
     <g id="line2d_4">
      <g>
       <use style="stroke:#000000;stroke-width:0.8;" x="299.170168" xlink:href="#mcb7cfa9aa7" y="317.72"/>
      </g>
     </g>
     <g id="text_4">
      <!-- 2000 -->
      <g transform="translate(286.445168 332.318437)scale(0.1 -0.1)">
       <defs>
        <path d="M 19.1875 8.296875 
L 53.609375 8.296875 
L 53.609375 0 
L 7.328125 0 
L 7.328125 8.296875 
Q 12.9375 14.109375 22.625 23.890625 
Q 32.328125 33.6875 34.8125 36.53125 
Q 39.546875 41.84375 41.421875 45.53125 
Q 43.3125 49.21875 43.3125 52.78125 
Q 43.3125 58.59375 39.234375 62.25 
Q 35.15625 65.921875 28.609375 65.921875 
Q 23.96875 65.921875 18.8125 64.3125 
Q 13.671875 62.703125 7.8125 59.421875 
L 7.8125 69.390625 
Q 13.765625 71.78125 18.9375 73 
Q 24.125 74.21875 28.421875 74.21875 
Q 39.75 74.21875 46.484375 68.546875 
Q 53.21875 62.890625 53.21875 53.421875 
Q 53.21875 48.921875 51.53125 44.890625 
Q 49.859375 40.875 45.40625 35.40625 
Q 44.1875 33.984375 37.640625 27.21875 
Q 31.109375 20.453125 19.1875 8.296875 
z
" id="DejaVuSans-50"/>
       </defs>
       <use xlink:href="#DejaVuSans-50"/>
       <use x="63.623047" xlink:href="#DejaVuSans-48"/>
       <use x="127.246094" xlink:href="#DejaVuSans-48"/>
       <use x="190.869141" xlink:href="#DejaVuSans-48"/>
      </g>
     </g>
    </g>
    <g id="xtick_5">
     <g id="line2d_5">
      <g>
       <use style="stroke:#000000;stroke-width:0.8;" x="361.17398" xlink:href="#mcb7cfa9aa7" y="317.72"/>
      </g>
     </g>
     <g id="text_5">
      <!-- 2010 -->
      <g transform="translate(348.44898 332.318437)scale(0.1 -0.1)">
       <use xlink:href="#DejaVuSans-50"/>
       <use x="63.623047" xlink:href="#DejaVuSans-48"/>
       <use x="127.246094" xlink:href="#DejaVuSans-49"/>
       <use x="190.869141" xlink:href="#DejaVuSans-48"/>
      </g>
     </g>
    </g>
    <g id="xtick_6">
     <g id="line2d_6">
      <g>
       <use style="stroke:#000000;stroke-width:0.8;" x="423.160819" xlink:href="#mcb7cfa9aa7" y="317.72"/>
      </g>
     </g>
     <g id="text_6">
      <!-- 2020 -->
      <g transform="translate(410.435819 332.318437)scale(0.1 -0.1)">
       <use xlink:href="#DejaVuSans-50"/>
       <use x="63.623047" xlink:href="#DejaVuSans-48"/>
       <use x="127.246094" xlink:href="#DejaVuSans-50"/>
       <use x="190.869141" xlink:href="#DejaVuSans-48"/>
      </g>
     </g>
    </g>
   </g>
   <g id="matplotlib.axis_2">
    <g id="ytick_1">
     <g id="line2d_7">
      <defs>
       <path d="M 0 0 
L -3.5 0 
" id="ma1fc30b3a0" style="stroke:#000000;stroke-width:0.8;"/>
      </defs>
      <g>
       <use style="stroke:#000000;stroke-width:0.8;" x="52.22" xlink:href="#ma1fc30b3a0" y="313.403541"/>
      </g>
     </g>
     <g id="text_7">
      <!-- −20 -->
      <g transform="translate(24.115313 317.202759)scale(0.1 -0.1)">
       <defs>
        <path d="M 10.59375 35.5 
L 73.1875 35.5 
L 73.1875 27.203125 
L 10.59375 27.203125 
z
" id="DejaVuSans-8722"/>
       </defs>
       <use xlink:href="#DejaVuSans-8722"/>
       <use x="83.789062" xlink:href="#DejaVuSans-50"/>
       <use x="147.412109" xlink:href="#DejaVuSans-48"/>
      </g>
     </g>
    </g>
    <g id="ytick_2">
     <g id="line2d_8">
      <g>
       <use style="stroke:#000000;stroke-width:0.8;" x="52.22" xlink:href="#ma1fc30b3a0" y="263.212153"/>
      </g>
     </g>
     <g id="text_8">
      <!-- −10 -->
      <g transform="translate(24.115313 267.011372)scale(0.1 -0.1)">
       <use xlink:href="#DejaVuSans-8722"/>
       <use x="83.789062" xlink:href="#DejaVuSans-49"/>
       <use x="147.412109" xlink:href="#DejaVuSans-48"/>
      </g>
     </g>
    </g>
    <g id="ytick_3">
     <g id="line2d_9">
      <g>
       <use style="stroke:#000000;stroke-width:0.8;" x="52.22" xlink:href="#ma1fc30b3a0" y="213.020766"/>
      </g>
     </g>
     <g id="text_9">
      <!-- 0 -->
      <g transform="translate(38.8575 216.819984)scale(0.1 -0.1)">
       <use xlink:href="#DejaVuSans-48"/>
      </g>
     </g>
    </g>
    <g id="ytick_4">
     <g id="line2d_10">
      <g>
       <use style="stroke:#000000;stroke-width:0.8;" x="52.22" xlink:href="#ma1fc30b3a0" y="162.829378"/>
      </g>
     </g>
     <g id="text_10">
      <!-- 10 -->
      <g transform="translate(32.495 166.628597)scale(0.1 -0.1)">
       <use xlink:href="#DejaVuSans-49"/>
       <use x="63.623047" xlink:href="#DejaVuSans-48"/>
      </g>
     </g>
    </g>
    <g id="ytick_5">
     <g id="line2d_11">
      <g>
       <use style="stroke:#000000;stroke-width:0.8;" x="52.22" xlink:href="#ma1fc30b3a0" y="112.63799"/>
      </g>
     </g>
     <g id="text_11">
      <!-- 20 -->
      <g transform="translate(32.495 116.437209)scale(0.1 -0.1)">
       <use xlink:href="#DejaVuSans-50"/>
       <use x="63.623047" xlink:href="#DejaVuSans-48"/>
      </g>
     </g>
    </g>
    <g id="ytick_6">
     <g id="line2d_12">
      <g>
       <use style="stroke:#000000;stroke-width:0.8;" x="52.22" xlink:href="#ma1fc30b3a0" y="62.446603"/>
      </g>
     </g>
     <g id="text_12">
      <!-- 30 -->
      <g transform="translate(32.495 66.245822)scale(0.1 -0.1)">
       <defs>
        <path d="M 40.578125 39.3125 
Q 47.65625 37.796875 51.625 33 
Q 55.609375 28.21875 55.609375 21.1875 
Q 55.609375 10.40625 48.1875 4.484375 
Q 40.765625 -1.421875 27.09375 -1.421875 
Q 22.515625 -1.421875 17.65625 -0.515625 
Q 12.796875 0.390625 7.625 2.203125 
L 7.625 11.71875 
Q 11.71875 9.328125 16.59375 8.109375 
Q 21.484375 6.890625 26.8125 6.890625 
Q 36.078125 6.890625 40.9375 10.546875 
Q 45.796875 14.203125 45.796875 21.1875 
Q 45.796875 27.640625 41.28125 31.265625 
Q 36.765625 34.90625 28.71875 34.90625 
L 20.21875 34.90625 
L 20.21875 43.015625 
L 29.109375 43.015625 
Q 36.375 43.015625 40.234375 45.921875 
Q 44.09375 48.828125 44.09375 54.296875 
Q 44.09375 59.90625 40.109375 62.90625 
Q 36.140625 65.921875 28.71875 65.921875 
Q 24.65625 65.921875 20.015625 65.03125 
Q 15.375 64.15625 9.8125 62.3125 
L 9.8125 71.09375 
Q 15.4375 72.65625 20.34375 73.4375 
Q 25.25 74.21875 29.59375 74.21875 
Q 40.828125 74.21875 47.359375 69.109375 
Q 53.90625 64.015625 53.90625 55.328125 
Q 53.90625 49.265625 50.4375 45.09375 
Q 46.96875 40.921875 40.578125 39.3125 
z
" id="DejaVuSans-51"/>
       </defs>
       <use xlink:href="#DejaVuSans-51"/>
       <use x="63.623047" xlink:href="#DejaVuSans-48"/>
      </g>
     </g>
    </g>
    <g id="text_13">
     <!-- (%) -->
     <g transform="translate(18.243594 179.482422)rotate(-90)scale(0.09 -0.09)">
      <defs>
       <path d="M 37.703125 -13.1875 
L 23.1875 -13.1875 
Q 15.71875 -1.125 12.15625 9.734375 
Q 8.59375 20.609375 8.59375 31.296875 
Q 8.59375 42 12.171875 52.953125 
Q 15.765625 63.921875 23.1875 75.875 
L 37.703125 75.875 
Q 31.453125 64.3125 28.328125 53.25 
Q 25.203125 42.1875 25.203125 31.390625 
Q 25.203125 20.609375 28.296875 9.515625 
Q 31.390625 -1.5625 37.703125 -13.1875 
z
" id="DejaVuSans-Bold-40"/>
       <path d="M 77.484375 30.078125 
Q 74.03125 30.078125 72.125 27.078125 
Q 70.21875 24.078125 70.21875 18.5 
Q 70.21875 12.890625 72.09375 9.890625 
Q 73.96875 6.890625 77.484375 6.890625 
Q 81 6.890625 82.859375 9.890625 
Q 84.71875 12.890625 84.71875 18.5 
Q 84.71875 24.078125 82.828125 27.078125 
Q 80.953125 30.078125 77.484375 30.078125 
z
M 77.484375 38.28125 
Q 86.578125 38.28125 91.796875 33 
Q 97.015625 27.734375 97.015625 18.5 
Q 97.015625 9.28125 91.796875 3.921875 
Q 86.578125 -1.421875 77.484375 -1.421875 
Q 68.40625 -1.421875 63.15625 3.921875 
Q 57.90625 9.28125 57.90625 18.5 
Q 57.90625 27.6875 63.15625 32.984375 
Q 68.40625 38.28125 77.484375 38.28125 
z
M 32.71875 -1.421875 
L 21.921875 -1.421875 
L 67.484375 74.21875 
L 78.328125 74.21875 
z
M 22.703125 74.21875 
Q 31.78125 74.21875 36.984375 68.921875 
Q 42.1875 63.625 42.1875 54.390625 
Q 42.1875 45.171875 36.984375 39.84375 
Q 31.78125 34.515625 22.703125 34.515625 
Q 13.625 34.515625 8.421875 39.84375 
Q 3.21875 45.171875 3.21875 54.390625 
Q 3.21875 63.625 8.421875 68.921875 
Q 13.625 74.21875 22.703125 74.21875 
z
M 22.703125 66.015625 
Q 19.1875 66.015625 17.28125 62.984375 
Q 15.375 59.96875 15.375 54.390625 
Q 15.375 48.78125 17.28125 45.71875 
Q 19.1875 42.671875 22.703125 42.671875 
Q 26.21875 42.671875 28.09375 45.71875 
Q 29.984375 48.78125 29.984375 54.390625 
Q 29.984375 59.96875 28.078125 62.984375 
Q 26.171875 66.015625 22.703125 66.015625 
z
" id="DejaVuSans-Bold-37"/>
       <path d="M 8.015625 -13.1875 
Q 14.265625 -1.5625 17.390625 9.515625 
Q 20.515625 20.609375 20.515625 31.390625 
Q 20.515625 42.1875 17.390625 53.25 
Q 14.265625 64.3125 8.015625 75.875 
L 22.515625 75.875 
Q 29.9375 63.921875 33.515625 52.953125 
Q 37.109375 42 37.109375 31.296875 
Q 37.109375 20.609375 33.546875 9.734375 
Q 29.984375 -1.125 22.515625 -13.1875 
z
" id="DejaVuSans-Bold-41"/>
      </defs>
      <use xlink:href="#DejaVuSans-Bold-40"/>
      <use x="45.703125" xlink:href="#DejaVuSans-Bold-37"/>
      <use x="145.898438" xlink:href="#DejaVuSans-Bold-41"/>
     </g>
    </g>
   </g>
   <g id="line2d_13">
    <path clip-path="url(#p866e37bbaa)" d="M 70.300909 203.484402 
L 70.776164 198.465263 
L 71.302339 201.97866 
L 71.811541 209.507368 
L 72.337716 206.997799 
L 72.846918 205.492057 
L 73.373094 208.001627 
L 73.899269 204.48823 
L 74.934646 199.469091 
L 75.443848 195.955694 
L 76.496198 200.974833 
L 76.988427 208.503541 
L 78.023804 203.484402 
L 78.549979 204.48823 
L 79.059181 205.993971 
L 79.585356 199.469091 
L 80.111531 200.974833 
L 80.620733 201.97866 
L 81.65611 204.990144 
L 82.708461 206.997799 
L 83.183716 204.990144 
L 83.709891 206.997799 
L 84.219093 202.480574 
L 84.745268 198.967177 
L 85.25447 191.438469 
L 85.780645 196.457608 
L 86.306821 199.971005 
L 86.816022 201.476746 
L 87.342198 203.484402 
L 88.377575 197.963349 
L 89.379005 194.449952 
L 89.90518 194.449952 
L 90.414382 194.951866 
L 90.940557 196.959522 
L 91.449759 205.993971 
L 91.975935 204.990144 
L 92.50211 205.993971 
L 93.537487 213.020766 
L 94.572864 218.541818 
L 95.099039 224.062871 
L 95.574294 230.587751 
L 96.10047 230.587751 
L 96.609671 235.104976 
L 97.135847 235.104976 
L 97.645049 225.568612 
L 98.171224 224.062871 
L 99.206601 216.534163 
L 100.241978 212.016938 
L 101.294328 214.024593 
L 101.786557 208.503541 
L 102.312732 207.499713 
L 102.821934 213.020766 
L 103.348109 214.024593 
L 103.857311 218.541818 
L 104.383486 222.055215 
L 104.909662 223.560957 
L 105.945039 218.541818 
L 106.454241 220.04756 
L 106.980416 218.541818 
L 107.506591 213.020766 
L 107.981846 213.020766 
L 108.508021 212.016938 
L 109.017223 201.476746 
L 109.543398 196.959522 
L 110.0526 195.45378 
L 110.578776 191.940383 
L 111.104951 190.936555 
L 111.614153 192.944211 
L 112.140328 210.511196 
L 112.64953 218.541818 
L 113.175705 213.020766 
L 113.70188 215.530335 
L 114.703311 215.530335 
L 115.738688 221.051388 
L 116.24789 225.568612 
L 116.774065 225.568612 
L 117.30024 227.576268 
L 117.809442 225.568612 
L 118.335617 209.507368 
L 118.844819 206.997799 
L 119.370994 213.020766 
L 119.897169 207.499713 
L 120.372425 205.993971 
L 120.8986 204.990144 
L 121.407802 202.982488 
L 121.933977 204.990144 
L 122.443179 203.986316 
L 122.969354 208.503541 
L 123.495529 210.511196 
L 124.004731 217.53799 
L 124.530906 222.055215 
L 125.040108 222.055215 
L 125.566283 220.04756 
L 126.092459 227.576268 
L 126.584687 230.085837 
L 127.620064 232.093493 
L 128.146239 228.580096 
L 128.655441 227.576268 
L 129.181617 224.564785 
L 129.707792 213.020766 
L 130.216994 206.997799 
L 130.743169 192.944211 
L 131.252371 191.940383 
L 131.778546 184.913589 
L 132.304721 163.833206 
L 132.779976 162.829378 
L 133.306152 166.342775 
L 133.815353 160.821722 
L 134.341529 147.771962 
L 134.850731 145.262392 
L 135.376906 150.783445 
L 135.903081 157.810239 
L 136.412283 159.817895 
L 136.938458 155.30067 
L 137.44766 117.155215 
L 137.973835 103.603541 
L 138.50001 56.423636 
L 138.975266 44.377703 
L 139.501441 37.350909 
L 140.010643 50.40067 
L 140.536818 66.963828 
L 141.04602 72.986794 
L 141.572195 59.937033 
L 142.607572 49.396842 
L 143.133747 68.469569 
L 143.642949 112.63799 
L 144.169124 142.250909 
L 144.6953 210.511196 
L 145.170555 227.074354 
L 145.69673 232.093493 
L 146.205932 230.587751 
L 146.732107 230.587751 
L 147.241309 228.078182 
L 147.767484 227.576268 
L 148.293659 221.553301 
L 148.802861 219.545646 
L 149.329037 214.526507 
L 149.838238 213.020766 
L 150.364414 203.484402 
L 150.890589 191.438469 
L 151.382817 182.905933 
L 151.908993 181.902105 
L 152.94437 172.365742 
L 153.453572 164.837033 
L 153.979747 166.342775 
L 154.505922 179.89445 
L 155.015124 185.917416 
L 155.541299 197.461435 
L 156.050501 197.461435 
L 156.576676 197.963349 
L 157.102851 195.955694 
L 158.104282 187.423158 
L 159.139659 192.944211 
L 160.175036 216.032249 
L 160.701211 217.53799 
L 161.210413 217.53799 
L 161.736588 214.024593 
L 162.24579 214.526507 
L 163.298141 229.583923 
L 163.773396 239.120287 
L 164.299571 243.135598 
L 164.808773 243.637512 
L 165.334948 239.622201 
L 165.84415 232.595407 
L 166.370325 229.08201 
L 166.8965 226.57244 
L 167.931877 226.57244 
L 168.441079 223.059043 
L 168.967255 218.541818 
L 169.49343 206.997799 
L 169.968685 188.9289 
L 170.49486 181.902105 
L 171.004062 170.86 
L 171.530237 164.837033 
L 172.565614 140.243254 
L 173.09179 138.737512 
L 173.600991 135.726029 
L 174.127167 128.699234 
L 174.636369 125.687751 
L 175.162544 118.660957 
L 175.688719 103.603541 
L 176.180947 112.63799 
L 176.707123 111.634163 
L 177.216325 118.159043 
L 178.777877 156.304498 
L 179.304052 155.802584 
L 179.813254 157.308325 
L 180.339429 150.281531 
L 180.848631 146.26622 
L 181.374806 148.775789 
L 181.900982 156.304498 
L 182.376237 150.281531 
L 182.902412 156.806411 
L 183.411614 156.304498 
L 184.446991 134.722201 
L 185.499341 115.14756 
L 186.008543 125.687751 
L 186.534718 144.760478 
L 187.04392 158.312153 
L 187.570096 162.829378 
L 188.571526 183.407847 
L 189.097701 185.917416 
L 189.606903 193.446124 
L 190.133078 206.997799 
L 190.64228 209.507368 
L 191.694631 222.557129 
L 192.730008 202.982488 
L 193.23921 199.469091 
L 193.765385 209.507368 
L 194.766815 222.557129 
L 195.29299 228.078182 
L 195.802192 226.070526 
L 196.328367 218.541818 
L 196.837569 217.53799 
L 197.363745 214.526507 
L 197.88992 206.997799 
L 198.399122 206.997799 
L 198.925297 214.024593 
L 199.434499 209.005455 
L 200.486849 183.407847 
L 200.979078 186.41933 
L 201.505253 182.404019 
L 202.014455 179.89445 
L 202.54063 173.369569 
L 203.049832 180.396364 
L 203.576007 182.905933 
L 204.102182 189.932727 
L 204.611384 185.415502 
L 205.137559 177.38488 
L 205.646761 186.41933 
L 206.172937 188.9289 
L 206.699112 190.434641 
L 207.174367 176.381053 
L 207.700542 170.86 
L 208.735919 192.442297 
L 209.245121 195.955694 
L 210.297472 217.53799 
L 210.806673 222.055215 
L 211.332849 235.104976 
L 211.842051 235.104976 
L 212.368226 242.13177 
L 212.894401 257.6911 
L 213.369656 278.269569 
L 213.895831 288.809761 
L 215.966586 304.369091 
L 216.492761 298.346124 
L 217.001963 299.851866 
L 217.528138 296.840383 
L 218.03734 295.836555 
L 218.563515 293.326986 
L 220.091121 265.721722 
L 220.600322 253.675789 
L 221.635699 237.112632 
L 222.161875 220.549474 
L 222.68805 218.039904 
L 223.197252 222.055215 
L 223.723427 211.01311 
L 224.232629 218.541818 
L 224.758804 218.039904 
L 225.284979 216.032249 
L 225.777208 211.01311 
L 226.303383 212.518852 
L 226.812585 212.518852 
L 227.33876 210.511196 
L 227.847962 206.495885 
L 228.374137 205.492057 
L 228.900313 203.986316 
L 229.409514 203.986316 
L 229.93569 206.997799 
L 231.497242 183.407847 
L 231.972497 183.407847 
L 232.498672 177.886794 
L 233.007874 176.381053 
L 233.534049 177.886794 
L 234.043251 185.917416 
L 234.569427 197.461435 
L 235.095602 199.469091 
L 235.604804 194.449952 
L 236.130979 196.959522 
L 236.640181 200.472919 
L 237.166356 209.005455 
L 237.692531 221.051388 
L 238.693962 227.576268 
L 239.203163 235.104976 
L 239.729339 239.622201 
L 240.23854 240.124115 
L 240.764716 232.595407 
L 241.290891 227.576268 
L 242.326268 206.997799 
L 242.83547 209.005455 
L 243.361645 210.009282 
L 243.88782 209.507368 
L 244.363075 211.01311 
L 244.889251 210.511196 
L 245.398453 200.472919 
L 245.924628 197.461435 
L 246.43383 192.442297 
L 246.960005 192.442297 
L 247.48618 202.982488 
L 247.995382 219.043732 
L 248.521557 225.066699 
L 249.030759 221.051388 
L 249.556934 224.062871 
L 250.08311 222.557129 
L 250.575338 216.534163 
L 251.101513 217.036077 
L 251.610715 223.059043 
L 252.13689 222.557129 
L 253.172268 231.089665 
L 253.698443 232.093493 
L 254.207645 231.089665 
L 254.73382 231.591579 
L 255.243022 228.580096 
L 255.769197 222.557129 
L 256.295372 222.055215 
L 257.296803 224.062871 
L 257.806004 227.074354 
L 258.33218 228.078182 
L 258.841381 224.564785 
L 259.367557 216.534163 
L 259.893732 215.028421 
L 260.402934 218.541818 
L 260.929109 218.039904 
L 261.964486 216.032249 
L 262.490661 213.522679 
L 262.965916 213.020766 
L 263.492092 214.024593 
L 264.001294 210.009282 
L 264.527469 207.499713 
L 265.036671 206.997799 
L 265.562846 212.016938 
L 266.089021 211.01311 
L 266.598223 204.990144 
L 267.124398 204.48823 
L 267.6336 204.48823 
L 268.159775 200.974833 
L 268.685951 201.97866 
L 269.161206 203.986316 
L 269.687381 208.001627 
L 270.722758 212.016938 
L 271.23196 215.530335 
L 271.758135 216.032249 
L 272.28431 211.01311 
L 272.793512 210.511196 
L 273.319687 215.530335 
L 273.828889 218.039904 
L 274.355065 219.545646 
L 275.373468 218.541818 
L 275.899643 211.01311 
L 276.408845 209.005455 
L 276.935021 209.005455 
L 277.444222 210.511196 
L 277.970398 210.511196 
L 278.496573 215.028421 
L 279.005775 212.518852 
L 279.53195 204.990144 
L 280.041152 204.990144 
L 281.093502 199.971005 
L 281.568757 195.955694 
L 282.094933 197.963349 
L 282.604135 200.472919 
L 283.639512 195.45378 
L 284.691862 182.404019 
L 285.201064 189.932727 
L 285.727239 194.951866 
L 286.236441 196.959522 
L 286.762616 200.974833 
L 287.764047 212.518852 
L 288.290222 215.530335 
L 288.799424 216.534163 
L 289.834801 225.066699 
L 290.360976 231.591579 
L 290.887151 239.622201 
L 291.396353 240.124115 
L 291.922528 244.139426 
L 292.43173 243.637512 
L 292.957906 246.147081 
L 293.484081 246.648995 
L 293.959336 244.139426 
L 294.994713 232.595407 
L 295.520888 228.580096 
L 297.082441 209.005455 
L 298.117818 191.438469 
L 298.627019 183.407847 
L 299.153195 171.361914 
L 299.67937 166.844689 
L 300.171598 160.821722 
L 300.697774 160.821722 
L 301.206976 165.338947 
L 301.733151 158.312153 
L 302.242353 159.315981 
L 302.768528 161.82555 
L 303.294703 159.817895 
L 303.803905 154.798756 
L 304.33008 154.296842 
L 304.839282 159.817895 
L 305.365457 179.392536 
L 305.891633 186.921244 
L 306.366888 190.936555 
L 306.893063 196.457608 
L 307.402265 192.944211 
L 307.92844 196.959522 
L 308.437642 196.959522 
L 310.525369 236.108804 
L 311.034571 239.120287 
L 311.560747 231.089665 
L 312.086922 226.070526 
L 312.562177 226.070526 
L 313.088352 221.051388 
L 313.597554 222.557129 
L 314.632931 235.104976 
L 315.159106 231.591579 
L 315.685282 225.066699 
L 316.194483 220.549474 
L 316.720659 213.522679 
L 317.22986 218.039904 
L 317.756036 213.522679 
L 318.282211 213.522679 
L 318.757466 214.526507 
L 319.283641 220.549474 
L 319.792843 229.583923 
L 320.319018 233.599234 
L 320.82822 228.580096 
L 321.354395 224.564785 
L 321.880571 224.062871 
L 322.389773 227.074354 
L 322.915948 227.576268 
L 323.42515 222.055215 
L 323.951325 227.576268 
L 324.4775 228.580096 
L 324.969729 229.08201 
L 325.495904 221.553301 
L 326.531281 200.472919 
L 327.040483 202.480574 
L 327.566658 201.97866 
L 328.092833 199.971005 
L 328.602035 198.967177 
L 329.12821 192.442297 
L 329.637412 199.469091 
L 330.163588 201.97866 
L 330.689763 197.963349 
L 331.165018 195.45378 
L 331.691193 195.955694 
L 332.72657 205.492057 
L 333.235772 195.955694 
L 333.761947 194.951866 
L 334.288123 196.959522 
L 334.797324 195.955694 
L 335.3235 197.963349 
L 335.832701 192.442297 
L 336.358877 185.415502 
L 336.885052 186.41933 
L 337.360307 187.925072 
L 337.886482 190.936555 
L 338.395684 183.407847 
L 338.921859 181.400191 
L 339.431061 188.426986 
L 339.957236 185.415502 
L 340.483412 188.9289 
L 340.992614 195.45378 
L 341.518789 199.469091 
L 342.027991 200.472919 
L 342.554166 204.48823 
L 343.080341 210.511196 
L 344.081771 210.511196 
L 344.590973 212.518852 
L 345.117149 212.016938 
L 345.62635 210.511196 
L 346.152526 214.526507 
L 346.678701 217.036077 
L 347.714078 205.492057 
L 348.22328 200.974833 
L 348.749455 199.469091 
L 349.27563 192.442297 
L 349.767859 188.9289 
L 350.294034 189.430813 
L 350.803236 188.9289 
L 351.329411 178.890622 
L 351.838613 173.369569 
L 352.364788 170.86 
L 352.890963 171.361914 
L 353.400165 177.38488 
L 354.435542 216.032249 
L 354.961718 234.101148 
L 355.963148 247.150909 
L 356.489323 251.16622 
L 356.998525 258.193014 
L 357.5247 267.227464 
L 358.033902 271.744689 
L 358.560077 278.771483 
L 359.086253 270.238947 
L 359.595455 270.238947 
L 361.683182 205.993971 
L 362.158437 200.472919 
L 362.684612 190.434641 
L 363.193814 176.882967 
L 363.71999 172.867656 
L 364.229191 170.358086 
L 364.755367 166.342775 
L 365.281542 172.867656 
L 365.790744 167.346603 
L 366.316919 171.863828 
L 366.826121 169.354258 
L 367.352296 161.323636 
L 367.878471 163.833206 
L 368.353726 163.833206 
L 368.879902 165.338947 
L 369.389103 174.373397 
L 370.424481 188.426986 
L 370.950656 184.913589 
L 371.476831 187.925072 
L 371.986033 186.921244 
L 372.512208 185.415502 
L 373.02141 187.423158 
L 373.547585 194.951866 
L 374.073761 194.951866 
L 374.565989 195.955694 
L 375.092164 199.469091 
L 375.601366 201.476746 
L 376.127541 200.974833 
L 376.636743 205.492057 
L 377.162918 205.492057 
L 377.689094 198.465263 
L 378.198296 203.484402 
L 378.724471 205.492057 
L 379.233673 208.503541 
L 379.759848 213.020766 
L 380.286023 219.545646 
L 381.287453 224.062871 
L 381.796655 227.576268 
L 382.322831 227.576268 
L 382.832032 224.062871 
L 383.358208 225.568612 
L 383.884383 229.583923 
L 384.393585 226.57244 
L 384.91976 227.576268 
L 385.428962 227.074354 
L 385.955137 224.564785 
L 386.481312 224.564785 
L 386.956567 226.070526 
L 387.482743 229.08201 
L 387.991944 225.568612 
L 388.51812 223.560957 
L 389.027322 219.043732 
L 389.553497 221.553301 
L 390.079672 222.557129 
L 390.588874 221.051388 
L 391.115049 219.043732 
L 391.624251 223.560957 
L 392.150426 231.591579 
L 392.676602 235.104976 
L 393.151857 229.583923 
L 393.678032 221.553301 
L 394.187234 218.039904 
L 394.713409 218.541818 
L 395.222611 222.055215 
L 395.748786 222.557129 
L 396.784163 234.101148 
L 397.310338 234.603062 
L 398.345715 229.08201 
L 398.871891 231.591579 
L 399.364119 241.127943 
L 399.890294 242.13177 
L 400.399496 245.645167 
L 400.925672 241.629856 
L 401.434873 236.108804 
L 401.961049 233.599234 
L 402.487224 227.074354 
L 402.996426 224.062871 
L 404.031803 212.518852 
L 404.557978 197.461435 
L 405.559408 179.392536 
L 406.085584 184.913589 
L 406.594785 183.909761 
L 407.630163 200.974833 
L 408.156338 203.484402 
L 408.682513 202.982488 
L 409.191715 198.967177 
L 409.71789 200.472919 
L 410.227092 201.476746 
L 410.753267 209.507368 
L 411.279443 210.009282 
L 411.754698 215.530335 
L 412.280873 214.526507 
L 412.790075 211.01311 
L 413.31625 198.465263 
L 413.825452 190.936555 
L 414.351627 188.9289 
L 414.877802 188.9289 
L 415.387004 190.936555 
L 415.913179 188.9289 
L 416.948556 204.990144 
L 417.474732 209.005455 
L 417.949987 204.990144 
L 418.476162 204.48823 
L 418.985364 205.993971 
L 420.020741 223.059043 
L 420.546916 223.560957 
L 421.073091 226.57244 
L 421.582293 225.568612 
L 422.108469 230.587751 
L 423.143846 216.534163 
L 423.670021 217.53799 
L 424.162249 223.059043 
L 424.688425 240.626029 
L 425.197626 250.162392 
L 425.723802 248.154737 
L 426.233004 238.618373 
L 427.285354 233.097321 
L 427.794556 234.603062 
L 428.320731 232.595407 
L 428.829933 232.093493 
L 429.356108 230.085837 
L 429.882284 219.043732 
L 430.357539 205.993971 
L 430.883714 178.388708 
L 431.392916 161.323636 
L 431.919091 153.794928 
L 431.919091 153.794928 
" style="fill:none;stroke:#0072b2;stroke-linecap:square;stroke-width:1.5;"/>
   </g>
   <g id="line2d_14">
    <path clip-path="url(#p866e37bbaa)" d="M 52.22 153.794928 
L 450 153.794928 
" style="fill:none;stroke:#3cb371;stroke-dasharray:5.55,2.4;stroke-dashoffset:0;stroke-width:1.5;"/>
   </g>
   <g id="patch_3">
    <path d="M 52.22 317.72 
L 52.22 24 
" style="fill:none;stroke:#000000;stroke-linecap:square;stroke-linejoin:miter;stroke-width:0.8;"/>
   </g>
   <g id="patch_4">
    <path d="M 450 317.72 
L 450 24 
" style="fill:none;stroke:#000000;stroke-linecap:square;stroke-linejoin:miter;stroke-width:0.8;"/>
   </g>
   <g id="patch_5">
    <path d="M 52.22 317.72 
L 450 317.72 
" style="fill:none;stroke:#000000;stroke-linecap:square;stroke-linejoin:miter;stroke-width:0.8;"/>
   </g>
   <g id="patch_6">
    <path d="M 52.22 24 
L 450 24 
" style="fill:none;stroke:#000000;stroke-linecap:square;stroke-linejoin:miter;stroke-width:0.8;"/>
   </g>
   <g id="text_14">
    <!--  Graphique 3. Prix des importations  - (variation interannuelle - %) -->
    <g transform="translate(81.992266 18)scale(0.09 -0.09)">
     <defs>
      <path id="DejaVuSans-Bold-32"/>
      <path d="M 74.703125 5.421875 
Q 67.671875 2 60.109375 0.28125 
Q 52.546875 -1.421875 44.484375 -1.421875 
Q 26.265625 -1.421875 15.625 8.765625 
Q 4.984375 18.953125 4.984375 36.375 
Q 4.984375 54 15.8125 64.109375 
Q 26.65625 74.21875 45.515625 74.21875 
Q 52.78125 74.21875 59.4375 72.84375 
Q 66.109375 71.484375 72.015625 68.796875 
L 72.015625 53.71875 
Q 65.921875 57.171875 59.890625 58.875 
Q 53.859375 60.59375 47.796875 60.59375 
Q 36.578125 60.59375 30.5 54.3125 
Q 24.421875 48.046875 24.421875 36.375 
Q 24.421875 24.8125 30.28125 18.5 
Q 36.140625 12.203125 46.921875 12.203125 
Q 49.859375 12.203125 52.375 12.5625 
Q 54.890625 12.9375 56.890625 13.71875 
L 56.890625 27.875 
L 45.40625 27.875 
L 45.40625 40.484375 
L 74.703125 40.484375 
z
" id="DejaVuSans-Bold-71"/>
      <path d="M 49.03125 39.796875 
Q 46.734375 40.875 44.453125 41.375 
Q 42.1875 41.890625 39.890625 41.890625 
Q 33.15625 41.890625 29.515625 37.5625 
Q 25.875 33.25 25.875 25.203125 
L 25.875 0 
L 8.40625 0 
L 8.40625 54.6875 
L 25.875 54.6875 
L 25.875 45.703125 
Q 29.25 51.078125 33.609375 53.53125 
Q 37.984375 56 44.09375 56 
Q 44.96875 56 45.984375 55.921875 
Q 47.015625 55.859375 48.96875 55.609375 
z
" id="DejaVuSans-Bold-114"/>
      <path d="M 32.90625 24.609375 
Q 27.4375 24.609375 24.671875 22.75 
Q 21.921875 20.90625 21.921875 17.28125 
Q 21.921875 13.96875 24.140625 12.078125 
Q 26.375 10.203125 30.328125 10.203125 
Q 35.25 10.203125 38.625 13.734375 
Q 42 17.28125 42 22.609375 
L 42 24.609375 
z
M 59.625 31.203125 
L 59.625 0 
L 42 0 
L 42 8.109375 
Q 38.484375 3.125 34.078125 0.84375 
Q 29.6875 -1.421875 23.390625 -1.421875 
Q 14.890625 -1.421875 9.59375 3.53125 
Q 4.296875 8.5 4.296875 16.40625 
Q 4.296875 26.03125 10.90625 30.515625 
Q 17.53125 35.015625 31.6875 35.015625 
L 42 35.015625 
L 42 36.375 
Q 42 40.53125 38.71875 42.453125 
Q 35.453125 44.390625 28.515625 44.390625 
Q 22.90625 44.390625 18.0625 43.265625 
Q 13.234375 42.140625 9.078125 39.890625 
L 9.078125 53.21875 
Q 14.703125 54.59375 20.359375 55.296875 
Q 26.03125 56 31.6875 56 
Q 46.484375 56 53.046875 50.171875 
Q 59.625 44.34375 59.625 31.203125 
z
" id="DejaVuSans-Bold-97"/>
      <path d="M 25.875 7.90625 
L 25.875 -20.796875 
L 8.40625 -20.796875 
L 8.40625 54.6875 
L 25.875 54.6875 
L 25.875 46.6875 
Q 29.5 51.46875 33.890625 53.734375 
Q 38.28125 56 44 56 
Q 54.109375 56 60.59375 47.96875 
Q 67.09375 39.9375 67.09375 27.296875 
Q 67.09375 14.65625 60.59375 6.609375 
Q 54.109375 -1.421875 44 -1.421875 
Q 38.28125 -1.421875 33.890625 0.84375 
Q 29.5 3.125 25.875 7.90625 
z
M 37.5 43.3125 
Q 31.890625 43.3125 28.875 39.1875 
Q 25.875 35.0625 25.875 27.296875 
Q 25.875 19.53125 28.875 15.40625 
Q 31.890625 11.28125 37.5 11.28125 
Q 43.109375 11.28125 46.0625 15.375 
Q 49.03125 19.484375 49.03125 27.296875 
Q 49.03125 35.109375 46.0625 39.203125 
Q 43.109375 43.3125 37.5 43.3125 
z
" id="DejaVuSans-Bold-112"/>
      <path d="M 63.375 33.296875 
L 63.375 0 
L 45.796875 0 
L 45.796875 5.421875 
L 45.796875 25.390625 
Q 45.796875 32.5625 45.484375 35.25 
Q 45.171875 37.9375 44.390625 39.203125 
Q 43.359375 40.921875 41.59375 41.875 
Q 39.84375 42.828125 37.59375 42.828125 
Q 32.125 42.828125 29 38.59375 
Q 25.875 34.375 25.875 26.90625 
L 25.875 0 
L 8.40625 0 
L 8.40625 75.984375 
L 25.875 75.984375 
L 25.875 46.6875 
Q 29.828125 51.46875 34.265625 53.734375 
Q 38.71875 56 44.09375 56 
Q 53.5625 56 58.46875 50.1875 
Q 63.375 44.390625 63.375 33.296875 
z
" id="DejaVuSans-Bold-104"/>
      <path d="M 8.40625 54.6875 
L 25.875 54.6875 
L 25.875 0 
L 8.40625 0 
z
M 8.40625 75.984375 
L 25.875 75.984375 
L 25.875 61.71875 
L 8.40625 61.71875 
z
" id="DejaVuSans-Bold-105"/>
      <path d="M 34.078125 43.3125 
Q 28.515625 43.3125 25.5625 39.203125 
Q 22.609375 35.109375 22.609375 27.296875 
Q 22.609375 19.484375 25.5625 15.375 
Q 28.515625 11.28125 34.078125 11.28125 
Q 39.703125 11.28125 42.65625 15.375 
Q 45.609375 19.484375 45.609375 27.296875 
Q 45.609375 35.109375 42.65625 39.203125 
Q 39.703125 43.3125 34.078125 43.3125 
z
M 45.609375 7.90625 
Q 42 3.078125 37.640625 0.828125 
Q 33.296875 -1.421875 27.59375 -1.421875 
Q 17.484375 -1.421875 10.984375 6.609375 
Q 4.5 14.65625 4.5 27.296875 
Q 4.5 39.9375 10.984375 47.921875 
Q 17.484375 55.90625 27.59375 55.90625 
Q 33.296875 55.90625 37.640625 53.65625 
Q 42 51.421875 45.609375 46.578125 
L 45.609375 54.6875 
L 63.1875 54.6875 
L 63.1875 -20.796875 
L 45.609375 -20.796875 
z
" id="DejaVuSans-Bold-113"/>
      <path d="M 7.8125 21.296875 
L 7.8125 54.6875 
L 25.390625 54.6875 
L 25.390625 49.21875 
Q 25.390625 44.78125 25.34375 38.0625 
Q 25.296875 31.34375 25.296875 29.109375 
Q 25.296875 22.515625 25.640625 19.609375 
Q 25.984375 16.703125 26.8125 15.375 
Q 27.875 13.671875 29.609375 12.734375 
Q 31.34375 11.8125 33.59375 11.8125 
Q 39.0625 11.8125 42.1875 16.015625 
Q 45.3125 20.21875 45.3125 27.6875 
L 45.3125 54.6875 
L 62.796875 54.6875 
L 62.796875 0 
L 45.3125 0 
L 45.3125 7.90625 
Q 41.359375 3.125 36.9375 0.84375 
Q 32.515625 -1.421875 27.203125 -1.421875 
Q 17.71875 -1.421875 12.765625 4.390625 
Q 7.8125 10.203125 7.8125 21.296875 
z
" id="DejaVuSans-Bold-117"/>
      <path d="M 62.984375 27.484375 
L 62.984375 22.515625 
L 22.125 22.515625 
Q 22.75 16.359375 26.5625 13.28125 
Q 30.375 10.203125 37.203125 10.203125 
Q 42.71875 10.203125 48.5 11.84375 
Q 54.296875 13.484375 60.40625 16.796875 
L 60.40625 3.328125 
Q 54.203125 0.984375 48 -0.21875 
Q 41.796875 -1.421875 35.59375 -1.421875 
Q 20.75 -1.421875 12.515625 6.125 
Q 4.296875 13.671875 4.296875 27.296875 
Q 4.296875 40.671875 12.375 48.328125 
Q 20.453125 56 34.625 56 
Q 47.515625 56 55.25 48.234375 
Q 62.984375 40.484375 62.984375 27.484375 
z
M 45.015625 33.296875 
Q 45.015625 38.28125 42.109375 41.328125 
Q 39.203125 44.390625 34.515625 44.390625 
Q 29.4375 44.390625 26.265625 41.53125 
Q 23.09375 38.671875 22.3125 33.296875 
z
" id="DejaVuSans-Bold-101"/>
      <path d="M 46.578125 39.3125 
Q 53.953125 37.40625 57.78125 32.6875 
Q 61.625 27.984375 61.625 20.703125 
Q 61.625 9.859375 53.3125 4.21875 
Q 45.015625 -1.421875 29.109375 -1.421875 
Q 23.484375 -1.421875 17.84375 -0.515625 
Q 12.203125 0.390625 6.6875 2.203125 
L 6.6875 16.703125 
Q 11.96875 14.0625 17.15625 12.71875 
Q 22.359375 11.375 27.390625 11.375 
Q 34.859375 11.375 38.84375 13.953125 
Q 42.828125 16.546875 42.828125 21.390625 
Q 42.828125 26.375 38.75 28.9375 
Q 34.671875 31.5 26.703125 31.5 
L 19.1875 31.5 
L 19.1875 43.609375 
L 27.09375 43.609375 
Q 34.1875 43.609375 37.640625 45.828125 
Q 41.109375 48.046875 41.109375 52.59375 
Q 41.109375 56.78125 37.734375 59.078125 
Q 34.375 61.375 28.21875 61.375 
Q 23.6875 61.375 19.046875 60.34375 
Q 14.40625 59.328125 9.8125 57.328125 
L 9.8125 71.09375 
Q 15.375 72.65625 20.84375 73.4375 
Q 26.3125 74.21875 31.59375 74.21875 
Q 45.796875 74.21875 52.84375 69.546875 
Q 59.90625 64.890625 59.90625 55.515625 
Q 59.90625 49.125 56.53125 45.046875 
Q 53.171875 40.96875 46.578125 39.3125 
z
" id="DejaVuSans-Bold-51"/>
      <path d="M 10.203125 18.890625 
L 27.78125 18.890625 
L 27.78125 0 
L 10.203125 0 
z
" id="DejaVuSans-Bold-46"/>
      <path d="M 9.1875 72.90625 
L 40.375 72.90625 
Q 54.296875 72.90625 61.734375 66.71875 
Q 69.1875 60.546875 69.1875 49.125 
Q 69.1875 37.640625 61.734375 31.46875 
Q 54.296875 25.296875 40.375 25.296875 
L 27.984375 25.296875 
L 27.984375 0 
L 9.1875 0 
z
M 27.984375 59.28125 
L 27.984375 38.921875 
L 38.375 38.921875 
Q 43.84375 38.921875 46.828125 41.578125 
Q 49.8125 44.234375 49.8125 49.125 
Q 49.8125 54 46.828125 56.640625 
Q 43.84375 59.28125 38.375 59.28125 
z
" id="DejaVuSans-Bold-80"/>
      <path d="M 22.21875 27.984375 
L 2.484375 54.6875 
L 21 54.6875 
L 32.171875 38.484375 
L 43.5 54.6875 
L 62.015625 54.6875 
L 42.28125 28.078125 
L 62.984375 0 
L 44.484375 0 
L 32.171875 17.28125 
L 20.015625 0 
L 1.515625 0 
z
" id="DejaVuSans-Bold-120"/>
      <path d="M 45.609375 46.6875 
L 45.609375 75.984375 
L 63.1875 75.984375 
L 63.1875 0 
L 45.609375 0 
L 45.609375 7.90625 
Q 42 3.078125 37.640625 0.828125 
Q 33.296875 -1.421875 27.59375 -1.421875 
Q 17.484375 -1.421875 10.984375 6.609375 
Q 4.5 14.65625 4.5 27.296875 
Q 4.5 39.9375 10.984375 47.96875 
Q 17.484375 56 27.59375 56 
Q 33.25 56 37.625 53.734375 
Q 42 51.46875 45.609375 46.6875 
z
M 34.078125 11.28125 
Q 39.703125 11.28125 42.65625 15.375 
Q 45.609375 19.484375 45.609375 27.296875 
Q 45.609375 35.109375 42.65625 39.203125 
Q 39.703125 43.3125 34.078125 43.3125 
Q 28.515625 43.3125 25.5625 39.203125 
Q 22.609375 35.109375 22.609375 27.296875 
Q 22.609375 19.484375 25.5625 15.375 
Q 28.515625 11.28125 34.078125 11.28125 
z
" id="DejaVuSans-Bold-100"/>
      <path d="M 51.125 52.984375 
L 51.125 39.703125 
Q 45.515625 42.046875 40.28125 43.21875 
Q 35.0625 44.390625 30.421875 44.390625 
Q 25.4375 44.390625 23.015625 43.140625 
Q 20.609375 41.890625 20.609375 39.3125 
Q 20.609375 37.203125 22.4375 36.078125 
Q 24.265625 34.96875 29 34.421875 
L 32.078125 33.984375 
Q 45.515625 32.28125 50.140625 28.375 
Q 54.78125 24.46875 54.78125 16.109375 
Q 54.78125 7.375 48.328125 2.96875 
Q 41.890625 -1.421875 29.109375 -1.421875 
Q 23.6875 -1.421875 17.890625 -0.5625 
Q 12.109375 0.296875 6 2 
L 6 15.28125 
Q 11.234375 12.75 16.71875 11.46875 
Q 22.21875 10.203125 27.875 10.203125 
Q 33.015625 10.203125 35.59375 11.609375 
Q 38.1875 13.03125 38.1875 15.828125 
Q 38.1875 18.171875 36.40625 19.3125 
Q 34.625 20.453125 29.296875 21.09375 
L 26.21875 21.484375 
Q 14.546875 22.953125 9.859375 26.90625 
Q 5.171875 30.859375 5.171875 38.921875 
Q 5.171875 47.609375 11.125 51.796875 
Q 17.09375 56 29.390625 56 
Q 34.234375 56 39.546875 55.265625 
Q 44.875 54.546875 51.125 52.984375 
z
" id="DejaVuSans-Bold-115"/>
      <path d="M 59.078125 45.609375 
Q 62.40625 50.6875 66.96875 53.34375 
Q 71.53125 56 77 56 
Q 86.421875 56 91.359375 50.1875 
Q 96.296875 44.390625 96.296875 33.296875 
L 96.296875 0 
L 78.71875 0 
L 78.71875 28.515625 
Q 78.765625 29.15625 78.78125 29.828125 
Q 78.8125 30.515625 78.8125 31.78125 
Q 78.8125 37.59375 77.09375 40.203125 
Q 75.390625 42.828125 71.578125 42.828125 
Q 66.609375 42.828125 63.890625 38.71875 
Q 61.1875 34.625 61.078125 26.859375 
L 61.078125 0 
L 43.5 0 
L 43.5 28.515625 
Q 43.5 37.59375 41.9375 40.203125 
Q 40.375 42.828125 36.375 42.828125 
Q 31.34375 42.828125 28.609375 38.703125 
Q 25.875 34.578125 25.875 26.90625 
L 25.875 0 
L 8.296875 0 
L 8.296875 54.6875 
L 25.875 54.6875 
L 25.875 46.6875 
Q 29.109375 51.3125 33.28125 53.65625 
Q 37.453125 56 42.484375 56 
Q 48.140625 56 52.484375 53.265625 
Q 56.84375 50.53125 59.078125 45.609375 
z
" id="DejaVuSans-Bold-109"/>
      <path d="M 34.421875 43.5 
Q 28.609375 43.5 25.5625 39.328125 
Q 22.515625 35.15625 22.515625 27.296875 
Q 22.515625 19.4375 25.5625 15.25 
Q 28.609375 11.078125 34.421875 11.078125 
Q 40.140625 11.078125 43.15625 15.25 
Q 46.1875 19.4375 46.1875 27.296875 
Q 46.1875 35.15625 43.15625 39.328125 
Q 40.140625 43.5 34.421875 43.5 
z
M 34.421875 56 
Q 48.53125 56 56.46875 48.375 
Q 64.40625 40.765625 64.40625 27.296875 
Q 64.40625 13.8125 56.46875 6.1875 
Q 48.53125 -1.421875 34.421875 -1.421875 
Q 20.265625 -1.421875 12.28125 6.1875 
Q 4.296875 13.8125 4.296875 27.296875 
Q 4.296875 40.765625 12.28125 48.375 
Q 20.265625 56 34.421875 56 
z
" id="DejaVuSans-Bold-111"/>
      <path d="M 27.484375 70.21875 
L 27.484375 54.6875 
L 45.515625 54.6875 
L 45.515625 42.1875 
L 27.484375 42.1875 
L 27.484375 19 
Q 27.484375 15.1875 29 13.84375 
Q 30.515625 12.5 35.015625 12.5 
L 44 12.5 
L 44 0 
L 29 0 
Q 18.65625 0 14.328125 4.3125 
Q 10.015625 8.640625 10.015625 19 
L 10.015625 42.1875 
L 1.3125 42.1875 
L 1.3125 54.6875 
L 10.015625 54.6875 
L 10.015625 70.21875 
z
" id="DejaVuSans-Bold-116"/>
      <path d="M 63.375 33.296875 
L 63.375 0 
L 45.796875 0 
L 45.796875 5.421875 
L 45.796875 25.484375 
Q 45.796875 32.5625 45.484375 35.25 
Q 45.171875 37.9375 44.390625 39.203125 
Q 43.359375 40.921875 41.59375 41.875 
Q 39.84375 42.828125 37.59375 42.828125 
Q 32.125 42.828125 29 38.59375 
Q 25.875 34.375 25.875 26.90625 
L 25.875 0 
L 8.40625 0 
L 8.40625 54.6875 
L 25.875 54.6875 
L 25.875 46.6875 
Q 29.828125 51.46875 34.265625 53.734375 
Q 38.71875 56 44.09375 56 
Q 53.5625 56 58.46875 50.1875 
Q 63.375 44.390625 63.375 33.296875 
z
" id="DejaVuSans-Bold-110"/>
      <path d="M 5.421875 35.890625 
L 36.078125 35.890625 
L 36.078125 21.6875 
L 5.421875 21.6875 
z
" id="DejaVuSans-Bold-45"/>
      <path d="M 1.515625 54.6875 
L 19 54.6875 
L 32.625 16.890625 
L 46.1875 54.6875 
L 63.71875 54.6875 
L 42.1875 0 
L 23 0 
z
" id="DejaVuSans-Bold-118"/>
      <path d="M 8.40625 75.984375 
L 25.875 75.984375 
L 25.875 0 
L 8.40625 0 
z
" id="DejaVuSans-Bold-108"/>
     </defs>
     <use xlink:href="#DejaVuSans-Bold-32"/>
     <use x="34.814453" xlink:href="#DejaVuSans-Bold-71"/>
     <use x="116.894531" xlink:href="#DejaVuSans-Bold-114"/>
     <use x="166.210938" xlink:href="#DejaVuSans-Bold-97"/>
     <use x="233.691406" xlink:href="#DejaVuSans-Bold-112"/>
     <use x="305.273438" xlink:href="#DejaVuSans-Bold-104"/>
     <use x="376.464844" xlink:href="#DejaVuSans-Bold-105"/>
     <use x="410.742188" xlink:href="#DejaVuSans-Bold-113"/>
     <use x="482.324219" xlink:href="#DejaVuSans-Bold-117"/>
     <use x="553.515625" xlink:href="#DejaVuSans-Bold-101"/>
     <use x="621.337891" xlink:href="#DejaVuSans-Bold-32"/>
     <use x="656.152344" xlink:href="#DejaVuSans-Bold-51"/>
     <use x="725.732422" xlink:href="#DejaVuSans-Bold-46"/>
     <use x="763.720703" xlink:href="#DejaVuSans-Bold-32"/>
     <use x="798.535156" xlink:href="#DejaVuSans-Bold-80"/>
     <use x="871.826172" xlink:href="#DejaVuSans-Bold-114"/>
     <use x="921.142578" xlink:href="#DejaVuSans-Bold-105"/>
     <use x="955.419922" xlink:href="#DejaVuSans-Bold-120"/>
     <use x="1019.921875" xlink:href="#DejaVuSans-Bold-32"/>
     <use x="1054.736328" xlink:href="#DejaVuSans-Bold-100"/>
     <use x="1126.318359" xlink:href="#DejaVuSans-Bold-101"/>
     <use x="1194.140625" xlink:href="#DejaVuSans-Bold-115"/>
     <use x="1253.662109" xlink:href="#DejaVuSans-Bold-32"/>
     <use x="1288.476562" xlink:href="#DejaVuSans-Bold-105"/>
     <use x="1322.753906" xlink:href="#DejaVuSans-Bold-109"/>
     <use x="1426.953125" xlink:href="#DejaVuSans-Bold-112"/>
     <use x="1498.535156" xlink:href="#DejaVuSans-Bold-111"/>
     <use x="1567.236328" xlink:href="#DejaVuSans-Bold-114"/>
     <use x="1616.552734" xlink:href="#DejaVuSans-Bold-116"/>
     <use x="1664.355469" xlink:href="#DejaVuSans-Bold-97"/>
     <use x="1731.835938" xlink:href="#DejaVuSans-Bold-116"/>
     <use x="1779.638672" xlink:href="#DejaVuSans-Bold-105"/>
     <use x="1813.916016" xlink:href="#DejaVuSans-Bold-111"/>
     <use x="1882.617188" xlink:href="#DejaVuSans-Bold-110"/>
     <use x="1953.808594" xlink:href="#DejaVuSans-Bold-115"/>
     <use x="2013.330078" xlink:href="#DejaVuSans-Bold-32"/>
     <use x="2048.144531" xlink:href="#DejaVuSans-Bold-32"/>
     <use x="2082.958984" xlink:href="#DejaVuSans-Bold-45"/>
     <use x="2124.462891" xlink:href="#DejaVuSans-Bold-32"/>
     <use x="2159.277344" xlink:href="#DejaVuSans-Bold-40"/>
     <use x="2204.980469" xlink:href="#DejaVuSans-Bold-118"/>
     <use x="2270.166016" xlink:href="#DejaVuSans-Bold-97"/>
     <use x="2337.646484" xlink:href="#DejaVuSans-Bold-114"/>
     <use x="2386.962891" xlink:href="#DejaVuSans-Bold-105"/>
     <use x="2421.240234" xlink:href="#DejaVuSans-Bold-97"/>
     <use x="2488.720703" xlink:href="#DejaVuSans-Bold-116"/>
     <use x="2536.523438" xlink:href="#DejaVuSans-Bold-105"/>
     <use x="2570.800781" xlink:href="#DejaVuSans-Bold-111"/>
     <use x="2639.501953" xlink:href="#DejaVuSans-Bold-110"/>
     <use x="2710.693359" xlink:href="#DejaVuSans-Bold-32"/>
     <use x="2745.507812" xlink:href="#DejaVuSans-Bold-105"/>
     <use x="2779.785156" xlink:href="#DejaVuSans-Bold-110"/>
     <use x="2850.976562" xlink:href="#DejaVuSans-Bold-116"/>
     <use x="2898.779297" xlink:href="#DejaVuSans-Bold-101"/>
     <use x="2966.601562" xlink:href="#DejaVuSans-Bold-114"/>
     <use x="3015.917969" xlink:href="#DejaVuSans-Bold-97"/>
     <use x="3083.398438" xlink:href="#DejaVuSans-Bold-110"/>
     <use x="3154.589844" xlink:href="#DejaVuSans-Bold-110"/>
     <use x="3225.78125" xlink:href="#DejaVuSans-Bold-117"/>
     <use x="3296.972656" xlink:href="#DejaVuSans-Bold-101"/>
     <use x="3364.794922" xlink:href="#DejaVuSans-Bold-108"/>
     <use x="3399.072266" xlink:href="#DejaVuSans-Bold-108"/>
     <use x="3433.349609" xlink:href="#DejaVuSans-Bold-101"/>
     <use x="3501.171875" xlink:href="#DejaVuSans-Bold-32"/>
     <use x="3535.986328" xlink:href="#DejaVuSans-Bold-45"/>
     <use x="3577.490234" xlink:href="#DejaVuSans-Bold-32"/>
     <use x="3612.304688" xlink:href="#DejaVuSans-Bold-37"/>
     <use x="3712.5" xlink:href="#DejaVuSans-Bold-41"/>
    </g>
   </g>
   <g id="legend_1">
    <g id="patch_7">
     <path d="M 178.554 46.678125 
L 383.193062 46.678125 
Q 385.193062 46.678125 385.193062 44.678125 
L 385.193062 31 
Q 385.193062 29 383.193062 29 
L 178.554 29 
Q 176.554 29 176.554 31 
L 176.554 44.678125 
Q 176.554 46.678125 178.554 46.678125 
z
" style="fill:#ffffff;opacity:0.8;stroke:#cccccc;stroke-linejoin:miter;"/>
    </g>
    <g id="line2d_15">
     <path d="M 180.554 37.098437 
L 200.554 37.098437 
" style="fill:none;stroke:#0072b2;stroke-linecap:square;stroke-width:1.5;"/>
    </g>
    <g id="line2d_16"/>
    <g id="text_15">
     <!-- Prix des importations  - Allemagne -->
     <g transform="translate(208.554 40.598437)scale(0.1 -0.1)">
      <defs>
       <path d="M 19.671875 64.796875 
L 19.671875 37.40625 
L 32.078125 37.40625 
Q 38.96875 37.40625 42.71875 40.96875 
Q 46.484375 44.53125 46.484375 51.125 
Q 46.484375 57.671875 42.71875 61.234375 
Q 38.96875 64.796875 32.078125 64.796875 
z
M 9.8125 72.90625 
L 32.078125 72.90625 
Q 44.34375 72.90625 50.609375 67.359375 
Q 56.890625 61.8125 56.890625 51.125 
Q 56.890625 40.328125 50.609375 34.8125 
Q 44.34375 29.296875 32.078125 29.296875 
L 19.671875 29.296875 
L 19.671875 0 
L 9.8125 0 
z
" id="DejaVuSans-80"/>
       <path d="M 41.109375 46.296875 
Q 39.59375 47.171875 37.8125 47.578125 
Q 36.03125 48 33.890625 48 
Q 26.265625 48 22.1875 43.046875 
Q 18.109375 38.09375 18.109375 28.8125 
L 18.109375 0 
L 9.078125 0 
L 9.078125 54.6875 
L 18.109375 54.6875 
L 18.109375 46.1875 
Q 20.953125 51.171875 25.484375 53.578125 
Q 30.03125 56 36.53125 56 
Q 37.453125 56 38.578125 55.875 
Q 39.703125 55.765625 41.0625 55.515625 
z
" id="DejaVuSans-114"/>
       <path d="M 9.421875 54.6875 
L 18.40625 54.6875 
L 18.40625 0 
L 9.421875 0 
z
M 9.421875 75.984375 
L 18.40625 75.984375 
L 18.40625 64.59375 
L 9.421875 64.59375 
z
" id="DejaVuSans-105"/>
       <path d="M 54.890625 54.6875 
L 35.109375 28.078125 
L 55.90625 0 
L 45.3125 0 
L 29.390625 21.484375 
L 13.484375 0 
L 2.875 0 
L 24.125 28.609375 
L 4.6875 54.6875 
L 15.28125 54.6875 
L 29.78125 35.203125 
L 44.28125 54.6875 
z
" id="DejaVuSans-120"/>
       <path id="DejaVuSans-32"/>
       <path d="M 45.40625 46.390625 
L 45.40625 75.984375 
L 54.390625 75.984375 
L 54.390625 0 
L 45.40625 0 
L 45.40625 8.203125 
Q 42.578125 3.328125 38.25 0.953125 
Q 33.9375 -1.421875 27.875 -1.421875 
Q 17.96875 -1.421875 11.734375 6.484375 
Q 5.515625 14.40625 5.515625 27.296875 
Q 5.515625 40.1875 11.734375 48.09375 
Q 17.96875 56 27.875 56 
Q 33.9375 56 38.25 53.625 
Q 42.578125 51.265625 45.40625 46.390625 
z
M 14.796875 27.296875 
Q 14.796875 17.390625 18.875 11.75 
Q 22.953125 6.109375 30.078125 6.109375 
Q 37.203125 6.109375 41.296875 11.75 
Q 45.40625 17.390625 45.40625 27.296875 
Q 45.40625 37.203125 41.296875 42.84375 
Q 37.203125 48.484375 30.078125 48.484375 
Q 22.953125 48.484375 18.875 42.84375 
Q 14.796875 37.203125 14.796875 27.296875 
z
" id="DejaVuSans-100"/>
       <path d="M 56.203125 29.59375 
L 56.203125 25.203125 
L 14.890625 25.203125 
Q 15.484375 15.921875 20.484375 11.0625 
Q 25.484375 6.203125 34.421875 6.203125 
Q 39.59375 6.203125 44.453125 7.46875 
Q 49.3125 8.734375 54.109375 11.28125 
L 54.109375 2.78125 
Q 49.265625 0.734375 44.1875 -0.34375 
Q 39.109375 -1.421875 33.890625 -1.421875 
Q 20.796875 -1.421875 13.15625 6.1875 
Q 5.515625 13.8125 5.515625 26.8125 
Q 5.515625 40.234375 12.765625 48.109375 
Q 20.015625 56 32.328125 56 
Q 43.359375 56 49.78125 48.890625 
Q 56.203125 41.796875 56.203125 29.59375 
z
M 47.21875 32.234375 
Q 47.125 39.59375 43.09375 43.984375 
Q 39.0625 48.390625 32.421875 48.390625 
Q 24.90625 48.390625 20.390625 44.140625 
Q 15.875 39.890625 15.1875 32.171875 
z
" id="DejaVuSans-101"/>
       <path d="M 44.28125 53.078125 
L 44.28125 44.578125 
Q 40.484375 46.53125 36.375 47.5 
Q 32.28125 48.484375 27.875 48.484375 
Q 21.1875 48.484375 17.84375 46.4375 
Q 14.5 44.390625 14.5 40.28125 
Q 14.5 37.15625 16.890625 35.375 
Q 19.28125 33.59375 26.515625 31.984375 
L 29.59375 31.296875 
Q 39.15625 29.25 43.1875 25.515625 
Q 47.21875 21.78125 47.21875 15.09375 
Q 47.21875 7.46875 41.1875 3.015625 
Q 35.15625 -1.421875 24.609375 -1.421875 
Q 20.21875 -1.421875 15.453125 -0.5625 
Q 10.6875 0.296875 5.421875 2 
L 5.421875 11.28125 
Q 10.40625 8.6875 15.234375 7.390625 
Q 20.0625 6.109375 24.8125 6.109375 
Q 31.15625 6.109375 34.5625 8.28125 
Q 37.984375 10.453125 37.984375 14.40625 
Q 37.984375 18.0625 35.515625 20.015625 
Q 33.0625 21.96875 24.703125 23.78125 
L 21.578125 24.515625 
Q 13.234375 26.265625 9.515625 29.90625 
Q 5.8125 33.546875 5.8125 39.890625 
Q 5.8125 47.609375 11.28125 51.796875 
Q 16.75 56 26.8125 56 
Q 31.78125 56 36.171875 55.265625 
Q 40.578125 54.546875 44.28125 53.078125 
z
" id="DejaVuSans-115"/>
       <path d="M 52 44.1875 
Q 55.375 50.25 60.0625 53.125 
Q 64.75 56 71.09375 56 
Q 79.640625 56 84.28125 50.015625 
Q 88.921875 44.046875 88.921875 33.015625 
L 88.921875 0 
L 79.890625 0 
L 79.890625 32.71875 
Q 79.890625 40.578125 77.09375 44.375 
Q 74.3125 48.1875 68.609375 48.1875 
Q 61.625 48.1875 57.5625 43.546875 
Q 53.515625 38.921875 53.515625 30.90625 
L 53.515625 0 
L 44.484375 0 
L 44.484375 32.71875 
Q 44.484375 40.625 41.703125 44.40625 
Q 38.921875 48.1875 33.109375 48.1875 
Q 26.21875 48.1875 22.15625 43.53125 
Q 18.109375 38.875 18.109375 30.90625 
L 18.109375 0 
L 9.078125 0 
L 9.078125 54.6875 
L 18.109375 54.6875 
L 18.109375 46.1875 
Q 21.1875 51.21875 25.484375 53.609375 
Q 29.78125 56 35.6875 56 
Q 41.65625 56 45.828125 52.96875 
Q 50 49.953125 52 44.1875 
z
" id="DejaVuSans-109"/>
       <path d="M 18.109375 8.203125 
L 18.109375 -20.796875 
L 9.078125 -20.796875 
L 9.078125 54.6875 
L 18.109375 54.6875 
L 18.109375 46.390625 
Q 20.953125 51.265625 25.265625 53.625 
Q 29.59375 56 35.59375 56 
Q 45.5625 56 51.78125 48.09375 
Q 58.015625 40.1875 58.015625 27.296875 
Q 58.015625 14.40625 51.78125 6.484375 
Q 45.5625 -1.421875 35.59375 -1.421875 
Q 29.59375 -1.421875 25.265625 0.953125 
Q 20.953125 3.328125 18.109375 8.203125 
z
M 48.6875 27.296875 
Q 48.6875 37.203125 44.609375 42.84375 
Q 40.53125 48.484375 33.40625 48.484375 
Q 26.265625 48.484375 22.1875 42.84375 
Q 18.109375 37.203125 18.109375 27.296875 
Q 18.109375 17.390625 22.1875 11.75 
Q 26.265625 6.109375 33.40625 6.109375 
Q 40.53125 6.109375 44.609375 11.75 
Q 48.6875 17.390625 48.6875 27.296875 
z
" id="DejaVuSans-112"/>
       <path d="M 30.609375 48.390625 
Q 23.390625 48.390625 19.1875 42.75 
Q 14.984375 37.109375 14.984375 27.296875 
Q 14.984375 17.484375 19.15625 11.84375 
Q 23.34375 6.203125 30.609375 6.203125 
Q 37.796875 6.203125 41.984375 11.859375 
Q 46.1875 17.53125 46.1875 27.296875 
Q 46.1875 37.015625 41.984375 42.703125 
Q 37.796875 48.390625 30.609375 48.390625 
z
M 30.609375 56 
Q 42.328125 56 49.015625 48.375 
Q 55.71875 40.765625 55.71875 27.296875 
Q 55.71875 13.875 49.015625 6.21875 
Q 42.328125 -1.421875 30.609375 -1.421875 
Q 18.84375 -1.421875 12.171875 6.21875 
Q 5.515625 13.875 5.515625 27.296875 
Q 5.515625 40.765625 12.171875 48.375 
Q 18.84375 56 30.609375 56 
z
" id="DejaVuSans-111"/>
       <path d="M 18.3125 70.21875 
L 18.3125 54.6875 
L 36.8125 54.6875 
L 36.8125 47.703125 
L 18.3125 47.703125 
L 18.3125 18.015625 
Q 18.3125 11.328125 20.140625 9.421875 
Q 21.96875 7.515625 27.59375 7.515625 
L 36.8125 7.515625 
L 36.8125 0 
L 27.59375 0 
Q 17.1875 0 13.234375 3.875 
Q 9.28125 7.765625 9.28125 18.015625 
L 9.28125 47.703125 
L 2.6875 47.703125 
L 2.6875 54.6875 
L 9.28125 54.6875 
L 9.28125 70.21875 
z
" id="DejaVuSans-116"/>
       <path d="M 34.28125 27.484375 
Q 23.390625 27.484375 19.1875 25 
Q 14.984375 22.515625 14.984375 16.5 
Q 14.984375 11.71875 18.140625 8.90625 
Q 21.296875 6.109375 26.703125 6.109375 
Q 34.1875 6.109375 38.703125 11.40625 
Q 43.21875 16.703125 43.21875 25.484375 
L 43.21875 27.484375 
z
M 52.203125 31.203125 
L 52.203125 0 
L 43.21875 0 
L 43.21875 8.296875 
Q 40.140625 3.328125 35.546875 0.953125 
Q 30.953125 -1.421875 24.3125 -1.421875 
Q 15.921875 -1.421875 10.953125 3.296875 
Q 6 8.015625 6 15.921875 
Q 6 25.140625 12.171875 29.828125 
Q 18.359375 34.515625 30.609375 34.515625 
L 43.21875 34.515625 
L 43.21875 35.40625 
Q 43.21875 41.609375 39.140625 45 
Q 35.0625 48.390625 27.6875 48.390625 
Q 23 48.390625 18.546875 47.265625 
Q 14.109375 46.140625 10.015625 43.890625 
L 10.015625 52.203125 
Q 14.9375 54.109375 19.578125 55.046875 
Q 24.21875 56 28.609375 56 
Q 40.484375 56 46.34375 49.84375 
Q 52.203125 43.703125 52.203125 31.203125 
z
" id="DejaVuSans-97"/>
       <path d="M 54.890625 33.015625 
L 54.890625 0 
L 45.90625 0 
L 45.90625 32.71875 
Q 45.90625 40.484375 42.875 44.328125 
Q 39.84375 48.1875 33.796875 48.1875 
Q 26.515625 48.1875 22.3125 43.546875 
Q 18.109375 38.921875 18.109375 30.90625 
L 18.109375 0 
L 9.078125 0 
L 9.078125 54.6875 
L 18.109375 54.6875 
L 18.109375 46.1875 
Q 21.34375 51.125 25.703125 53.5625 
Q 30.078125 56 35.796875 56 
Q 45.21875 56 50.046875 50.171875 
Q 54.890625 44.34375 54.890625 33.015625 
z
" id="DejaVuSans-110"/>
       <path d="M 4.890625 31.390625 
L 31.203125 31.390625 
L 31.203125 23.390625 
L 4.890625 23.390625 
z
" id="DejaVuSans-45"/>
       <path d="M 34.1875 63.1875 
L 20.796875 26.90625 
L 47.609375 26.90625 
z
M 28.609375 72.90625 
L 39.796875 72.90625 
L 67.578125 0 
L 57.328125 0 
L 50.6875 18.703125 
L 17.828125 18.703125 
L 11.1875 0 
L 0.78125 0 
z
" id="DejaVuSans-65"/>
       <path d="M 9.421875 75.984375 
L 18.40625 75.984375 
L 18.40625 0 
L 9.421875 0 
z
" id="DejaVuSans-108"/>
       <path d="M 45.40625 27.984375 
Q 45.40625 37.75 41.375 43.109375 
Q 37.359375 48.484375 30.078125 48.484375 
Q 22.859375 48.484375 18.828125 43.109375 
Q 14.796875 37.75 14.796875 27.984375 
Q 14.796875 18.265625 18.828125 12.890625 
Q 22.859375 7.515625 30.078125 7.515625 
Q 37.359375 7.515625 41.375 12.890625 
Q 45.40625 18.265625 45.40625 27.984375 
z
M 54.390625 6.78125 
Q 54.390625 -7.171875 48.1875 -13.984375 
Q 42 -20.796875 29.203125 -20.796875 
Q 24.46875 -20.796875 20.265625 -20.09375 
Q 16.0625 -19.390625 12.109375 -17.921875 
L 12.109375 -9.1875 
Q 16.0625 -11.328125 19.921875 -12.34375 
Q 23.78125 -13.375 27.78125 -13.375 
Q 36.625 -13.375 41.015625 -8.765625 
Q 45.40625 -4.15625 45.40625 5.171875 
L 45.40625 9.625 
Q 42.625 4.78125 38.28125 2.390625 
Q 33.9375 0 27.875 0 
Q 17.828125 0 11.671875 7.65625 
Q 5.515625 15.328125 5.515625 27.984375 
Q 5.515625 40.671875 11.671875 48.328125 
Q 17.828125 56 27.875 56 
Q 33.9375 56 38.28125 53.609375 
Q 42.625 51.21875 45.40625 46.390625 
L 45.40625 54.6875 
L 54.390625 54.6875 
z
" id="DejaVuSans-103"/>
      </defs>
      <use xlink:href="#DejaVuSans-80"/>
      <use x="58.552734" xlink:href="#DejaVuSans-114"/>
      <use x="99.666016" xlink:href="#DejaVuSans-105"/>
      <use x="127.449219" xlink:href="#DejaVuSans-120"/>
      <use x="186.628906" xlink:href="#DejaVuSans-32"/>
      <use x="218.416016" xlink:href="#DejaVuSans-100"/>
      <use x="281.892578" xlink:href="#DejaVuSans-101"/>
      <use x="343.416016" xlink:href="#DejaVuSans-115"/>
      <use x="395.515625" xlink:href="#DejaVuSans-32"/>
      <use x="427.302734" xlink:href="#DejaVuSans-105"/>
      <use x="455.085938" xlink:href="#DejaVuSans-109"/>
      <use x="552.498047" xlink:href="#DejaVuSans-112"/>
      <use x="615.974609" xlink:href="#DejaVuSans-111"/>
      <use x="677.15625" xlink:href="#DejaVuSans-114"/>
      <use x="718.269531" xlink:href="#DejaVuSans-116"/>
      <use x="757.478516" xlink:href="#DejaVuSans-97"/>
      <use x="818.757812" xlink:href="#DejaVuSans-116"/>
      <use x="857.966797" xlink:href="#DejaVuSans-105"/>
      <use x="885.75" xlink:href="#DejaVuSans-111"/>
      <use x="946.931641" xlink:href="#DejaVuSans-110"/>
      <use x="1010.310547" xlink:href="#DejaVuSans-115"/>
      <use x="1062.410156" xlink:href="#DejaVuSans-32"/>
      <use x="1094.197266" xlink:href="#DejaVuSans-32"/>
      <use x="1125.984375" xlink:href="#DejaVuSans-45"/>
      <use x="1162.068359" xlink:href="#DejaVuSans-32"/>
      <use x="1193.855469" xlink:href="#DejaVuSans-65"/>
      <use x="1262.263672" xlink:href="#DejaVuSans-108"/>
      <use x="1290.046875" xlink:href="#DejaVuSans-108"/>
      <use x="1317.830078" xlink:href="#DejaVuSans-101"/>
      <use x="1379.353516" xlink:href="#DejaVuSans-109"/>
      <use x="1476.765625" xlink:href="#DejaVuSans-97"/>
      <use x="1538.044922" xlink:href="#DejaVuSans-103"/>
      <use x="1601.521484" xlink:href="#DejaVuSans-110"/>
      <use x="1664.900391" xlink:href="#DejaVuSans-101"/>
     </g>
    </g>
   </g>
  </g>
 </g>
 <defs>
  <clipPath id="p866e37bbaa">
   <rect height="293.72" width="397.78" x="52.22" y="24"/>
  </clipPath>
 </defs>
</svg>
