<?xml version="1.0" encoding="utf-8" standalone="no"?>
<!DOCTYPE svg PUBLIC "-//W3C//DTD SVG 1.1//EN"
  "http://www.w3.org/Graphics/SVG/1.1/DTD/svg11.dtd">
<!-- Created with matplotlib (https://matplotlib.org/) -->
<svg height="345.6pt" version="1.1" viewBox="0 0 460.8 345.6" width="460.8pt" xmlns="http://www.w3.org/2000/svg" xmlns:xlink="http://www.w3.org/1999/xlink">
 <metadata>
  <rdf:RDF xmlns:cc="http://creativecommons.org/ns#" xmlns:dc="http://purl.org/dc/elements/1.1/" xmlns:rdf="http://www.w3.org/1999/02/22-rdf-syntax-ns#">
   <cc:Work>
    <dc:type rdf:resource="http://purl.org/dc/dcmitype/StillImage"/>
    <dc:date>2021-08-01T13:44:03.315367</dc:date>
    <dc:format>image/svg+xml</dc:format>
    <dc:creator>
     <cc:Agent>
      <dc:title>Matplotlib v3.3.4, https://matplotlib.org/</dc:title>
     </cc:Agent>
    </dc:creator>
   </cc:Work>
  </rdf:RDF>
 </metadata>
 <defs>
  <style type="text/css">*{stroke-linecap:butt;stroke-linejoin:round;}</style>
 </defs>
 <g id="figure_1">
  <g id="patch_1">
   <path d="M 0 345.6 
L 460.8 345.6 
L 460.8 0 
L 0 0 
z
" style="fill:#ffffff;"/>
  </g>
  <g id="axes_1">
   <g id="patch_2">
    <path d="M 45.92 317.72 
L 445.334503 317.72 
L 445.334503 24 
L 45.92 24 
z
" style="fill:#ffffff;"/>
   </g>
   <g id="matplotlib.axis_1">
    <g id="xtick_1">
     <g id="line2d_1">
      <defs>
       <path d="M 0 0 
L 0 3.5 
" id="mba9ba7a00a" style="stroke:#000000;stroke-width:0.8;"/>
      </defs>
      <g>
       <use style="stroke:#000000;stroke-width:0.8;" x="84.264395" xlink:href="#mba9ba7a00a" y="317.72"/>
      </g>
     </g>
     <g id="text_1">
      <!-- 2006 -->
      <g transform="translate(71.539395 332.318437)scale(0.1 -0.1)">
       <defs>
        <path d="M 19.1875 8.296875 
L 53.609375 8.296875 
L 53.609375 0 
L 7.328125 0 
L 7.328125 8.296875 
Q 12.9375 14.109375 22.625 23.890625 
Q 32.328125 33.6875 34.8125 36.53125 
Q 39.546875 41.84375 41.421875 45.53125 
Q 43.3125 49.21875 43.3125 52.78125 
Q 43.3125 58.59375 39.234375 62.25 
Q 35.15625 65.921875 28.609375 65.921875 
Q 23.96875 65.921875 18.8125 64.3125 
Q 13.671875 62.703125 7.8125 59.421875 
L 7.8125 69.390625 
Q 13.765625 71.78125 18.9375 73 
Q 24.125 74.21875 28.421875 74.21875 
Q 39.75 74.21875 46.484375 68.546875 
Q 53.21875 62.890625 53.21875 53.421875 
Q 53.21875 48.921875 51.53125 44.890625 
Q 49.859375 40.875 45.40625 35.40625 
Q 44.1875 33.984375 37.640625 27.21875 
Q 31.109375 20.453125 19.1875 8.296875 
z
" id="DejaVuSans-50"/>
        <path d="M 31.78125 66.40625 
Q 24.171875 66.40625 20.328125 58.90625 
Q 16.5 51.421875 16.5 36.375 
Q 16.5 21.390625 20.328125 13.890625 
Q 24.171875 6.390625 31.78125 6.390625 
Q 39.453125 6.390625 43.28125 13.890625 
Q 47.125 21.390625 47.125 36.375 
Q 47.125 51.421875 43.28125 58.90625 
Q 39.453125 66.40625 31.78125 66.40625 
z
M 31.78125 74.21875 
Q 44.046875 74.21875 50.515625 64.515625 
Q 56.984375 54.828125 56.984375 36.375 
Q 56.984375 17.96875 50.515625 8.265625 
Q 44.046875 -1.421875 31.78125 -1.421875 
Q 19.53125 -1.421875 13.0625 8.265625 
Q 6.59375 17.96875 6.59375 36.375 
Q 6.59375 54.828125 13.0625 64.515625 
Q 19.53125 74.21875 31.78125 74.21875 
z
" id="DejaVuSans-48"/>
        <path d="M 33.015625 40.375 
Q 26.375 40.375 22.484375 35.828125 
Q 18.609375 31.296875 18.609375 23.390625 
Q 18.609375 15.53125 22.484375 10.953125 
Q 26.375 6.390625 33.015625 6.390625 
Q 39.65625 6.390625 43.53125 10.953125 
Q 47.40625 15.53125 47.40625 23.390625 
Q 47.40625 31.296875 43.53125 35.828125 
Q 39.65625 40.375 33.015625 40.375 
z
M 52.59375 71.296875 
L 52.59375 62.3125 
Q 48.875 64.0625 45.09375 64.984375 
Q 41.3125 65.921875 37.59375 65.921875 
Q 27.828125 65.921875 22.671875 59.328125 
Q 17.53125 52.734375 16.796875 39.40625 
Q 19.671875 43.65625 24.015625 45.921875 
Q 28.375 48.1875 33.59375 48.1875 
Q 44.578125 48.1875 50.953125 41.515625 
Q 57.328125 34.859375 57.328125 23.390625 
Q 57.328125 12.15625 50.6875 5.359375 
Q 44.046875 -1.421875 33.015625 -1.421875 
Q 20.359375 -1.421875 13.671875 8.265625 
Q 6.984375 17.96875 6.984375 36.375 
Q 6.984375 53.65625 15.1875 63.9375 
Q 23.390625 74.21875 37.203125 74.21875 
Q 40.921875 74.21875 44.703125 73.484375 
Q 48.484375 72.75 52.59375 71.296875 
z
" id="DejaVuSans-54"/>
       </defs>
       <use xlink:href="#DejaVuSans-50"/>
       <use x="63.623047" xlink:href="#DejaVuSans-48"/>
       <use x="127.246094" xlink:href="#DejaVuSans-48"/>
       <use x="190.869141" xlink:href="#DejaVuSans-54"/>
      </g>
     </g>
    </g>
    <g id="xtick_2">
     <g id="line2d_2">
      <g>
       <use style="stroke:#000000;stroke-width:0.8;" x="128.25875" xlink:href="#mba9ba7a00a" y="317.72"/>
      </g>
     </g>
     <g id="text_2">
      <!-- 2008 -->
      <g transform="translate(115.53375 332.318437)scale(0.1 -0.1)">
       <defs>
        <path d="M 31.78125 34.625 
Q 24.75 34.625 20.71875 30.859375 
Q 16.703125 27.09375 16.703125 20.515625 
Q 16.703125 13.921875 20.71875 10.15625 
Q 24.75 6.390625 31.78125 6.390625 
Q 38.8125 6.390625 42.859375 10.171875 
Q 46.921875 13.96875 46.921875 20.515625 
Q 46.921875 27.09375 42.890625 30.859375 
Q 38.875 34.625 31.78125 34.625 
z
M 21.921875 38.8125 
Q 15.578125 40.375 12.03125 44.71875 
Q 8.5 49.078125 8.5 55.328125 
Q 8.5 64.0625 14.71875 69.140625 
Q 20.953125 74.21875 31.78125 74.21875 
Q 42.671875 74.21875 48.875 69.140625 
Q 55.078125 64.0625 55.078125 55.328125 
Q 55.078125 49.078125 51.53125 44.71875 
Q 48 40.375 41.703125 38.8125 
Q 48.828125 37.15625 52.796875 32.3125 
Q 56.78125 27.484375 56.78125 20.515625 
Q 56.78125 9.90625 50.3125 4.234375 
Q 43.84375 -1.421875 31.78125 -1.421875 
Q 19.734375 -1.421875 13.25 4.234375 
Q 6.78125 9.90625 6.78125 20.515625 
Q 6.78125 27.484375 10.78125 32.3125 
Q 14.796875 37.15625 21.921875 38.8125 
z
M 18.3125 54.390625 
Q 18.3125 48.734375 21.84375 45.5625 
Q 25.390625 42.390625 31.78125 42.390625 
Q 38.140625 42.390625 41.71875 45.5625 
Q 45.3125 48.734375 45.3125 54.390625 
Q 45.3125 60.0625 41.71875 63.234375 
Q 38.140625 66.40625 31.78125 66.40625 
Q 25.390625 66.40625 21.84375 63.234375 
Q 18.3125 60.0625 18.3125 54.390625 
z
" id="DejaVuSans-56"/>
       </defs>
       <use xlink:href="#DejaVuSans-50"/>
       <use x="63.623047" xlink:href="#DejaVuSans-48"/>
       <use x="127.246094" xlink:href="#DejaVuSans-48"/>
       <use x="190.869141" xlink:href="#DejaVuSans-56"/>
      </g>
     </g>
    </g>
    <g id="xtick_3">
     <g id="line2d_3">
      <g>
       <use style="stroke:#000000;stroke-width:0.8;" x="172.313371" xlink:href="#mba9ba7a00a" y="317.72"/>
      </g>
     </g>
     <g id="text_3">
      <!-- 2010 -->
      <g transform="translate(159.588371 332.318437)scale(0.1 -0.1)">
       <defs>
        <path d="M 12.40625 8.296875 
L 28.515625 8.296875 
L 28.515625 63.921875 
L 10.984375 60.40625 
L 10.984375 69.390625 
L 28.421875 72.90625 
L 38.28125 72.90625 
L 38.28125 8.296875 
L 54.390625 8.296875 
L 54.390625 0 
L 12.40625 0 
z
" id="DejaVuSans-49"/>
       </defs>
       <use xlink:href="#DejaVuSans-50"/>
       <use x="63.623047" xlink:href="#DejaVuSans-48"/>
       <use x="127.246094" xlink:href="#DejaVuSans-49"/>
       <use x="190.869141" xlink:href="#DejaVuSans-48"/>
      </g>
     </g>
    </g>
    <g id="xtick_4">
     <g id="line2d_4">
      <g>
       <use style="stroke:#000000;stroke-width:0.8;" x="216.307726" xlink:href="#mba9ba7a00a" y="317.72"/>
      </g>
     </g>
     <g id="text_4">
      <!-- 2012 -->
      <g transform="translate(203.582726 332.318437)scale(0.1 -0.1)">
       <use xlink:href="#DejaVuSans-50"/>
       <use x="63.623047" xlink:href="#DejaVuSans-48"/>
       <use x="127.246094" xlink:href="#DejaVuSans-49"/>
       <use x="190.869141" xlink:href="#DejaVuSans-50"/>
      </g>
     </g>
    </g>
    <g id="xtick_5">
     <g id="line2d_5">
      <g>
       <use style="stroke:#000000;stroke-width:0.8;" x="260.362347" xlink:href="#mba9ba7a00a" y="317.72"/>
      </g>
     </g>
     <g id="text_5">
      <!-- 2014 -->
      <g transform="translate(247.637347 332.318437)scale(0.1 -0.1)">
       <defs>
        <path d="M 37.796875 64.3125 
L 12.890625 25.390625 
L 37.796875 25.390625 
z
M 35.203125 72.90625 
L 47.609375 72.90625 
L 47.609375 25.390625 
L 58.015625 25.390625 
L 58.015625 17.1875 
L 47.609375 17.1875 
L 47.609375 0 
L 37.796875 0 
L 37.796875 17.1875 
L 4.890625 17.1875 
L 4.890625 26.703125 
z
" id="DejaVuSans-52"/>
       </defs>
       <use xlink:href="#DejaVuSans-50"/>
       <use x="63.623047" xlink:href="#DejaVuSans-48"/>
       <use x="127.246094" xlink:href="#DejaVuSans-49"/>
       <use x="190.869141" xlink:href="#DejaVuSans-52"/>
      </g>
     </g>
    </g>
    <g id="xtick_6">
     <g id="line2d_6">
      <g>
       <use style="stroke:#000000;stroke-width:0.8;" x="304.356702" xlink:href="#mba9ba7a00a" y="317.72"/>
      </g>
     </g>
     <g id="text_6">
      <!-- 2016 -->
      <g transform="translate(291.631702 332.318437)scale(0.1 -0.1)">
       <use xlink:href="#DejaVuSans-50"/>
       <use x="63.623047" xlink:href="#DejaVuSans-48"/>
       <use x="127.246094" xlink:href="#DejaVuSans-49"/>
       <use x="190.869141" xlink:href="#DejaVuSans-54"/>
      </g>
     </g>
    </g>
    <g id="xtick_7">
     <g id="line2d_7">
      <g>
       <use style="stroke:#000000;stroke-width:0.8;" x="348.411323" xlink:href="#mba9ba7a00a" y="317.72"/>
      </g>
     </g>
     <g id="text_7">
      <!-- 2018 -->
      <g transform="translate(335.686323 332.318437)scale(0.1 -0.1)">
       <use xlink:href="#DejaVuSans-50"/>
       <use x="63.623047" xlink:href="#DejaVuSans-48"/>
       <use x="127.246094" xlink:href="#DejaVuSans-49"/>
       <use x="190.869141" xlink:href="#DejaVuSans-56"/>
      </g>
     </g>
    </g>
    <g id="xtick_8">
     <g id="line2d_8">
      <g>
       <use style="stroke:#000000;stroke-width:0.8;" x="392.405678" xlink:href="#mba9ba7a00a" y="317.72"/>
      </g>
     </g>
     <g id="text_8">
      <!-- 2020 -->
      <g transform="translate(379.680678 332.318437)scale(0.1 -0.1)">
       <use xlink:href="#DejaVuSans-50"/>
       <use x="63.623047" xlink:href="#DejaVuSans-48"/>
       <use x="127.246094" xlink:href="#DejaVuSans-50"/>
       <use x="190.869141" xlink:href="#DejaVuSans-48"/>
      </g>
     </g>
    </g>
    <g id="xtick_9">
     <g id="line2d_9">
      <g>
       <use style="stroke:#000000;stroke-width:0.8;" x="436.460299" xlink:href="#mba9ba7a00a" y="317.72"/>
      </g>
     </g>
     <g id="text_9">
      <!-- 2022 -->
      <g transform="translate(423.735299 332.318437)scale(0.1 -0.1)">
       <use xlink:href="#DejaVuSans-50"/>
       <use x="63.623047" xlink:href="#DejaVuSans-48"/>
       <use x="127.246094" xlink:href="#DejaVuSans-50"/>
       <use x="190.869141" xlink:href="#DejaVuSans-50"/>
      </g>
     </g>
    </g>
   </g>
   <g id="matplotlib.axis_2">
    <g id="ytick_1">
     <g id="line2d_10">
      <defs>
       <path d="M 0 0 
L -3.5 0 
" id="m7ccb317b4b" style="stroke:#000000;stroke-width:0.8;"/>
      </defs>
      <g>
       <use style="stroke:#000000;stroke-width:0.8;" x="45.92" xlink:href="#m7ccb317b4b" y="284.735401"/>
      </g>
     </g>
     <g id="text_10">
      <!-- −1 -->
      <g transform="translate(24.177813 288.53462)scale(0.1 -0.1)">
       <defs>
        <path d="M 10.59375 35.5 
L 73.1875 35.5 
L 73.1875 27.203125 
L 10.59375 27.203125 
z
" id="DejaVuSans-8722"/>
       </defs>
       <use xlink:href="#DejaVuSans-8722"/>
       <use x="83.789062" xlink:href="#DejaVuSans-49"/>
      </g>
     </g>
    </g>
    <g id="ytick_2">
     <g id="line2d_11">
      <g>
       <use style="stroke:#000000;stroke-width:0.8;" x="45.92" xlink:href="#m7ccb317b4b" y="245.468021"/>
      </g>
     </g>
     <g id="text_11">
      <!-- 0 -->
      <g transform="translate(32.5575 249.26724)scale(0.1 -0.1)">
       <use xlink:href="#DejaVuSans-48"/>
      </g>
     </g>
    </g>
    <g id="ytick_3">
     <g id="line2d_12">
      <g>
       <use style="stroke:#000000;stroke-width:0.8;" x="45.92" xlink:href="#m7ccb317b4b" y="206.200642"/>
      </g>
     </g>
     <g id="text_12">
      <!-- 1 -->
      <g transform="translate(32.5575 209.99986)scale(0.1 -0.1)">
       <use xlink:href="#DejaVuSans-49"/>
      </g>
     </g>
    </g>
    <g id="ytick_4">
     <g id="line2d_13">
      <g>
       <use style="stroke:#000000;stroke-width:0.8;" x="45.92" xlink:href="#m7ccb317b4b" y="166.933262"/>
      </g>
     </g>
     <g id="text_13">
      <!-- 2 -->
      <g transform="translate(32.5575 170.732481)scale(0.1 -0.1)">
       <use xlink:href="#DejaVuSans-50"/>
      </g>
     </g>
    </g>
    <g id="ytick_5">
     <g id="line2d_14">
      <g>
       <use style="stroke:#000000;stroke-width:0.8;" x="45.92" xlink:href="#m7ccb317b4b" y="127.665882"/>
      </g>
     </g>
     <g id="text_14">
      <!-- 3 -->
      <g transform="translate(32.5575 131.465101)scale(0.1 -0.1)">
       <defs>
        <path d="M 40.578125 39.3125 
Q 47.65625 37.796875 51.625 33 
Q 55.609375 28.21875 55.609375 21.1875 
Q 55.609375 10.40625 48.1875 4.484375 
Q 40.765625 -1.421875 27.09375 -1.421875 
Q 22.515625 -1.421875 17.65625 -0.515625 
Q 12.796875 0.390625 7.625 2.203125 
L 7.625 11.71875 
Q 11.71875 9.328125 16.59375 8.109375 
Q 21.484375 6.890625 26.8125 6.890625 
Q 36.078125 6.890625 40.9375 10.546875 
Q 45.796875 14.203125 45.796875 21.1875 
Q 45.796875 27.640625 41.28125 31.265625 
Q 36.765625 34.90625 28.71875 34.90625 
L 20.21875 34.90625 
L 20.21875 43.015625 
L 29.109375 43.015625 
Q 36.375 43.015625 40.234375 45.921875 
Q 44.09375 48.828125 44.09375 54.296875 
Q 44.09375 59.90625 40.109375 62.90625 
Q 36.140625 65.921875 28.71875 65.921875 
Q 24.65625 65.921875 20.015625 65.03125 
Q 15.375 64.15625 9.8125 62.3125 
L 9.8125 71.09375 
Q 15.4375 72.65625 20.34375 73.4375 
Q 25.25 74.21875 29.59375 74.21875 
Q 40.828125 74.21875 47.359375 69.109375 
Q 53.90625 64.015625 53.90625 55.328125 
Q 53.90625 49.265625 50.4375 45.09375 
Q 46.96875 40.921875 40.578125 39.3125 
z
" id="DejaVuSans-51"/>
       </defs>
       <use xlink:href="#DejaVuSans-51"/>
      </g>
     </g>
    </g>
    <g id="ytick_6">
     <g id="line2d_15">
      <g>
       <use style="stroke:#000000;stroke-width:0.8;" x="45.92" xlink:href="#m7ccb317b4b" y="88.398503"/>
      </g>
     </g>
     <g id="text_15">
      <!-- 4 -->
      <g transform="translate(32.5575 92.197721)scale(0.1 -0.1)">
       <use xlink:href="#DejaVuSans-52"/>
      </g>
     </g>
    </g>
    <g id="ytick_7">
     <g id="line2d_16">
      <g>
       <use style="stroke:#000000;stroke-width:0.8;" x="45.92" xlink:href="#m7ccb317b4b" y="49.131123"/>
      </g>
     </g>
     <g id="text_16">
      <!-- 5 -->
      <g transform="translate(32.5575 52.930342)scale(0.1 -0.1)">
       <defs>
        <path d="M 10.796875 72.90625 
L 49.515625 72.90625 
L 49.515625 64.59375 
L 19.828125 64.59375 
L 19.828125 46.734375 
Q 21.96875 47.46875 24.109375 47.828125 
Q 26.265625 48.1875 28.421875 48.1875 
Q 40.625 48.1875 47.75 41.5 
Q 54.890625 34.8125 54.890625 23.390625 
Q 54.890625 11.625 47.5625 5.09375 
Q 40.234375 -1.421875 26.90625 -1.421875 
Q 22.3125 -1.421875 17.546875 -0.640625 
Q 12.796875 0.140625 7.71875 1.703125 
L 7.71875 11.625 
Q 12.109375 9.234375 16.796875 8.0625 
Q 21.484375 6.890625 26.703125 6.890625 
Q 35.15625 6.890625 40.078125 11.328125 
Q 45.015625 15.765625 45.015625 23.390625 
Q 45.015625 31 40.078125 35.4375 
Q 35.15625 39.890625 26.703125 39.890625 
Q 22.75 39.890625 18.8125 39.015625 
Q 14.890625 38.140625 10.796875 36.28125 
z
" id="DejaVuSans-53"/>
       </defs>
       <use xlink:href="#DejaVuSans-53"/>
      </g>
     </g>
    </g>
    <g id="text_17">
     <!-- (%) -->
     <g transform="translate(18.306094 179.482422)rotate(-90)scale(0.09 -0.09)">
      <defs>
       <path d="M 37.703125 -13.1875 
L 23.1875 -13.1875 
Q 15.71875 -1.125 12.15625 9.734375 
Q 8.59375 20.609375 8.59375 31.296875 
Q 8.59375 42 12.171875 52.953125 
Q 15.765625 63.921875 23.1875 75.875 
L 37.703125 75.875 
Q 31.453125 64.3125 28.328125 53.25 
Q 25.203125 42.1875 25.203125 31.390625 
Q 25.203125 20.609375 28.296875 9.515625 
Q 31.390625 -1.5625 37.703125 -13.1875 
z
" id="DejaVuSans-Bold-40"/>
       <path d="M 77.484375 30.078125 
Q 74.03125 30.078125 72.125 27.078125 
Q 70.21875 24.078125 70.21875 18.5 
Q 70.21875 12.890625 72.09375 9.890625 
Q 73.96875 6.890625 77.484375 6.890625 
Q 81 6.890625 82.859375 9.890625 
Q 84.71875 12.890625 84.71875 18.5 
Q 84.71875 24.078125 82.828125 27.078125 
Q 80.953125 30.078125 77.484375 30.078125 
z
M 77.484375 38.28125 
Q 86.578125 38.28125 91.796875 33 
Q 97.015625 27.734375 97.015625 18.5 
Q 97.015625 9.28125 91.796875 3.921875 
Q 86.578125 -1.421875 77.484375 -1.421875 
Q 68.40625 -1.421875 63.15625 3.921875 
Q 57.90625 9.28125 57.90625 18.5 
Q 57.90625 27.6875 63.15625 32.984375 
Q 68.40625 38.28125 77.484375 38.28125 
z
M 32.71875 -1.421875 
L 21.921875 -1.421875 
L 67.484375 74.21875 
L 78.328125 74.21875 
z
M 22.703125 74.21875 
Q 31.78125 74.21875 36.984375 68.921875 
Q 42.1875 63.625 42.1875 54.390625 
Q 42.1875 45.171875 36.984375 39.84375 
Q 31.78125 34.515625 22.703125 34.515625 
Q 13.625 34.515625 8.421875 39.84375 
Q 3.21875 45.171875 3.21875 54.390625 
Q 3.21875 63.625 8.421875 68.921875 
Q 13.625 74.21875 22.703125 74.21875 
z
M 22.703125 66.015625 
Q 19.1875 66.015625 17.28125 62.984375 
Q 15.375 59.96875 15.375 54.390625 
Q 15.375 48.78125 17.28125 45.71875 
Q 19.1875 42.671875 22.703125 42.671875 
Q 26.21875 42.671875 28.09375 45.71875 
Q 29.984375 48.78125 29.984375 54.390625 
Q 29.984375 59.96875 28.078125 62.984375 
Q 26.171875 66.015625 22.703125 66.015625 
z
" id="DejaVuSans-Bold-37"/>
       <path d="M 8.015625 -13.1875 
Q 14.265625 -1.5625 17.390625 9.515625 
Q 20.515625 20.609375 20.515625 31.390625 
Q 20.515625 42.1875 17.390625 53.25 
Q 14.265625 64.3125 8.015625 75.875 
L 22.515625 75.875 
Q 29.9375 63.921875 33.515625 52.953125 
Q 37.109375 42 37.109375 31.296875 
Q 37.109375 20.609375 33.546875 9.734375 
Q 29.984375 -1.125 22.515625 -13.1875 
z
" id="DejaVuSans-Bold-41"/>
      </defs>
      <use xlink:href="#DejaVuSans-Bold-40"/>
      <use x="45.703125" xlink:href="#DejaVuSans-Bold-37"/>
      <use x="145.898438" xlink:href="#DejaVuSans-Bold-41"/>
     </g>
    </g>
   </g>
   <g id="line2d_17">
    <path clip-path="url(#p9367f81a75)" d="M 64.075205 170.86 
L 65.762659 163.006524 
L 67.630913 159.079786 
L 71.307153 166.933262 
L 73.115141 166.933262 
L 76.851647 159.079786 
L 78.659635 143.372834 
L 80.527888 147.299572 
L 82.335875 155.153048 
L 84.204129 155.153048 
L 86.072382 151.22631 
L 87.759837 151.22631 
L 89.62809 159.079786 
L 91.436077 151.22631 
L 93.304331 147.299572 
L 95.112318 147.299572 
L 98.848825 155.153048 
L 100.656812 174.786738 
L 102.525066 182.640214 
L 104.333053 174.786738 
L 106.201306 170.86 
L 108.06956 174.786738 
L 109.757014 174.786738 
L 111.625268 170.86 
L 117.109496 170.86 
L 120.846002 178.713476 
L 124.522243 147.299572 
L 126.33023 123.739144 
L 128.198484 123.739144 
L 131.814458 115.885668 
L 133.682711 104.105455 
L 135.490699 115.885668 
L 137.358952 100.178717 
L 141.035193 84.471765 
L 142.903446 96.251979 
L 144.711433 104.105455 
L 146.579687 119.812406 
L 148.387674 163.006524 
L 152.124181 202.273904 
L 153.811636 198.347166 
L 155.679889 221.907594 
L 157.487876 221.907594 
L 159.35613 245.468021 
L 161.164117 249.394759 
L 163.03237 269.028449 
L 164.900624 253.321497 
L 166.708611 257.248235 
L 168.576864 249.394759 
L 170.384851 225.834332 
L 172.253105 210.12738 
L 174.121358 210.12738 
L 175.808813 214.054118 
L 177.677066 182.640214 
L 179.485054 182.640214 
L 181.353307 178.713476 
L 183.161294 186.566952 
L 185.029548 178.713476 
L 186.897801 182.640214 
L 188.705788 170.86 
L 192.382029 170.86 
L 194.250282 159.079786 
L 196.118536 155.153048 
L 197.80599 151.22631 
L 199.674244 139.446096 
L 201.482231 135.519358 
L 203.350484 139.446096 
L 205.158472 139.446096 
L 208.894979 147.299572 
L 210.702966 127.665882 
L 214.379206 127.665882 
L 216.24746 135.519358 
L 218.115713 139.446096 
L 221.731688 139.446096 
L 223.539675 143.372834 
L 225.407928 151.22631 
L 229.084169 151.22631 
L 230.952422 143.372834 
L 232.760409 143.372834 
L 234.628663 147.299572 
L 236.43665 159.079786 
L 238.304903 159.079786 
L 240.173157 166.933262 
L 241.860612 170.86 
L 243.728865 178.713476 
L 245.536852 198.347166 
L 249.213093 182.640214 
L 251.081346 182.640214 
L 252.9496 194.420428 
L 254.757587 202.273904 
L 256.62584 217.980856 
L 258.433828 210.12738 
L 260.302081 214.054118 
L 262.170334 214.054118 
L 263.857789 217.980856 
L 265.726043 225.834332 
L 267.53403 217.980856 
L 269.402283 225.834332 
L 271.21027 225.834332 
L 273.078524 229.76107 
L 274.946777 229.76107 
L 276.754764 233.687807 
L 278.623018 229.76107 
L 280.431005 233.687807 
L 282.299258 253.321497 
L 284.167512 269.028449 
L 285.854967 257.248235 
L 287.72322 249.394759 
L 289.531207 237.614545 
L 291.399461 221.907594 
L 293.207448 225.834332 
L 295.075701 225.834332 
L 296.943955 229.76107 
L 298.751942 237.614545 
L 300.620195 229.76107 
L 302.428182 241.541283 
L 304.296436 233.687807 
L 306.164689 233.687807 
L 307.91241 249.394759 
L 309.780664 245.468021 
L 311.588651 257.248235 
L 313.456904 249.394759 
L 315.264892 245.468021 
L 317.133145 237.614545 
L 319.001398 237.614545 
L 320.809386 229.76107 
L 324.485626 221.907594 
L 326.35388 202.273904 
L 328.222133 178.713476 
L 329.909588 166.933262 
L 331.777841 186.566952 
L 333.585828 170.86 
L 335.454082 190.49369 
L 337.262069 194.420428 
L 339.130322 194.420428 
L 340.998576 186.566952 
L 342.806563 182.640214 
L 344.674816 190.49369 
L 346.482804 186.566952 
L 348.351057 194.420428 
L 350.21931 194.420428 
L 351.906765 202.273904 
L 353.775019 190.49369 
L 355.583006 198.347166 
L 357.451259 166.933262 
L 359.259246 166.933262 
L 361.1275 159.079786 
L 362.995753 163.006524 
L 364.80374 163.006524 
L 366.671994 155.153048 
L 370.348235 186.566952 
L 372.216488 190.49369 
L 373.903943 186.566952 
L 375.772196 190.49369 
L 377.580183 178.713476 
L 379.448437 198.347166 
L 381.256424 194.420428 
L 383.124677 206.200642 
L 384.992931 206.200642 
L 386.800918 214.054118 
L 388.669171 217.980856 
L 392.345412 194.420428 
L 394.213665 190.49369 
L 395.961386 198.347166 
L 397.82964 217.980856 
L 399.637627 233.687807 
L 401.50588 241.541283 
L 403.313868 233.687807 
L 405.182121 229.76107 
L 407.050374 253.321497 
L 408.858362 257.248235 
L 414.402856 257.248235 
L 416.271109 210.12738 
L 417.958564 210.12738 
L 419.826817 194.420428 
L 421.634804 182.640214 
L 423.503058 166.933262 
L 425.311045 170.86 
L 427.179299 159.079786 
L 427.179299 159.079786 
" style="fill:none;stroke:#0072b2;stroke-linecap:square;stroke-width:1.5;"/>
   </g>
   <g id="line2d_18">
    <path clip-path="url(#p9367f81a75)" d="M 64.075205 182.640214 
L 65.762659 170.86 
L 67.630913 163.006524 
L 69.4389 166.933262 
L 71.307153 178.713476 
L 73.115141 174.786738 
L 74.983394 174.786738 
L 76.851647 166.933262 
L 78.659635 155.153048 
L 80.527888 166.933262 
L 82.335875 174.786738 
L 84.204129 174.786738 
L 86.072382 159.079786 
L 87.759837 166.933262 
L 89.62809 178.713476 
L 93.304331 155.153048 
L 95.112318 159.079786 
L 96.980572 159.079786 
L 98.848825 163.006524 
L 100.656812 186.566952 
L 102.525066 198.347166 
L 104.333053 182.640214 
L 106.201306 178.713476 
L 108.06956 190.49369 
L 109.757014 198.347166 
L 111.625268 198.347166 
L 113.433255 194.420428 
L 115.301508 198.347166 
L 117.109496 194.420428 
L 118.977749 198.347166 
L 120.846002 194.420428 
L 122.65399 182.640214 
L 126.33023 143.372834 
L 128.198484 135.519358 
L 130.066737 119.812406 
L 131.814458 119.812406 
L 133.682711 108.032193 
L 135.490699 111.95893 
L 139.166939 88.398503 
L 141.035193 88.398503 
L 142.903446 108.032193 
L 144.711433 111.95893 
L 146.579687 127.665882 
L 148.387674 170.86 
L 150.255927 198.347166 
L 152.124181 214.054118 
L 153.811636 206.200642 
L 155.679889 229.76107 
L 157.487876 241.541283 
L 159.35613 257.248235 
L 161.164117 269.028449 
L 163.03237 276.881925 
L 164.900624 253.321497 
L 166.708611 261.174973 
L 168.576864 253.321497 
L 170.384851 225.834332 
L 172.253105 206.200642 
L 174.121358 198.347166 
L 175.808813 190.49369 
L 177.677066 178.713476 
L 179.485054 170.86 
L 181.353307 170.86 
L 183.161294 178.713476 
L 185.029548 170.86 
L 186.897801 182.640214 
L 188.705788 174.786738 
L 192.382029 174.786738 
L 194.250282 166.933262 
L 196.118536 166.933262 
L 197.80599 174.786738 
L 199.674244 159.079786 
L 203.350484 159.079786 
L 205.158472 155.153048 
L 207.026725 163.006524 
L 208.894979 151.22631 
L 210.702966 151.22631 
L 212.571219 147.299572 
L 214.379206 139.446096 
L 216.24746 139.446096 
L 219.863434 147.299572 
L 221.731688 143.372834 
L 223.539675 151.22631 
L 225.407928 155.153048 
L 227.215915 155.153048 
L 229.084169 159.079786 
L 230.952422 151.22631 
L 232.760409 159.079786 
L 234.628663 163.006524 
L 236.43665 182.640214 
L 240.173157 190.49369 
L 241.860612 198.347166 
L 243.728865 202.273904 
L 245.536852 214.054118 
L 249.213093 206.200642 
L 251.081346 198.347166 
L 252.9496 206.200642 
L 254.757587 206.200642 
L 256.62584 217.980856 
L 258.433828 214.054118 
L 262.170334 214.054118 
L 263.857789 202.273904 
L 265.726043 214.054118 
L 269.402283 214.054118 
L 271.21027 221.907594 
L 273.078524 221.907594 
L 276.754764 229.76107 
L 278.623018 225.834332 
L 280.431005 229.76107 
L 282.299258 241.541283 
L 284.167512 261.174973 
L 285.854967 257.248235 
L 287.72322 245.468021 
L 289.531207 241.541283 
L 291.399461 233.687807 
L 293.207448 233.687807 
L 296.943955 241.541283 
L 298.751942 241.541283 
L 300.620195 237.614545 
L 302.428182 241.541283 
L 304.296436 233.687807 
L 306.164689 233.687807 
L 307.91241 249.394759 
L 311.588651 249.394759 
L 315.264892 233.687807 
L 317.133145 229.76107 
L 319.001398 229.76107 
L 320.809386 225.834332 
L 322.677639 225.834332 
L 324.485626 217.980856 
L 326.35388 214.054118 
L 328.222133 182.640214 
L 329.909588 190.49369 
L 333.585828 190.49369 
L 335.454082 210.12738 
L 337.262069 214.054118 
L 339.130322 214.054118 
L 340.998576 206.200642 
L 344.674816 198.347166 
L 348.351057 198.347166 
L 350.21931 186.566952 
L 351.906765 194.420428 
L 353.775019 178.713476 
L 355.583006 174.786738 
L 357.451259 155.153048 
L 359.259246 155.153048 
L 361.1275 143.372834 
L 362.995753 143.372834 
L 364.80374 147.299572 
L 366.671994 147.299572 
L 370.348235 170.86 
L 372.216488 190.49369 
L 373.903943 182.640214 
L 375.772196 194.420428 
L 377.580183 186.566952 
L 379.448437 202.273904 
L 381.256424 190.49369 
L 383.124677 194.420428 
L 384.992931 194.420428 
L 388.669171 210.12738 
L 390.477159 198.347166 
L 392.345412 182.640214 
L 394.213665 178.713476 
L 395.961386 182.640214 
L 397.82964 214.054118 
L 399.637627 229.76107 
L 401.50588 229.76107 
L 403.313868 237.614545 
L 405.182121 210.12738 
L 407.050374 237.614545 
L 408.858362 245.468021 
L 412.534602 237.614545 
L 414.402856 245.468021 
L 416.271109 214.054118 
L 417.958564 214.054118 
L 419.826817 190.49369 
L 423.503058 174.786738 
L 425.311045 170.86 
L 427.179299 182.640214 
L 427.179299 182.640214 
" style="fill:none;stroke:#009e73;stroke-linecap:square;stroke-width:1.5;"/>
   </g>
   <g id="line2d_19">
    <path clip-path="url(#p9367f81a75)" d="M 64.075205 123.739144 
L 65.762659 115.885668 
L 69.4389 108.032193 
L 71.307153 123.739144 
L 74.983394 115.885668 
L 76.851647 115.885668 
L 78.659635 96.251979 
L 80.527888 108.032193 
L 82.335875 111.95893 
L 84.204129 100.178717 
L 86.072382 80.545027 
L 87.759837 84.471765 
L 89.62809 92.325241 
L 91.436077 92.325241 
L 93.304331 84.471765 
L 95.112318 88.398503 
L 96.980572 88.398503 
L 98.848825 96.251979 
L 100.656812 131.59262 
L 102.525066 143.372834 
L 104.333053 139.446096 
L 106.201306 139.446096 
L 108.06956 151.22631 
L 109.757014 151.22631 
L 111.625268 147.299572 
L 113.433255 147.299572 
L 115.301508 151.22631 
L 117.109496 151.22631 
L 120.846002 159.079786 
L 122.65399 139.446096 
L 124.522243 104.105455 
L 126.33023 84.471765 
L 128.198484 76.618289 
L 133.682711 64.838075 
L 135.490699 80.545027 
L 137.358952 60.911337 
L 139.166939 45.204385 
L 141.035193 37.350909 
L 142.903446 53.057861 
L 144.711433 64.838075 
L 146.579687 104.105455 
L 148.387674 151.22631 
L 150.255927 190.49369 
L 152.124181 214.054118 
L 153.811636 217.980856 
L 155.679889 249.394759 
L 157.487876 253.321497 
L 159.35613 280.808663 
L 161.164117 284.735401 
L 163.03237 296.515615 
L 164.900624 272.955187 
L 166.708611 280.808663 
L 168.576864 269.028449 
L 170.384851 229.76107 
L 172.253105 210.12738 
L 174.121358 217.980856 
L 175.808813 229.76107 
L 177.677066 139.446096 
L 179.485054 151.22631 
L 181.353307 147.299572 
L 183.161294 163.006524 
L 185.029548 174.786738 
L 186.897801 182.640214 
L 188.705788 135.519358 
L 190.574042 147.299572 
L 192.382029 155.153048 
L 194.250282 131.59262 
L 196.118536 127.665882 
L 197.80599 111.95893 
L 199.674244 115.885668 
L 201.482231 108.032193 
L 203.350484 111.95893 
L 205.158472 127.665882 
L 207.026725 127.665882 
L 208.894979 139.446096 
L 210.702966 127.665882 
L 212.571219 127.665882 
L 214.379206 131.59262 
L 216.24746 155.153048 
L 218.115713 166.933262 
L 221.731688 174.786738 
L 223.539675 166.933262 
L 227.215915 174.786738 
L 229.084169 159.079786 
L 230.952422 139.446096 
L 232.760409 108.032193 
L 234.628663 108.032193 
L 236.43665 127.665882 
L 238.304903 127.665882 
L 240.173157 135.519358 
L 241.860612 131.59262 
L 243.728865 143.372834 
L 245.536852 186.566952 
L 247.405106 174.786738 
L 249.213093 159.079786 
L 252.9496 182.640214 
L 254.757587 225.834332 
L 256.62584 245.468021 
L 258.433828 233.687807 
L 262.170334 233.687807 
L 263.857789 241.541283 
L 265.726043 253.321497 
L 267.53403 233.687807 
L 269.402283 237.614545 
L 271.21027 245.468021 
L 273.078524 261.174973 
L 274.946777 265.101711 
L 276.754764 257.248235 
L 278.623018 253.321497 
L 280.431005 265.101711 
L 282.299258 288.662139 
L 284.167512 304.369091 
L 285.854967 292.588877 
L 287.72322 276.881925 
L 289.531207 272.955187 
L 291.399461 257.248235 
L 293.207448 245.468021 
L 295.075701 245.468021 
L 296.943955 265.101711 
L 298.751942 288.662139 
L 300.620195 280.808663 
L 302.428182 261.174973 
L 304.296436 249.394759 
L 306.164689 261.174973 
L 307.91241 284.735401 
L 309.780664 284.735401 
L 311.588651 292.588877 
L 313.456904 288.662139 
L 317.133145 272.955187 
L 319.001398 257.248235 
L 320.809386 245.468021 
L 322.677639 225.834332 
L 324.485626 225.834332 
L 326.35388 190.49369 
L 328.222133 131.59262 
L 329.909588 127.665882 
L 331.777841 163.006524 
L 333.585828 143.372834 
L 335.454082 166.933262 
L 337.262069 182.640214 
L 339.130322 178.713476 
L 340.998576 166.933262 
L 342.806563 174.786738 
L 344.674816 178.713476 
L 346.482804 174.786738 
L 348.351057 198.347166 
L 350.21931 217.980856 
L 351.906765 198.347166 
L 353.775019 194.420428 
L 355.583006 202.273904 
L 357.451259 163.006524 
L 359.259246 155.153048 
L 361.1275 155.153048 
L 362.995753 159.079786 
L 364.80374 155.153048 
L 366.671994 155.153048 
L 368.479981 178.713476 
L 370.348235 198.347166 
L 372.216488 206.200642 
L 373.903943 202.273904 
L 375.772196 194.420428 
L 377.580183 182.640214 
L 379.448437 210.12738 
L 381.256424 221.907594 
L 383.124677 221.907594 
L 386.800918 237.614545 
L 388.669171 237.614545 
L 392.345412 214.054118 
L 394.213665 202.273904 
L 395.961386 210.12738 
L 399.637627 272.955187 
L 401.50588 280.808663 
L 403.313868 257.248235 
L 405.182121 272.955187 
L 407.050374 269.028449 
L 408.858362 269.028449 
L 410.726615 280.808663 
L 412.534602 276.881925 
L 414.402856 269.028449 
L 416.271109 229.76107 
L 417.958564 249.394759 
L 419.826817 198.347166 
L 421.634804 166.933262 
L 423.503058 151.22631 
L 425.311045 147.299572 
L 427.179299 131.59262 
L 427.179299 131.59262 
" style="fill:none;stroke:#d55e00;stroke-linecap:square;stroke-width:1.5;"/>
   </g>
   <g id="line2d_20">
    <path clip-path="url(#p9367f81a75)" d="M 64.075205 166.933262 
L 65.762659 163.006524 
L 67.630913 159.079786 
L 69.4389 163.006524 
L 71.307153 155.153048 
L 73.115141 159.079786 
L 78.659635 159.079786 
L 80.527888 147.299572 
L 82.335875 151.22631 
L 84.204129 166.933262 
L 86.072382 159.079786 
L 89.62809 159.079786 
L 91.436077 151.22631 
L 93.304331 155.153048 
L 95.112318 151.22631 
L 96.980572 151.22631 
L 98.848825 155.153048 
L 100.656812 147.299572 
L 102.525066 170.86 
L 106.201306 163.006524 
L 108.06956 170.86 
L 109.757014 163.006524 
L 111.625268 166.933262 
L 113.433255 174.786738 
L 117.109496 166.933262 
L 118.977749 182.640214 
L 120.846002 182.640214 
L 122.65399 178.713476 
L 124.522243 155.153048 
L 126.33023 147.299572 
L 128.198484 135.519358 
L 130.066737 119.812406 
L 131.814458 127.665882 
L 133.682711 104.105455 
L 135.490699 111.95893 
L 137.358952 96.251979 
L 139.166939 88.398503 
L 141.035193 88.398503 
L 142.903446 76.618289 
L 144.711433 92.325241 
L 146.579687 104.105455 
L 148.387674 135.519358 
L 150.255927 151.22631 
L 152.124181 190.49369 
L 153.811636 182.640214 
L 155.679889 202.273904 
L 157.487876 198.347166 
L 159.35613 214.054118 
L 161.164117 225.834332 
L 163.03237 249.394759 
L 166.708611 233.687807 
L 168.576864 233.687807 
L 170.384851 210.12738 
L 174.121358 194.420428 
L 175.808813 206.200642 
L 179.485054 174.786738 
L 181.353307 186.566952 
L 183.161294 190.49369 
L 185.029548 174.786738 
L 188.705788 182.640214 
L 190.574042 166.933262 
L 192.382029 174.786738 
L 194.250282 163.006524 
L 196.118536 166.933262 
L 197.80599 159.079786 
L 199.674244 135.519358 
L 203.350484 127.665882 
L 205.158472 127.665882 
L 207.026725 163.006524 
L 208.894979 155.153048 
L 210.702966 100.178717 
L 216.24746 100.178717 
L 218.115713 111.95893 
L 219.863434 108.032193 
L 221.731688 96.251979 
L 225.407928 104.105455 
L 227.215915 100.178717 
L 229.084169 104.105455 
L 230.952422 111.95893 
L 232.760409 111.95893 
L 234.628663 135.519358 
L 236.43665 143.372834 
L 238.304903 143.372834 
L 240.173157 151.22631 
L 241.860612 166.933262 
L 243.728865 174.786738 
L 245.536852 198.347166 
L 251.081346 198.347166 
L 252.9496 202.273904 
L 256.62584 217.980856 
L 258.433828 221.907594 
L 262.170334 221.907594 
L 263.857789 229.76107 
L 265.726043 233.687807 
L 267.53403 225.834332 
L 271.21027 233.687807 
L 273.078524 245.468021 
L 274.946777 249.394759 
L 276.754764 249.394759 
L 278.623018 237.614545 
L 280.431005 233.687807 
L 282.299258 245.468021 
L 284.167512 265.101711 
L 285.854967 241.541283 
L 289.531207 249.394759 
L 291.399461 237.614545 
L 293.207448 237.614545 
L 295.075701 229.76107 
L 298.751942 237.614545 
L 300.620195 233.687807 
L 302.428182 241.541283 
L 304.296436 241.541283 
L 306.164689 229.76107 
L 307.91241 253.321497 
L 309.780664 253.321497 
L 311.588651 261.174973 
L 315.264892 253.321497 
L 317.133145 253.321497 
L 319.001398 249.394759 
L 320.809386 241.541283 
L 322.677639 249.394759 
L 324.485626 241.541283 
L 326.35388 225.834332 
L 328.222133 206.200642 
L 329.909588 182.640214 
L 331.777841 190.49369 
L 333.585828 166.933262 
L 337.262069 198.347166 
L 339.130322 198.347166 
L 340.998576 190.49369 
L 342.806563 194.420428 
L 344.674816 202.273904 
L 346.482804 202.273904 
L 348.351057 206.200642 
L 350.21931 198.347166 
L 351.906765 225.834332 
L 353.775019 210.12738 
L 355.583006 221.907594 
L 359.259246 190.49369 
L 361.1275 170.86 
L 362.995753 182.640214 
L 364.80374 186.566952 
L 366.671994 178.713476 
L 368.479981 182.640214 
L 370.348235 198.347166 
L 372.216488 210.12738 
L 373.903943 202.273904 
L 377.580183 202.273904 
L 379.448437 210.12738 
L 381.256424 214.054118 
L 383.124677 233.687807 
L 384.992931 225.834332 
L 386.800918 237.614545 
L 390.477159 237.614545 
L 392.345412 225.834332 
L 394.213665 229.76107 
L 395.961386 237.614545 
L 397.82964 241.541283 
L 399.637627 241.541283 
L 401.50588 257.248235 
L 403.313868 261.174973 
L 405.182121 214.054118 
L 407.050374 265.101711 
L 408.858362 284.735401 
L 410.726615 269.028449 
L 412.534602 257.248235 
L 414.402856 257.248235 
L 416.271109 217.980856 
L 417.958564 206.200642 
L 419.826817 221.907594 
L 421.634804 206.200642 
L 423.503058 198.347166 
L 425.311045 194.420428 
L 427.179299 210.12738 
L 427.179299 210.12738 
" style="fill:none;stroke:#cc79a7;stroke-linecap:square;stroke-width:1.5;"/>
   </g>
   <g id="line2d_21">
    <path clip-path="url(#p9367f81a75)" d="M 64.075205 178.713476 
L 65.762659 174.786738 
L 67.630913 174.786738 
L 69.4389 190.49369 
L 71.307153 186.566952 
L 74.983394 170.86 
L 76.851647 170.86 
L 78.659635 143.372834 
L 80.527888 151.22631 
L 82.335875 155.153048 
L 84.204129 163.006524 
L 87.759837 163.006524 
L 89.62809 170.86 
L 91.436077 159.079786 
L 93.304331 163.006524 
L 96.980572 163.006524 
L 98.848825 178.713476 
L 100.656812 210.12738 
L 102.525066 206.200642 
L 104.333053 186.566952 
L 106.201306 190.49369 
L 108.06956 178.713476 
L 109.757014 170.86 
L 113.433255 163.006524 
L 115.301508 166.933262 
L 117.109496 166.933262 
L 118.977749 163.006524 
L 120.846002 170.86 
L 122.65399 143.372834 
L 124.522243 143.372834 
L 126.33023 115.885668 
L 128.198484 123.739144 
L 130.066737 127.665882 
L 131.814458 127.665882 
L 133.682711 115.885668 
L 135.490699 143.372834 
L 137.358952 119.812406 
L 139.166939 111.95893 
L 141.035193 111.95893 
L 142.903446 115.885668 
L 144.711433 127.665882 
L 146.579687 143.372834 
L 148.387674 190.49369 
L 150.255927 202.273904 
L 152.124181 206.200642 
L 153.811636 202.273904 
L 155.679889 233.687807 
L 157.487876 217.980856 
L 159.35613 249.394759 
L 161.164117 245.468021 
L 163.03237 272.955187 
L 164.900624 245.468021 
L 166.708611 261.174973 
L 168.576864 249.394759 
L 170.384851 233.687807 
L 172.253105 210.12738 
L 174.121358 217.980856 
L 175.808813 229.76107 
L 177.677066 198.347166 
L 179.485054 206.200642 
L 181.353307 198.347166 
L 183.161294 210.12738 
L 185.029548 198.347166 
L 186.897801 206.200642 
L 188.705788 198.347166 
L 190.574042 194.420428 
L 192.382029 186.566952 
L 194.250282 174.786738 
L 196.118536 166.933262 
L 197.80599 155.153048 
L 199.674244 151.22631 
L 201.482231 139.446096 
L 203.350484 147.299572 
L 205.158472 151.22631 
L 207.026725 143.372834 
L 208.894979 147.299572 
L 210.702966 135.519358 
L 212.571219 135.519358 
L 214.379206 139.446096 
L 216.24746 159.079786 
L 218.115713 151.22631 
L 219.863434 143.372834 
L 221.731688 155.153048 
L 225.407928 163.006524 
L 227.215915 170.86 
L 229.084169 170.86 
L 230.952422 155.153048 
L 234.628663 163.006524 
L 236.43665 170.86 
L 238.304903 163.006524 
L 240.173157 170.86 
L 241.860612 174.786738 
L 243.728865 170.86 
L 245.536852 202.273904 
L 247.405106 186.566952 
L 249.213093 166.933262 
L 251.081346 166.933262 
L 252.9496 186.566952 
L 254.757587 186.566952 
L 256.62584 198.347166 
L 258.433828 182.640214 
L 260.302081 198.347166 
L 262.170334 202.273904 
L 263.857789 206.200642 
L 265.726043 217.980856 
L 267.53403 202.273904 
L 269.402283 217.980856 
L 271.21027 210.12738 
L 273.078524 217.980856 
L 274.946777 214.054118 
L 276.754764 214.054118 
L 278.623018 217.980856 
L 280.431005 225.834332 
L 282.299258 241.541283 
L 284.167512 265.101711 
L 285.854967 253.321497 
L 287.72322 233.687807 
L 289.531207 206.200642 
L 291.399461 182.640214 
L 293.207448 202.273904 
L 295.075701 194.420428 
L 296.943955 202.273904 
L 298.751942 214.054118 
L 300.620195 198.347166 
L 302.428182 237.614545 
L 304.296436 237.614545 
L 306.164689 229.76107 
L 307.91241 249.394759 
L 309.780664 241.541283 
L 311.588651 257.248235 
L 317.133145 233.687807 
L 319.001398 233.687807 
L 320.809386 221.907594 
L 324.485626 214.054118 
L 326.35388 182.640214 
L 328.222133 178.713476 
L 329.909588 163.006524 
L 331.777841 186.566952 
L 333.585828 166.933262 
L 335.454082 194.420428 
L 337.262069 178.713476 
L 339.130322 178.713476 
L 340.998576 170.86 
L 342.806563 170.86 
L 344.674816 186.566952 
L 346.482804 178.713476 
L 348.351057 186.566952 
L 350.21931 186.566952 
L 351.906765 198.347166 
L 353.775019 178.713476 
L 355.583006 194.420428 
L 357.451259 147.299572 
L 359.259246 163.006524 
L 361.1275 159.079786 
L 362.995753 163.006524 
L 364.80374 159.079786 
L 366.671994 143.372834 
L 368.479981 159.079786 
L 370.348235 178.713476 
L 373.903943 178.713476 
L 375.772196 190.49369 
L 377.580183 163.006524 
L 379.448437 194.420428 
L 381.256424 186.566952 
L 383.124677 202.273904 
L 386.800918 210.12738 
L 388.669171 210.12738 
L 392.345412 186.566952 
L 395.961386 178.713476 
L 397.82964 194.420428 
L 399.637627 214.054118 
L 401.50588 225.834332 
L 403.313868 214.054118 
L 405.182121 245.468021 
L 407.050374 249.394759 
L 408.858362 261.174973 
L 410.726615 265.101711 
L 412.534602 272.955187 
L 414.402856 272.955187 
L 416.271109 182.640214 
L 417.958564 182.640214 
L 419.826817 166.933262 
L 421.634804 163.006524 
L 423.503058 151.22631 
L 425.311045 163.006524 
L 427.179299 123.739144 
L 427.179299 123.739144 
" style="fill:none;stroke:#f0e442;stroke-linecap:square;stroke-width:1.5;"/>
   </g>
   <g id="patch_3">
    <path d="M 45.92 317.72 
L 45.92 24 
" style="fill:none;stroke:#000000;stroke-linecap:square;stroke-linejoin:miter;stroke-width:0.8;"/>
   </g>
   <g id="patch_4">
    <path d="M 445.334503 317.72 
L 445.334503 24 
" style="fill:none;stroke:#000000;stroke-linecap:square;stroke-linejoin:miter;stroke-width:0.8;"/>
   </g>
   <g id="patch_5">
    <path d="M 45.92 317.72 
L 445.334503 317.72 
" style="fill:none;stroke:#000000;stroke-linecap:square;stroke-linejoin:miter;stroke-width:0.8;"/>
   </g>
   <g id="patch_6">
    <path d="M 45.92 24 
L 445.334503 24 
" style="fill:none;stroke:#000000;stroke-linecap:square;stroke-linejoin:miter;stroke-width:0.8;"/>
   </g>
   <g id="text_18">
    <!--  Graphique 1. Inflation  - (variation inter-annuelle - %) -->
    <g transform="translate(107.904048 18)scale(0.09 -0.09)">
     <defs>
      <path id="DejaVuSans-Bold-32"/>
      <path d="M 74.703125 5.421875 
Q 67.671875 2 60.109375 0.28125 
Q 52.546875 -1.421875 44.484375 -1.421875 
Q 26.265625 -1.421875 15.625 8.765625 
Q 4.984375 18.953125 4.984375 36.375 
Q 4.984375 54 15.8125 64.109375 
Q 26.65625 74.21875 45.515625 74.21875 
Q 52.78125 74.21875 59.4375 72.84375 
Q 66.109375 71.484375 72.015625 68.796875 
L 72.015625 53.71875 
Q 65.921875 57.171875 59.890625 58.875 
Q 53.859375 60.59375 47.796875 60.59375 
Q 36.578125 60.59375 30.5 54.3125 
Q 24.421875 48.046875 24.421875 36.375 
Q 24.421875 24.8125 30.28125 18.5 
Q 36.140625 12.203125 46.921875 12.203125 
Q 49.859375 12.203125 52.375 12.5625 
Q 54.890625 12.9375 56.890625 13.71875 
L 56.890625 27.875 
L 45.40625 27.875 
L 45.40625 40.484375 
L 74.703125 40.484375 
z
" id="DejaVuSans-Bold-71"/>
      <path d="M 49.03125 39.796875 
Q 46.734375 40.875 44.453125 41.375 
Q 42.1875 41.890625 39.890625 41.890625 
Q 33.15625 41.890625 29.515625 37.5625 
Q 25.875 33.25 25.875 25.203125 
L 25.875 0 
L 8.40625 0 
L 8.40625 54.6875 
L 25.875 54.6875 
L 25.875 45.703125 
Q 29.25 51.078125 33.609375 53.53125 
Q 37.984375 56 44.09375 56 
Q 44.96875 56 45.984375 55.921875 
Q 47.015625 55.859375 48.96875 55.609375 
z
" id="DejaVuSans-Bold-114"/>
      <path d="M 32.90625 24.609375 
Q 27.4375 24.609375 24.671875 22.75 
Q 21.921875 20.90625 21.921875 17.28125 
Q 21.921875 13.96875 24.140625 12.078125 
Q 26.375 10.203125 30.328125 10.203125 
Q 35.25 10.203125 38.625 13.734375 
Q 42 17.28125 42 22.609375 
L 42 24.609375 
z
M 59.625 31.203125 
L 59.625 0 
L 42 0 
L 42 8.109375 
Q 38.484375 3.125 34.078125 0.84375 
Q 29.6875 -1.421875 23.390625 -1.421875 
Q 14.890625 -1.421875 9.59375 3.53125 
Q 4.296875 8.5 4.296875 16.40625 
Q 4.296875 26.03125 10.90625 30.515625 
Q 17.53125 35.015625 31.6875 35.015625 
L 42 35.015625 
L 42 36.375 
Q 42 40.53125 38.71875 42.453125 
Q 35.453125 44.390625 28.515625 44.390625 
Q 22.90625 44.390625 18.0625 43.265625 
Q 13.234375 42.140625 9.078125 39.890625 
L 9.078125 53.21875 
Q 14.703125 54.59375 20.359375 55.296875 
Q 26.03125 56 31.6875 56 
Q 46.484375 56 53.046875 50.171875 
Q 59.625 44.34375 59.625 31.203125 
z
" id="DejaVuSans-Bold-97"/>
      <path d="M 25.875 7.90625 
L 25.875 -20.796875 
L 8.40625 -20.796875 
L 8.40625 54.6875 
L 25.875 54.6875 
L 25.875 46.6875 
Q 29.5 51.46875 33.890625 53.734375 
Q 38.28125 56 44 56 
Q 54.109375 56 60.59375 47.96875 
Q 67.09375 39.9375 67.09375 27.296875 
Q 67.09375 14.65625 60.59375 6.609375 
Q 54.109375 -1.421875 44 -1.421875 
Q 38.28125 -1.421875 33.890625 0.84375 
Q 29.5 3.125 25.875 7.90625 
z
M 37.5 43.3125 
Q 31.890625 43.3125 28.875 39.1875 
Q 25.875 35.0625 25.875 27.296875 
Q 25.875 19.53125 28.875 15.40625 
Q 31.890625 11.28125 37.5 11.28125 
Q 43.109375 11.28125 46.0625 15.375 
Q 49.03125 19.484375 49.03125 27.296875 
Q 49.03125 35.109375 46.0625 39.203125 
Q 43.109375 43.3125 37.5 43.3125 
z
" id="DejaVuSans-Bold-112"/>
      <path d="M 63.375 33.296875 
L 63.375 0 
L 45.796875 0 
L 45.796875 5.421875 
L 45.796875 25.390625 
Q 45.796875 32.5625 45.484375 35.25 
Q 45.171875 37.9375 44.390625 39.203125 
Q 43.359375 40.921875 41.59375 41.875 
Q 39.84375 42.828125 37.59375 42.828125 
Q 32.125 42.828125 29 38.59375 
Q 25.875 34.375 25.875 26.90625 
L 25.875 0 
L 8.40625 0 
L 8.40625 75.984375 
L 25.875 75.984375 
L 25.875 46.6875 
Q 29.828125 51.46875 34.265625 53.734375 
Q 38.71875 56 44.09375 56 
Q 53.5625 56 58.46875 50.1875 
Q 63.375 44.390625 63.375 33.296875 
z
" id="DejaVuSans-Bold-104"/>
      <path d="M 8.40625 54.6875 
L 25.875 54.6875 
L 25.875 0 
L 8.40625 0 
z
M 8.40625 75.984375 
L 25.875 75.984375 
L 25.875 61.71875 
L 8.40625 61.71875 
z
" id="DejaVuSans-Bold-105"/>
      <path d="M 34.078125 43.3125 
Q 28.515625 43.3125 25.5625 39.203125 
Q 22.609375 35.109375 22.609375 27.296875 
Q 22.609375 19.484375 25.5625 15.375 
Q 28.515625 11.28125 34.078125 11.28125 
Q 39.703125 11.28125 42.65625 15.375 
Q 45.609375 19.484375 45.609375 27.296875 
Q 45.609375 35.109375 42.65625 39.203125 
Q 39.703125 43.3125 34.078125 43.3125 
z
M 45.609375 7.90625 
Q 42 3.078125 37.640625 0.828125 
Q 33.296875 -1.421875 27.59375 -1.421875 
Q 17.484375 -1.421875 10.984375 6.609375 
Q 4.5 14.65625 4.5 27.296875 
Q 4.5 39.9375 10.984375 47.921875 
Q 17.484375 55.90625 27.59375 55.90625 
Q 33.296875 55.90625 37.640625 53.65625 
Q 42 51.421875 45.609375 46.578125 
L 45.609375 54.6875 
L 63.1875 54.6875 
L 63.1875 -20.796875 
L 45.609375 -20.796875 
z
" id="DejaVuSans-Bold-113"/>
      <path d="M 7.8125 21.296875 
L 7.8125 54.6875 
L 25.390625 54.6875 
L 25.390625 49.21875 
Q 25.390625 44.78125 25.34375 38.0625 
Q 25.296875 31.34375 25.296875 29.109375 
Q 25.296875 22.515625 25.640625 19.609375 
Q 25.984375 16.703125 26.8125 15.375 
Q 27.875 13.671875 29.609375 12.734375 
Q 31.34375 11.8125 33.59375 11.8125 
Q 39.0625 11.8125 42.1875 16.015625 
Q 45.3125 20.21875 45.3125 27.6875 
L 45.3125 54.6875 
L 62.796875 54.6875 
L 62.796875 0 
L 45.3125 0 
L 45.3125 7.90625 
Q 41.359375 3.125 36.9375 0.84375 
Q 32.515625 -1.421875 27.203125 -1.421875 
Q 17.71875 -1.421875 12.765625 4.390625 
Q 7.8125 10.203125 7.8125 21.296875 
z
" id="DejaVuSans-Bold-117"/>
      <path d="M 62.984375 27.484375 
L 62.984375 22.515625 
L 22.125 22.515625 
Q 22.75 16.359375 26.5625 13.28125 
Q 30.375 10.203125 37.203125 10.203125 
Q 42.71875 10.203125 48.5 11.84375 
Q 54.296875 13.484375 60.40625 16.796875 
L 60.40625 3.328125 
Q 54.203125 0.984375 48 -0.21875 
Q 41.796875 -1.421875 35.59375 -1.421875 
Q 20.75 -1.421875 12.515625 6.125 
Q 4.296875 13.671875 4.296875 27.296875 
Q 4.296875 40.671875 12.375 48.328125 
Q 20.453125 56 34.625 56 
Q 47.515625 56 55.25 48.234375 
Q 62.984375 40.484375 62.984375 27.484375 
z
M 45.015625 33.296875 
Q 45.015625 38.28125 42.109375 41.328125 
Q 39.203125 44.390625 34.515625 44.390625 
Q 29.4375 44.390625 26.265625 41.53125 
Q 23.09375 38.671875 22.3125 33.296875 
z
" id="DejaVuSans-Bold-101"/>
      <path d="M 11.71875 12.984375 
L 28.328125 12.984375 
L 28.328125 60.109375 
L 11.28125 56.59375 
L 11.28125 69.390625 
L 28.21875 72.90625 
L 46.09375 72.90625 
L 46.09375 12.984375 
L 62.703125 12.984375 
L 62.703125 0 
L 11.71875 0 
z
" id="DejaVuSans-Bold-49"/>
      <path d="M 10.203125 18.890625 
L 27.78125 18.890625 
L 27.78125 0 
L 10.203125 0 
z
" id="DejaVuSans-Bold-46"/>
      <path d="M 9.1875 72.90625 
L 27.984375 72.90625 
L 27.984375 0 
L 9.1875 0 
z
" id="DejaVuSans-Bold-73"/>
      <path d="M 63.375 33.296875 
L 63.375 0 
L 45.796875 0 
L 45.796875 5.421875 
L 45.796875 25.484375 
Q 45.796875 32.5625 45.484375 35.25 
Q 45.171875 37.9375 44.390625 39.203125 
Q 43.359375 40.921875 41.59375 41.875 
Q 39.84375 42.828125 37.59375 42.828125 
Q 32.125 42.828125 29 38.59375 
Q 25.875 34.375 25.875 26.90625 
L 25.875 0 
L 8.40625 0 
L 8.40625 54.6875 
L 25.875 54.6875 
L 25.875 46.6875 
Q 29.828125 51.46875 34.265625 53.734375 
Q 38.71875 56 44.09375 56 
Q 53.5625 56 58.46875 50.1875 
Q 63.375 44.390625 63.375 33.296875 
z
" id="DejaVuSans-Bold-110"/>
      <path d="M 44.390625 75.984375 
L 44.390625 64.5 
L 34.71875 64.5 
Q 31 64.5 29.53125 63.15625 
Q 28.078125 61.8125 28.078125 58.5 
L 28.078125 54.6875 
L 43.015625 54.6875 
L 43.015625 42.1875 
L 28.078125 42.1875 
L 28.078125 0 
L 10.59375 0 
L 10.59375 42.1875 
L 1.90625 42.1875 
L 1.90625 54.6875 
L 10.59375 54.6875 
L 10.59375 58.5 
Q 10.59375 67.4375 15.578125 71.703125 
Q 20.5625 75.984375 31 75.984375 
z
" id="DejaVuSans-Bold-102"/>
      <path d="M 8.40625 75.984375 
L 25.875 75.984375 
L 25.875 0 
L 8.40625 0 
z
" id="DejaVuSans-Bold-108"/>
      <path d="M 27.484375 70.21875 
L 27.484375 54.6875 
L 45.515625 54.6875 
L 45.515625 42.1875 
L 27.484375 42.1875 
L 27.484375 19 
Q 27.484375 15.1875 29 13.84375 
Q 30.515625 12.5 35.015625 12.5 
L 44 12.5 
L 44 0 
L 29 0 
Q 18.65625 0 14.328125 4.3125 
Q 10.015625 8.640625 10.015625 19 
L 10.015625 42.1875 
L 1.3125 42.1875 
L 1.3125 54.6875 
L 10.015625 54.6875 
L 10.015625 70.21875 
z
" id="DejaVuSans-Bold-116"/>
      <path d="M 34.421875 43.5 
Q 28.609375 43.5 25.5625 39.328125 
Q 22.515625 35.15625 22.515625 27.296875 
Q 22.515625 19.4375 25.5625 15.25 
Q 28.609375 11.078125 34.421875 11.078125 
Q 40.140625 11.078125 43.15625 15.25 
Q 46.1875 19.4375 46.1875 27.296875 
Q 46.1875 35.15625 43.15625 39.328125 
Q 40.140625 43.5 34.421875 43.5 
z
M 34.421875 56 
Q 48.53125 56 56.46875 48.375 
Q 64.40625 40.765625 64.40625 27.296875 
Q 64.40625 13.8125 56.46875 6.1875 
Q 48.53125 -1.421875 34.421875 -1.421875 
Q 20.265625 -1.421875 12.28125 6.1875 
Q 4.296875 13.8125 4.296875 27.296875 
Q 4.296875 40.765625 12.28125 48.375 
Q 20.265625 56 34.421875 56 
z
" id="DejaVuSans-Bold-111"/>
      <path d="M 5.421875 35.890625 
L 36.078125 35.890625 
L 36.078125 21.6875 
L 5.421875 21.6875 
z
" id="DejaVuSans-Bold-45"/>
      <path d="M 1.515625 54.6875 
L 19 54.6875 
L 32.625 16.890625 
L 46.1875 54.6875 
L 63.71875 54.6875 
L 42.1875 0 
L 23 0 
z
" id="DejaVuSans-Bold-118"/>
     </defs>
     <use xlink:href="#DejaVuSans-Bold-32"/>
     <use x="34.814453" xlink:href="#DejaVuSans-Bold-71"/>
     <use x="116.894531" xlink:href="#DejaVuSans-Bold-114"/>
     <use x="166.210938" xlink:href="#DejaVuSans-Bold-97"/>
     <use x="233.691406" xlink:href="#DejaVuSans-Bold-112"/>
     <use x="305.273438" xlink:href="#DejaVuSans-Bold-104"/>
     <use x="376.464844" xlink:href="#DejaVuSans-Bold-105"/>
     <use x="410.742188" xlink:href="#DejaVuSans-Bold-113"/>
     <use x="482.324219" xlink:href="#DejaVuSans-Bold-117"/>
     <use x="553.515625" xlink:href="#DejaVuSans-Bold-101"/>
     <use x="621.337891" xlink:href="#DejaVuSans-Bold-32"/>
     <use x="656.152344" xlink:href="#DejaVuSans-Bold-49"/>
     <use x="725.732422" xlink:href="#DejaVuSans-Bold-46"/>
     <use x="763.720703" xlink:href="#DejaVuSans-Bold-32"/>
     <use x="798.535156" xlink:href="#DejaVuSans-Bold-73"/>
     <use x="835.742188" xlink:href="#DejaVuSans-Bold-110"/>
     <use x="906.933594" xlink:href="#DejaVuSans-Bold-102"/>
     <use x="950.439453" xlink:href="#DejaVuSans-Bold-108"/>
     <use x="984.716797" xlink:href="#DejaVuSans-Bold-97"/>
     <use x="1052.197266" xlink:href="#DejaVuSans-Bold-116"/>
     <use x="1100" xlink:href="#DejaVuSans-Bold-105"/>
     <use x="1134.277344" xlink:href="#DejaVuSans-Bold-111"/>
     <use x="1202.978516" xlink:href="#DejaVuSans-Bold-110"/>
     <use x="1274.169922" xlink:href="#DejaVuSans-Bold-32"/>
     <use x="1308.984375" xlink:href="#DejaVuSans-Bold-32"/>
     <use x="1343.798828" xlink:href="#DejaVuSans-Bold-45"/>
     <use x="1385.302734" xlink:href="#DejaVuSans-Bold-32"/>
     <use x="1420.117188" xlink:href="#DejaVuSans-Bold-40"/>
     <use x="1465.820312" xlink:href="#DejaVuSans-Bold-118"/>
     <use x="1531.005859" xlink:href="#DejaVuSans-Bold-97"/>
     <use x="1598.486328" xlink:href="#DejaVuSans-Bold-114"/>
     <use x="1647.802734" xlink:href="#DejaVuSans-Bold-105"/>
     <use x="1682.080078" xlink:href="#DejaVuSans-Bold-97"/>
     <use x="1749.560547" xlink:href="#DejaVuSans-Bold-116"/>
     <use x="1797.363281" xlink:href="#DejaVuSans-Bold-105"/>
     <use x="1831.640625" xlink:href="#DejaVuSans-Bold-111"/>
     <use x="1900.341797" xlink:href="#DejaVuSans-Bold-110"/>
     <use x="1971.533203" xlink:href="#DejaVuSans-Bold-32"/>
     <use x="2006.347656" xlink:href="#DejaVuSans-Bold-105"/>
     <use x="2040.625" xlink:href="#DejaVuSans-Bold-110"/>
     <use x="2111.816406" xlink:href="#DejaVuSans-Bold-116"/>
     <use x="2159.619141" xlink:href="#DejaVuSans-Bold-101"/>
     <use x="2227.441406" xlink:href="#DejaVuSans-Bold-114"/>
     <use x="2276.757812" xlink:href="#DejaVuSans-Bold-45"/>
     <use x="2318.261719" xlink:href="#DejaVuSans-Bold-97"/>
     <use x="2385.742188" xlink:href="#DejaVuSans-Bold-110"/>
     <use x="2456.933594" xlink:href="#DejaVuSans-Bold-110"/>
     <use x="2528.125" xlink:href="#DejaVuSans-Bold-117"/>
     <use x="2599.316406" xlink:href="#DejaVuSans-Bold-101"/>
     <use x="2667.138672" xlink:href="#DejaVuSans-Bold-108"/>
     <use x="2701.416016" xlink:href="#DejaVuSans-Bold-108"/>
     <use x="2735.693359" xlink:href="#DejaVuSans-Bold-101"/>
     <use x="2803.515625" xlink:href="#DejaVuSans-Bold-32"/>
     <use x="2838.330078" xlink:href="#DejaVuSans-Bold-45"/>
     <use x="2879.833984" xlink:href="#DejaVuSans-Bold-32"/>
     <use x="2914.648438" xlink:href="#DejaVuSans-Bold-37"/>
     <use x="3014.84375" xlink:href="#DejaVuSans-Bold-41"/>
    </g>
   </g>
   <g id="legend_1">
    <g id="patch_7">
     <path d="M 312.539427 105.390625 
L 423.723802 105.390625 
Q 425.723802 105.390625 425.723802 103.390625 
L 425.723802 31 
Q 425.723802 29 423.723802 29 
L 312.539427 29 
Q 310.539427 29 310.539427 31 
L 310.539427 103.390625 
Q 310.539427 105.390625 312.539427 105.390625 
z
" style="fill:#ffffff;opacity:0.8;stroke:#cccccc;stroke-linejoin:miter;"/>
    </g>
    <g id="line2d_22">
     <path d="M 314.539427 37.098437 
L 334.539427 37.098437 
" style="fill:none;stroke:#0072b2;stroke-linecap:square;stroke-width:1.5;"/>
    </g>
    <g id="line2d_23"/>
    <g id="text_19">
     <!-- IPC - Zone euro -->
     <g transform="translate(342.539427 40.598437)scale(0.1 -0.1)">
      <defs>
       <path d="M 9.8125 72.90625 
L 19.671875 72.90625 
L 19.671875 0 
L 9.8125 0 
z
" id="DejaVuSans-73"/>
       <path d="M 19.671875 64.796875 
L 19.671875 37.40625 
L 32.078125 37.40625 
Q 38.96875 37.40625 42.71875 40.96875 
Q 46.484375 44.53125 46.484375 51.125 
Q 46.484375 57.671875 42.71875 61.234375 
Q 38.96875 64.796875 32.078125 64.796875 
z
M 9.8125 72.90625 
L 32.078125 72.90625 
Q 44.34375 72.90625 50.609375 67.359375 
Q 56.890625 61.8125 56.890625 51.125 
Q 56.890625 40.328125 50.609375 34.8125 
Q 44.34375 29.296875 32.078125 29.296875 
L 19.671875 29.296875 
L 19.671875 0 
L 9.8125 0 
z
" id="DejaVuSans-80"/>
       <path d="M 64.40625 67.28125 
L 64.40625 56.890625 
Q 59.421875 61.53125 53.78125 63.8125 
Q 48.140625 66.109375 41.796875 66.109375 
Q 29.296875 66.109375 22.65625 58.46875 
Q 16.015625 50.828125 16.015625 36.375 
Q 16.015625 21.96875 22.65625 14.328125 
Q 29.296875 6.6875 41.796875 6.6875 
Q 48.140625 6.6875 53.78125 8.984375 
Q 59.421875 11.28125 64.40625 15.921875 
L 64.40625 5.609375 
Q 59.234375 2.09375 53.4375 0.328125 
Q 47.65625 -1.421875 41.21875 -1.421875 
Q 24.65625 -1.421875 15.125 8.703125 
Q 5.609375 18.84375 5.609375 36.375 
Q 5.609375 53.953125 15.125 64.078125 
Q 24.65625 74.21875 41.21875 74.21875 
Q 47.75 74.21875 53.53125 72.484375 
Q 59.328125 70.75 64.40625 67.28125 
z
" id="DejaVuSans-67"/>
       <path id="DejaVuSans-32"/>
       <path d="M 4.890625 31.390625 
L 31.203125 31.390625 
L 31.203125 23.390625 
L 4.890625 23.390625 
z
" id="DejaVuSans-45"/>
       <path d="M 5.609375 72.90625 
L 62.890625 72.90625 
L 62.890625 65.375 
L 16.796875 8.296875 
L 64.015625 8.296875 
L 64.015625 0 
L 4.5 0 
L 4.5 7.515625 
L 50.59375 64.59375 
L 5.609375 64.59375 
z
" id="DejaVuSans-90"/>
       <path d="M 30.609375 48.390625 
Q 23.390625 48.390625 19.1875 42.75 
Q 14.984375 37.109375 14.984375 27.296875 
Q 14.984375 17.484375 19.15625 11.84375 
Q 23.34375 6.203125 30.609375 6.203125 
Q 37.796875 6.203125 41.984375 11.859375 
Q 46.1875 17.53125 46.1875 27.296875 
Q 46.1875 37.015625 41.984375 42.703125 
Q 37.796875 48.390625 30.609375 48.390625 
z
M 30.609375 56 
Q 42.328125 56 49.015625 48.375 
Q 55.71875 40.765625 55.71875 27.296875 
Q 55.71875 13.875 49.015625 6.21875 
Q 42.328125 -1.421875 30.609375 -1.421875 
Q 18.84375 -1.421875 12.171875 6.21875 
Q 5.515625 13.875 5.515625 27.296875 
Q 5.515625 40.765625 12.171875 48.375 
Q 18.84375 56 30.609375 56 
z
" id="DejaVuSans-111"/>
       <path d="M 54.890625 33.015625 
L 54.890625 0 
L 45.90625 0 
L 45.90625 32.71875 
Q 45.90625 40.484375 42.875 44.328125 
Q 39.84375 48.1875 33.796875 48.1875 
Q 26.515625 48.1875 22.3125 43.546875 
Q 18.109375 38.921875 18.109375 30.90625 
L 18.109375 0 
L 9.078125 0 
L 9.078125 54.6875 
L 18.109375 54.6875 
L 18.109375 46.1875 
Q 21.34375 51.125 25.703125 53.5625 
Q 30.078125 56 35.796875 56 
Q 45.21875 56 50.046875 50.171875 
Q 54.890625 44.34375 54.890625 33.015625 
z
" id="DejaVuSans-110"/>
       <path d="M 56.203125 29.59375 
L 56.203125 25.203125 
L 14.890625 25.203125 
Q 15.484375 15.921875 20.484375 11.0625 
Q 25.484375 6.203125 34.421875 6.203125 
Q 39.59375 6.203125 44.453125 7.46875 
Q 49.3125 8.734375 54.109375 11.28125 
L 54.109375 2.78125 
Q 49.265625 0.734375 44.1875 -0.34375 
Q 39.109375 -1.421875 33.890625 -1.421875 
Q 20.796875 -1.421875 13.15625 6.1875 
Q 5.515625 13.8125 5.515625 26.8125 
Q 5.515625 40.234375 12.765625 48.109375 
Q 20.015625 56 32.328125 56 
Q 43.359375 56 49.78125 48.890625 
Q 56.203125 41.796875 56.203125 29.59375 
z
M 47.21875 32.234375 
Q 47.125 39.59375 43.09375 43.984375 
Q 39.0625 48.390625 32.421875 48.390625 
Q 24.90625 48.390625 20.390625 44.140625 
Q 15.875 39.890625 15.1875 32.171875 
z
" id="DejaVuSans-101"/>
       <path d="M 8.5 21.578125 
L 8.5 54.6875 
L 17.484375 54.6875 
L 17.484375 21.921875 
Q 17.484375 14.15625 20.5 10.265625 
Q 23.53125 6.390625 29.59375 6.390625 
Q 36.859375 6.390625 41.078125 11.03125 
Q 45.3125 15.671875 45.3125 23.6875 
L 45.3125 54.6875 
L 54.296875 54.6875 
L 54.296875 0 
L 45.3125 0 
L 45.3125 8.40625 
Q 42.046875 3.421875 37.71875 1 
Q 33.40625 -1.421875 27.6875 -1.421875 
Q 18.265625 -1.421875 13.375 4.4375 
Q 8.5 10.296875 8.5 21.578125 
z
M 31.109375 56 
z
" id="DejaVuSans-117"/>
       <path d="M 41.109375 46.296875 
Q 39.59375 47.171875 37.8125 47.578125 
Q 36.03125 48 33.890625 48 
Q 26.265625 48 22.1875 43.046875 
Q 18.109375 38.09375 18.109375 28.8125 
L 18.109375 0 
L 9.078125 0 
L 9.078125 54.6875 
L 18.109375 54.6875 
L 18.109375 46.1875 
Q 20.953125 51.171875 25.484375 53.578125 
Q 30.03125 56 36.53125 56 
Q 37.453125 56 38.578125 55.875 
Q 39.703125 55.765625 41.0625 55.515625 
z
" id="DejaVuSans-114"/>
      </defs>
      <use xlink:href="#DejaVuSans-73"/>
      <use x="29.492188" xlink:href="#DejaVuSans-80"/>
      <use x="89.794922" xlink:href="#DejaVuSans-67"/>
      <use x="159.619141" xlink:href="#DejaVuSans-32"/>
      <use x="191.40625" xlink:href="#DejaVuSans-45"/>
      <use x="227.490234" xlink:href="#DejaVuSans-32"/>
      <use x="259.277344" xlink:href="#DejaVuSans-90"/>
      <use x="327.783203" xlink:href="#DejaVuSans-111"/>
      <use x="388.964844" xlink:href="#DejaVuSans-110"/>
      <use x="452.34375" xlink:href="#DejaVuSans-101"/>
      <use x="513.867188" xlink:href="#DejaVuSans-32"/>
      <use x="545.654297" xlink:href="#DejaVuSans-101"/>
      <use x="607.177734" xlink:href="#DejaVuSans-117"/>
      <use x="670.556641" xlink:href="#DejaVuSans-114"/>
      <use x="709.419922" xlink:href="#DejaVuSans-111"/>
     </g>
    </g>
    <g id="line2d_24">
     <path d="M 314.539427 51.776562 
L 334.539427 51.776562 
" style="fill:none;stroke:#009e73;stroke-linecap:square;stroke-width:1.5;"/>
    </g>
    <g id="line2d_25"/>
    <g id="text_20">
     <!-- IPC - France -->
     <g transform="translate(342.539427 55.276562)scale(0.1 -0.1)">
      <defs>
       <path d="M 9.8125 72.90625 
L 51.703125 72.90625 
L 51.703125 64.59375 
L 19.671875 64.59375 
L 19.671875 43.109375 
L 48.578125 43.109375 
L 48.578125 34.8125 
L 19.671875 34.8125 
L 19.671875 0 
L 9.8125 0 
z
" id="DejaVuSans-70"/>
       <path d="M 34.28125 27.484375 
Q 23.390625 27.484375 19.1875 25 
Q 14.984375 22.515625 14.984375 16.5 
Q 14.984375 11.71875 18.140625 8.90625 
Q 21.296875 6.109375 26.703125 6.109375 
Q 34.1875 6.109375 38.703125 11.40625 
Q 43.21875 16.703125 43.21875 25.484375 
L 43.21875 27.484375 
z
M 52.203125 31.203125 
L 52.203125 0 
L 43.21875 0 
L 43.21875 8.296875 
Q 40.140625 3.328125 35.546875 0.953125 
Q 30.953125 -1.421875 24.3125 -1.421875 
Q 15.921875 -1.421875 10.953125 3.296875 
Q 6 8.015625 6 15.921875 
Q 6 25.140625 12.171875 29.828125 
Q 18.359375 34.515625 30.609375 34.515625 
L 43.21875 34.515625 
L 43.21875 35.40625 
Q 43.21875 41.609375 39.140625 45 
Q 35.0625 48.390625 27.6875 48.390625 
Q 23 48.390625 18.546875 47.265625 
Q 14.109375 46.140625 10.015625 43.890625 
L 10.015625 52.203125 
Q 14.9375 54.109375 19.578125 55.046875 
Q 24.21875 56 28.609375 56 
Q 40.484375 56 46.34375 49.84375 
Q 52.203125 43.703125 52.203125 31.203125 
z
" id="DejaVuSans-97"/>
       <path d="M 48.78125 52.59375 
L 48.78125 44.1875 
Q 44.96875 46.296875 41.140625 47.34375 
Q 37.3125 48.390625 33.40625 48.390625 
Q 24.65625 48.390625 19.8125 42.84375 
Q 14.984375 37.3125 14.984375 27.296875 
Q 14.984375 17.28125 19.8125 11.734375 
Q 24.65625 6.203125 33.40625 6.203125 
Q 37.3125 6.203125 41.140625 7.25 
Q 44.96875 8.296875 48.78125 10.40625 
L 48.78125 2.09375 
Q 45.015625 0.34375 40.984375 -0.53125 
Q 36.96875 -1.421875 32.421875 -1.421875 
Q 20.0625 -1.421875 12.78125 6.34375 
Q 5.515625 14.109375 5.515625 27.296875 
Q 5.515625 40.671875 12.859375 48.328125 
Q 20.21875 56 33.015625 56 
Q 37.15625 56 41.109375 55.140625 
Q 45.0625 54.296875 48.78125 52.59375 
z
" id="DejaVuSans-99"/>
      </defs>
      <use xlink:href="#DejaVuSans-73"/>
      <use x="29.492188" xlink:href="#DejaVuSans-80"/>
      <use x="89.794922" xlink:href="#DejaVuSans-67"/>
      <use x="159.619141" xlink:href="#DejaVuSans-32"/>
      <use x="191.40625" xlink:href="#DejaVuSans-45"/>
      <use x="227.490234" xlink:href="#DejaVuSans-32"/>
      <use x="259.277344" xlink:href="#DejaVuSans-70"/>
      <use x="309.546875" xlink:href="#DejaVuSans-114"/>
      <use x="350.660156" xlink:href="#DejaVuSans-97"/>
      <use x="411.939453" xlink:href="#DejaVuSans-110"/>
      <use x="475.318359" xlink:href="#DejaVuSans-99"/>
      <use x="530.298828" xlink:href="#DejaVuSans-101"/>
     </g>
    </g>
    <g id="line2d_26">
     <path d="M 314.539427 66.454687 
L 334.539427 66.454687 
" style="fill:none;stroke:#d55e00;stroke-linecap:square;stroke-width:1.5;"/>
    </g>
    <g id="line2d_27"/>
    <g id="text_21">
     <!-- IPC - Espagne -->
     <g transform="translate(342.539427 69.954687)scale(0.1 -0.1)">
      <defs>
       <path d="M 9.8125 72.90625 
L 55.90625 72.90625 
L 55.90625 64.59375 
L 19.671875 64.59375 
L 19.671875 43.015625 
L 54.390625 43.015625 
L 54.390625 34.71875 
L 19.671875 34.71875 
L 19.671875 8.296875 
L 56.78125 8.296875 
L 56.78125 0 
L 9.8125 0 
z
" id="DejaVuSans-69"/>
       <path d="M 44.28125 53.078125 
L 44.28125 44.578125 
Q 40.484375 46.53125 36.375 47.5 
Q 32.28125 48.484375 27.875 48.484375 
Q 21.1875 48.484375 17.84375 46.4375 
Q 14.5 44.390625 14.5 40.28125 
Q 14.5 37.15625 16.890625 35.375 
Q 19.28125 33.59375 26.515625 31.984375 
L 29.59375 31.296875 
Q 39.15625 29.25 43.1875 25.515625 
Q 47.21875 21.78125 47.21875 15.09375 
Q 47.21875 7.46875 41.1875 3.015625 
Q 35.15625 -1.421875 24.609375 -1.421875 
Q 20.21875 -1.421875 15.453125 -0.5625 
Q 10.6875 0.296875 5.421875 2 
L 5.421875 11.28125 
Q 10.40625 8.6875 15.234375 7.390625 
Q 20.0625 6.109375 24.8125 6.109375 
Q 31.15625 6.109375 34.5625 8.28125 
Q 37.984375 10.453125 37.984375 14.40625 
Q 37.984375 18.0625 35.515625 20.015625 
Q 33.0625 21.96875 24.703125 23.78125 
L 21.578125 24.515625 
Q 13.234375 26.265625 9.515625 29.90625 
Q 5.8125 33.546875 5.8125 39.890625 
Q 5.8125 47.609375 11.28125 51.796875 
Q 16.75 56 26.8125 56 
Q 31.78125 56 36.171875 55.265625 
Q 40.578125 54.546875 44.28125 53.078125 
z
" id="DejaVuSans-115"/>
       <path d="M 18.109375 8.203125 
L 18.109375 -20.796875 
L 9.078125 -20.796875 
L 9.078125 54.6875 
L 18.109375 54.6875 
L 18.109375 46.390625 
Q 20.953125 51.265625 25.265625 53.625 
Q 29.59375 56 35.59375 56 
Q 45.5625 56 51.78125 48.09375 
Q 58.015625 40.1875 58.015625 27.296875 
Q 58.015625 14.40625 51.78125 6.484375 
Q 45.5625 -1.421875 35.59375 -1.421875 
Q 29.59375 -1.421875 25.265625 0.953125 
Q 20.953125 3.328125 18.109375 8.203125 
z
M 48.6875 27.296875 
Q 48.6875 37.203125 44.609375 42.84375 
Q 40.53125 48.484375 33.40625 48.484375 
Q 26.265625 48.484375 22.1875 42.84375 
Q 18.109375 37.203125 18.109375 27.296875 
Q 18.109375 17.390625 22.1875 11.75 
Q 26.265625 6.109375 33.40625 6.109375 
Q 40.53125 6.109375 44.609375 11.75 
Q 48.6875 17.390625 48.6875 27.296875 
z
" id="DejaVuSans-112"/>
       <path d="M 45.40625 27.984375 
Q 45.40625 37.75 41.375 43.109375 
Q 37.359375 48.484375 30.078125 48.484375 
Q 22.859375 48.484375 18.828125 43.109375 
Q 14.796875 37.75 14.796875 27.984375 
Q 14.796875 18.265625 18.828125 12.890625 
Q 22.859375 7.515625 30.078125 7.515625 
Q 37.359375 7.515625 41.375 12.890625 
Q 45.40625 18.265625 45.40625 27.984375 
z
M 54.390625 6.78125 
Q 54.390625 -7.171875 48.1875 -13.984375 
Q 42 -20.796875 29.203125 -20.796875 
Q 24.46875 -20.796875 20.265625 -20.09375 
Q 16.0625 -19.390625 12.109375 -17.921875 
L 12.109375 -9.1875 
Q 16.0625 -11.328125 19.921875 -12.34375 
Q 23.78125 -13.375 27.78125 -13.375 
Q 36.625 -13.375 41.015625 -8.765625 
Q 45.40625 -4.15625 45.40625 5.171875 
L 45.40625 9.625 
Q 42.625 4.78125 38.28125 2.390625 
Q 33.9375 0 27.875 0 
Q 17.828125 0 11.671875 7.65625 
Q 5.515625 15.328125 5.515625 27.984375 
Q 5.515625 40.671875 11.671875 48.328125 
Q 17.828125 56 27.875 56 
Q 33.9375 56 38.28125 53.609375 
Q 42.625 51.21875 45.40625 46.390625 
L 45.40625 54.6875 
L 54.390625 54.6875 
z
" id="DejaVuSans-103"/>
      </defs>
      <use xlink:href="#DejaVuSans-73"/>
      <use x="29.492188" xlink:href="#DejaVuSans-80"/>
      <use x="89.794922" xlink:href="#DejaVuSans-67"/>
      <use x="159.619141" xlink:href="#DejaVuSans-32"/>
      <use x="191.40625" xlink:href="#DejaVuSans-45"/>
      <use x="227.490234" xlink:href="#DejaVuSans-32"/>
      <use x="259.277344" xlink:href="#DejaVuSans-69"/>
      <use x="322.460938" xlink:href="#DejaVuSans-115"/>
      <use x="374.560547" xlink:href="#DejaVuSans-112"/>
      <use x="438.037109" xlink:href="#DejaVuSans-97"/>
      <use x="499.316406" xlink:href="#DejaVuSans-103"/>
      <use x="562.792969" xlink:href="#DejaVuSans-110"/>
      <use x="626.171875" xlink:href="#DejaVuSans-101"/>
     </g>
    </g>
    <g id="line2d_28">
     <path d="M 314.539427 81.132812 
L 334.539427 81.132812 
" style="fill:none;stroke:#cc79a7;stroke-linecap:square;stroke-width:1.5;"/>
    </g>
    <g id="line2d_29"/>
    <g id="text_22">
     <!-- IPC - Italie -->
     <g transform="translate(342.539427 84.632812)scale(0.1 -0.1)">
      <defs>
       <path d="M 18.3125 70.21875 
L 18.3125 54.6875 
L 36.8125 54.6875 
L 36.8125 47.703125 
L 18.3125 47.703125 
L 18.3125 18.015625 
Q 18.3125 11.328125 20.140625 9.421875 
Q 21.96875 7.515625 27.59375 7.515625 
L 36.8125 7.515625 
L 36.8125 0 
L 27.59375 0 
Q 17.1875 0 13.234375 3.875 
Q 9.28125 7.765625 9.28125 18.015625 
L 9.28125 47.703125 
L 2.6875 47.703125 
L 2.6875 54.6875 
L 9.28125 54.6875 
L 9.28125 70.21875 
z
" id="DejaVuSans-116"/>
       <path d="M 9.421875 75.984375 
L 18.40625 75.984375 
L 18.40625 0 
L 9.421875 0 
z
" id="DejaVuSans-108"/>
       <path d="M 9.421875 54.6875 
L 18.40625 54.6875 
L 18.40625 0 
L 9.421875 0 
z
M 9.421875 75.984375 
L 18.40625 75.984375 
L 18.40625 64.59375 
L 9.421875 64.59375 
z
" id="DejaVuSans-105"/>
      </defs>
      <use xlink:href="#DejaVuSans-73"/>
      <use x="29.492188" xlink:href="#DejaVuSans-80"/>
      <use x="89.794922" xlink:href="#DejaVuSans-67"/>
      <use x="159.619141" xlink:href="#DejaVuSans-32"/>
      <use x="191.40625" xlink:href="#DejaVuSans-45"/>
      <use x="227.490234" xlink:href="#DejaVuSans-32"/>
      <use x="259.277344" xlink:href="#DejaVuSans-73"/>
      <use x="288.769531" xlink:href="#DejaVuSans-116"/>
      <use x="327.978516" xlink:href="#DejaVuSans-97"/>
      <use x="389.257812" xlink:href="#DejaVuSans-108"/>
      <use x="417.041016" xlink:href="#DejaVuSans-105"/>
      <use x="444.824219" xlink:href="#DejaVuSans-101"/>
     </g>
    </g>
    <g id="line2d_30">
     <path d="M 314.539427 95.810937 
L 334.539427 95.810937 
" style="fill:none;stroke:#f0e442;stroke-linecap:square;stroke-width:1.5;"/>
    </g>
    <g id="line2d_31"/>
    <g id="text_23">
     <!-- IPC - Allemagne -->
     <g transform="translate(342.539427 99.310937)scale(0.1 -0.1)">
      <defs>
       <path d="M 34.1875 63.1875 
L 20.796875 26.90625 
L 47.609375 26.90625 
z
M 28.609375 72.90625 
L 39.796875 72.90625 
L 67.578125 0 
L 57.328125 0 
L 50.6875 18.703125 
L 17.828125 18.703125 
L 11.1875 0 
L 0.78125 0 
z
" id="DejaVuSans-65"/>
       <path d="M 52 44.1875 
Q 55.375 50.25 60.0625 53.125 
Q 64.75 56 71.09375 56 
Q 79.640625 56 84.28125 50.015625 
Q 88.921875 44.046875 88.921875 33.015625 
L 88.921875 0 
L 79.890625 0 
L 79.890625 32.71875 
Q 79.890625 40.578125 77.09375 44.375 
Q 74.3125 48.1875 68.609375 48.1875 
Q 61.625 48.1875 57.5625 43.546875 
Q 53.515625 38.921875 53.515625 30.90625 
L 53.515625 0 
L 44.484375 0 
L 44.484375 32.71875 
Q 44.484375 40.625 41.703125 44.40625 
Q 38.921875 48.1875 33.109375 48.1875 
Q 26.21875 48.1875 22.15625 43.53125 
Q 18.109375 38.875 18.109375 30.90625 
L 18.109375 0 
L 9.078125 0 
L 9.078125 54.6875 
L 18.109375 54.6875 
L 18.109375 46.1875 
Q 21.1875 51.21875 25.484375 53.609375 
Q 29.78125 56 35.6875 56 
Q 41.65625 56 45.828125 52.96875 
Q 50 49.953125 52 44.1875 
z
" id="DejaVuSans-109"/>
      </defs>
      <use xlink:href="#DejaVuSans-73"/>
      <use x="29.492188" xlink:href="#DejaVuSans-80"/>
      <use x="89.794922" xlink:href="#DejaVuSans-67"/>
      <use x="159.619141" xlink:href="#DejaVuSans-32"/>
      <use x="191.40625" xlink:href="#DejaVuSans-45"/>
      <use x="227.490234" xlink:href="#DejaVuSans-32"/>
      <use x="259.277344" xlink:href="#DejaVuSans-65"/>
      <use x="327.685547" xlink:href="#DejaVuSans-108"/>
      <use x="355.46875" xlink:href="#DejaVuSans-108"/>
      <use x="383.251953" xlink:href="#DejaVuSans-101"/>
      <use x="444.775391" xlink:href="#DejaVuSans-109"/>
      <use x="542.1875" xlink:href="#DejaVuSans-97"/>
      <use x="603.466797" xlink:href="#DejaVuSans-103"/>
      <use x="666.943359" xlink:href="#DejaVuSans-110"/>
      <use x="730.322266" xlink:href="#DejaVuSans-101"/>
     </g>
    </g>
   </g>
  </g>
 </g>
 <defs>
  <clipPath id="p9367f81a75">
   <rect height="293.72" width="399.414503" x="45.92" y="24"/>
  </clipPath>
 </defs>
</svg>
