<?xml version="1.0" encoding="utf-8" standalone="no"?>
<!DOCTYPE svg PUBLIC "-//W3C//DTD SVG 1.1//EN"
  "http://www.w3.org/Graphics/SVG/1.1/DTD/svg11.dtd">
<!-- Created with matplotlib (https://matplotlib.org/) -->
<svg height="345.6pt" version="1.1" viewBox="0 0 460.8 345.6" width="460.8pt" xmlns="http://www.w3.org/2000/svg" xmlns:xlink="http://www.w3.org/1999/xlink">
 <metadata>
  <rdf:RDF xmlns:cc="http://creativecommons.org/ns#" xmlns:dc="http://purl.org/dc/elements/1.1/" xmlns:rdf="http://www.w3.org/1999/02/22-rdf-syntax-ns#">
   <cc:Work>
    <dc:type rdf:resource="http://purl.org/dc/dcmitype/StillImage"/>
    <dc:date>2021-08-18T12:31:08.552403</dc:date>
    <dc:format>image/svg+xml</dc:format>
    <dc:creator>
     <cc:Agent>
      <dc:title>Matplotlib v3.3.4, https://matplotlib.org/</dc:title>
     </cc:Agent>
    </dc:creator>
   </cc:Work>
  </rdf:RDF>
 </metadata>
 <defs>
  <style type="text/css">*{stroke-linecap:butt;stroke-linejoin:round;}</style>
 </defs>
 <g id="figure_1">
  <g id="patch_1">
   <path d="M 0 345.6 
L 460.8 345.6 
L 460.8 0 
L 0 0 
z
" style="fill:#ffffff;"/>
  </g>
  <g id="axes_1">
   <g id="patch_2">
    <path d="M 55.28 317.72 
L 450 317.72 
L 450 24 
L 55.28 24 
z
" style="fill:#ffffff;"/>
   </g>
   <g id="matplotlib.axis_1">
    <g id="xtick_1">
     <g id="line2d_1">
      <defs>
       <path d="M 0 0 
L 0 3.5 
" id="mee62a9006b" style="stroke:#000000;stroke-width:0.8;"/>
      </defs>
      <g>
       <use style="stroke:#000000;stroke-width:0.8;" x="124.484156" xlink:href="#mee62a9006b" y="317.72"/>
      </g>
     </g>
     <g id="text_1">
      <!-- 2004 -->
      <g transform="translate(111.759156 332.318437)scale(0.1 -0.1)">
       <defs>
        <path d="M 19.1875 8.296875 
L 53.609375 8.296875 
L 53.609375 0 
L 7.328125 0 
L 7.328125 8.296875 
Q 12.9375 14.109375 22.625 23.890625 
Q 32.328125 33.6875 34.8125 36.53125 
Q 39.546875 41.84375 41.421875 45.53125 
Q 43.3125 49.21875 43.3125 52.78125 
Q 43.3125 58.59375 39.234375 62.25 
Q 35.15625 65.921875 28.609375 65.921875 
Q 23.96875 65.921875 18.8125 64.3125 
Q 13.671875 62.703125 7.8125 59.421875 
L 7.8125 69.390625 
Q 13.765625 71.78125 18.9375 73 
Q 24.125 74.21875 28.421875 74.21875 
Q 39.75 74.21875 46.484375 68.546875 
Q 53.21875 62.890625 53.21875 53.421875 
Q 53.21875 48.921875 51.53125 44.890625 
Q 49.859375 40.875 45.40625 35.40625 
Q 44.1875 33.984375 37.640625 27.21875 
Q 31.109375 20.453125 19.1875 8.296875 
z
" id="DejaVuSans-50"/>
        <path d="M 31.78125 66.40625 
Q 24.171875 66.40625 20.328125 58.90625 
Q 16.5 51.421875 16.5 36.375 
Q 16.5 21.390625 20.328125 13.890625 
Q 24.171875 6.390625 31.78125 6.390625 
Q 39.453125 6.390625 43.28125 13.890625 
Q 47.125 21.390625 47.125 36.375 
Q 47.125 51.421875 43.28125 58.90625 
Q 39.453125 66.40625 31.78125 66.40625 
z
M 31.78125 74.21875 
Q 44.046875 74.21875 50.515625 64.515625 
Q 56.984375 54.828125 56.984375 36.375 
Q 56.984375 17.96875 50.515625 8.265625 
Q 44.046875 -1.421875 31.78125 -1.421875 
Q 19.53125 -1.421875 13.0625 8.265625 
Q 6.59375 17.96875 6.59375 36.375 
Q 6.59375 54.828125 13.0625 64.515625 
Q 19.53125 74.21875 31.78125 74.21875 
z
" id="DejaVuSans-48"/>
        <path d="M 37.796875 64.3125 
L 12.890625 25.390625 
L 37.796875 25.390625 
z
M 35.203125 72.90625 
L 47.609375 72.90625 
L 47.609375 25.390625 
L 58.015625 25.390625 
L 58.015625 17.1875 
L 47.609375 17.1875 
L 47.609375 0 
L 37.796875 0 
L 37.796875 17.1875 
L 4.890625 17.1875 
L 4.890625 26.703125 
z
" id="DejaVuSans-52"/>
       </defs>
       <use xlink:href="#DejaVuSans-50"/>
       <use x="63.623047" xlink:href="#DejaVuSans-48"/>
       <use x="127.246094" xlink:href="#DejaVuSans-48"/>
       <use x="190.869141" xlink:href="#DejaVuSans-52"/>
      </g>
     </g>
    </g>
    <g id="xtick_2">
     <g id="line2d_2">
      <g>
       <use style="stroke:#000000;stroke-width:0.8;" x="194.807419" xlink:href="#mee62a9006b" y="317.72"/>
      </g>
     </g>
     <g id="text_2">
      <!-- 2008 -->
      <g transform="translate(182.082419 332.318437)scale(0.1 -0.1)">
       <defs>
        <path d="M 31.78125 34.625 
Q 24.75 34.625 20.71875 30.859375 
Q 16.703125 27.09375 16.703125 20.515625 
Q 16.703125 13.921875 20.71875 10.15625 
Q 24.75 6.390625 31.78125 6.390625 
Q 38.8125 6.390625 42.859375 10.171875 
Q 46.921875 13.96875 46.921875 20.515625 
Q 46.921875 27.09375 42.890625 30.859375 
Q 38.875 34.625 31.78125 34.625 
z
M 21.921875 38.8125 
Q 15.578125 40.375 12.03125 44.71875 
Q 8.5 49.078125 8.5 55.328125 
Q 8.5 64.0625 14.71875 69.140625 
Q 20.953125 74.21875 31.78125 74.21875 
Q 42.671875 74.21875 48.875 69.140625 
Q 55.078125 64.0625 55.078125 55.328125 
Q 55.078125 49.078125 51.53125 44.71875 
Q 48 40.375 41.703125 38.8125 
Q 48.828125 37.15625 52.796875 32.3125 
Q 56.78125 27.484375 56.78125 20.515625 
Q 56.78125 9.90625 50.3125 4.234375 
Q 43.84375 -1.421875 31.78125 -1.421875 
Q 19.734375 -1.421875 13.25 4.234375 
Q 6.78125 9.90625 6.78125 20.515625 
Q 6.78125 27.484375 10.78125 32.3125 
Q 14.796875 37.15625 21.921875 38.8125 
z
M 18.3125 54.390625 
Q 18.3125 48.734375 21.84375 45.5625 
Q 25.390625 42.390625 31.78125 42.390625 
Q 38.140625 42.390625 41.71875 45.5625 
Q 45.3125 48.734375 45.3125 54.390625 
Q 45.3125 60.0625 41.71875 63.234375 
Q 38.140625 66.40625 31.78125 66.40625 
Q 25.390625 66.40625 21.84375 63.234375 
Q 18.3125 60.0625 18.3125 54.390625 
z
" id="DejaVuSans-56"/>
       </defs>
       <use xlink:href="#DejaVuSans-50"/>
       <use x="63.623047" xlink:href="#DejaVuSans-48"/>
       <use x="127.246094" xlink:href="#DejaVuSans-48"/>
       <use x="190.869141" xlink:href="#DejaVuSans-56"/>
      </g>
     </g>
    </g>
    <g id="xtick_3">
     <g id="line2d_3">
      <g>
       <use style="stroke:#000000;stroke-width:0.8;" x="265.130682" xlink:href="#mee62a9006b" y="317.72"/>
      </g>
     </g>
     <g id="text_3">
      <!-- 2012 -->
      <g transform="translate(252.405682 332.318437)scale(0.1 -0.1)">
       <defs>
        <path d="M 12.40625 8.296875 
L 28.515625 8.296875 
L 28.515625 63.921875 
L 10.984375 60.40625 
L 10.984375 69.390625 
L 28.421875 72.90625 
L 38.28125 72.90625 
L 38.28125 8.296875 
L 54.390625 8.296875 
L 54.390625 0 
L 12.40625 0 
z
" id="DejaVuSans-49"/>
       </defs>
       <use xlink:href="#DejaVuSans-50"/>
       <use x="63.623047" xlink:href="#DejaVuSans-48"/>
       <use x="127.246094" xlink:href="#DejaVuSans-49"/>
       <use x="190.869141" xlink:href="#DejaVuSans-50"/>
      </g>
     </g>
    </g>
    <g id="xtick_4">
     <g id="line2d_4">
      <g>
       <use style="stroke:#000000;stroke-width:0.8;" x="335.453945" xlink:href="#mee62a9006b" y="317.72"/>
      </g>
     </g>
     <g id="text_4">
      <!-- 2016 -->
      <g transform="translate(322.728945 332.318437)scale(0.1 -0.1)">
       <defs>
        <path d="M 33.015625 40.375 
Q 26.375 40.375 22.484375 35.828125 
Q 18.609375 31.296875 18.609375 23.390625 
Q 18.609375 15.53125 22.484375 10.953125 
Q 26.375 6.390625 33.015625 6.390625 
Q 39.65625 6.390625 43.53125 10.953125 
Q 47.40625 15.53125 47.40625 23.390625 
Q 47.40625 31.296875 43.53125 35.828125 
Q 39.65625 40.375 33.015625 40.375 
z
M 52.59375 71.296875 
L 52.59375 62.3125 
Q 48.875 64.0625 45.09375 64.984375 
Q 41.3125 65.921875 37.59375 65.921875 
Q 27.828125 65.921875 22.671875 59.328125 
Q 17.53125 52.734375 16.796875 39.40625 
Q 19.671875 43.65625 24.015625 45.921875 
Q 28.375 48.1875 33.59375 48.1875 
Q 44.578125 48.1875 50.953125 41.515625 
Q 57.328125 34.859375 57.328125 23.390625 
Q 57.328125 12.15625 50.6875 5.359375 
Q 44.046875 -1.421875 33.015625 -1.421875 
Q 20.359375 -1.421875 13.671875 8.265625 
Q 6.984375 17.96875 6.984375 36.375 
Q 6.984375 53.65625 15.1875 63.9375 
Q 23.390625 74.21875 37.203125 74.21875 
Q 40.921875 74.21875 44.703125 73.484375 
Q 48.484375 72.75 52.59375 71.296875 
z
" id="DejaVuSans-54"/>
       </defs>
       <use xlink:href="#DejaVuSans-50"/>
       <use x="63.623047" xlink:href="#DejaVuSans-48"/>
       <use x="127.246094" xlink:href="#DejaVuSans-49"/>
       <use x="190.869141" xlink:href="#DejaVuSans-54"/>
      </g>
     </g>
    </g>
    <g id="xtick_5">
     <g id="line2d_5">
      <g>
       <use style="stroke:#000000;stroke-width:0.8;" x="405.777209" xlink:href="#mee62a9006b" y="317.72"/>
      </g>
     </g>
     <g id="text_5">
      <!-- 2020 -->
      <g transform="translate(393.052209 332.318437)scale(0.1 -0.1)">
       <use xlink:href="#DejaVuSans-50"/>
       <use x="63.623047" xlink:href="#DejaVuSans-48"/>
       <use x="127.246094" xlink:href="#DejaVuSans-50"/>
       <use x="190.869141" xlink:href="#DejaVuSans-48"/>
      </g>
     </g>
    </g>
   </g>
   <g id="matplotlib.axis_2">
    <g id="ytick_1">
     <g id="line2d_6">
      <defs>
       <path d="M 0 0 
L -3.5 0 
" id="m7b74cd4fc8" style="stroke:#000000;stroke-width:0.8;"/>
      </defs>
      <g>
       <use style="stroke:#000000;stroke-width:0.8;" x="55.28" xlink:href="#m7b74cd4fc8" y="294.210791"/>
      </g>
     </g>
     <g id="text_6">
      <!-- −7.5 -->
      <g transform="translate(23.997188 298.010009)scale(0.1 -0.1)">
       <defs>
        <path d="M 10.59375 35.5 
L 73.1875 35.5 
L 73.1875 27.203125 
L 10.59375 27.203125 
z
" id="DejaVuSans-8722"/>
        <path d="M 8.203125 72.90625 
L 55.078125 72.90625 
L 55.078125 68.703125 
L 28.609375 0 
L 18.3125 0 
L 43.21875 64.59375 
L 8.203125 64.59375 
z
" id="DejaVuSans-55"/>
        <path d="M 10.6875 12.40625 
L 21 12.40625 
L 21 0 
L 10.6875 0 
z
" id="DejaVuSans-46"/>
        <path d="M 10.796875 72.90625 
L 49.515625 72.90625 
L 49.515625 64.59375 
L 19.828125 64.59375 
L 19.828125 46.734375 
Q 21.96875 47.46875 24.109375 47.828125 
Q 26.265625 48.1875 28.421875 48.1875 
Q 40.625 48.1875 47.75 41.5 
Q 54.890625 34.8125 54.890625 23.390625 
Q 54.890625 11.625 47.5625 5.09375 
Q 40.234375 -1.421875 26.90625 -1.421875 
Q 22.3125 -1.421875 17.546875 -0.640625 
Q 12.796875 0.140625 7.71875 1.703125 
L 7.71875 11.625 
Q 12.109375 9.234375 16.796875 8.0625 
Q 21.484375 6.890625 26.703125 6.890625 
Q 35.15625 6.890625 40.078125 11.328125 
Q 45.015625 15.765625 45.015625 23.390625 
Q 45.015625 31 40.078125 35.4375 
Q 35.15625 39.890625 26.703125 39.890625 
Q 22.75 39.890625 18.8125 39.015625 
Q 14.890625 38.140625 10.796875 36.28125 
z
" id="DejaVuSans-53"/>
       </defs>
       <use xlink:href="#DejaVuSans-8722"/>
       <use x="83.789062" xlink:href="#DejaVuSans-55"/>
       <use x="147.412109" xlink:href="#DejaVuSans-46"/>
       <use x="179.199219" xlink:href="#DejaVuSans-53"/>
      </g>
     </g>
    </g>
    <g id="ytick_2">
     <g id="line2d_7">
      <g>
       <use style="stroke:#000000;stroke-width:0.8;" x="55.28" xlink:href="#m7b74cd4fc8" y="257.931146"/>
      </g>
     </g>
     <g id="text_7">
      <!-- −5.0 -->
      <g transform="translate(23.997188 261.730365)scale(0.1 -0.1)">
       <use xlink:href="#DejaVuSans-8722"/>
       <use x="83.789062" xlink:href="#DejaVuSans-53"/>
       <use x="147.412109" xlink:href="#DejaVuSans-46"/>
       <use x="179.199219" xlink:href="#DejaVuSans-48"/>
      </g>
     </g>
    </g>
    <g id="ytick_3">
     <g id="line2d_8">
      <g>
       <use style="stroke:#000000;stroke-width:0.8;" x="55.28" xlink:href="#m7b74cd4fc8" y="221.651502"/>
      </g>
     </g>
     <g id="text_8">
      <!-- −2.5 -->
      <g transform="translate(23.997188 225.450721)scale(0.1 -0.1)">
       <use xlink:href="#DejaVuSans-8722"/>
       <use x="83.789062" xlink:href="#DejaVuSans-50"/>
       <use x="147.412109" xlink:href="#DejaVuSans-46"/>
       <use x="179.199219" xlink:href="#DejaVuSans-53"/>
      </g>
     </g>
    </g>
    <g id="ytick_4">
     <g id="line2d_9">
      <g>
       <use style="stroke:#000000;stroke-width:0.8;" x="55.28" xlink:href="#m7b74cd4fc8" y="185.371858"/>
      </g>
     </g>
     <g id="text_9">
      <!-- 0.0 -->
      <g transform="translate(32.376875 189.171076)scale(0.1 -0.1)">
       <use xlink:href="#DejaVuSans-48"/>
       <use x="63.623047" xlink:href="#DejaVuSans-46"/>
       <use x="95.410156" xlink:href="#DejaVuSans-48"/>
      </g>
     </g>
    </g>
    <g id="ytick_5">
     <g id="line2d_10">
      <g>
       <use style="stroke:#000000;stroke-width:0.8;" x="55.28" xlink:href="#m7b74cd4fc8" y="149.092213"/>
      </g>
     </g>
     <g id="text_10">
      <!-- 2.5 -->
      <g transform="translate(32.376875 152.891432)scale(0.1 -0.1)">
       <use xlink:href="#DejaVuSans-50"/>
       <use x="63.623047" xlink:href="#DejaVuSans-46"/>
       <use x="95.410156" xlink:href="#DejaVuSans-53"/>
      </g>
     </g>
    </g>
    <g id="ytick_6">
     <g id="line2d_11">
      <g>
       <use style="stroke:#000000;stroke-width:0.8;" x="55.28" xlink:href="#m7b74cd4fc8" y="112.812569"/>
      </g>
     </g>
     <g id="text_11">
      <!-- 5.0 -->
      <g transform="translate(32.376875 116.611788)scale(0.1 -0.1)">
       <use xlink:href="#DejaVuSans-53"/>
       <use x="63.623047" xlink:href="#DejaVuSans-46"/>
       <use x="95.410156" xlink:href="#DejaVuSans-48"/>
      </g>
     </g>
    </g>
    <g id="ytick_7">
     <g id="line2d_12">
      <g>
       <use style="stroke:#000000;stroke-width:0.8;" x="55.28" xlink:href="#m7b74cd4fc8" y="76.532925"/>
      </g>
     </g>
     <g id="text_12">
      <!-- 7.5 -->
      <g transform="translate(32.376875 80.332144)scale(0.1 -0.1)">
       <use xlink:href="#DejaVuSans-55"/>
       <use x="63.623047" xlink:href="#DejaVuSans-46"/>
       <use x="95.410156" xlink:href="#DejaVuSans-53"/>
      </g>
     </g>
    </g>
    <g id="ytick_8">
     <g id="line2d_13">
      <g>
       <use style="stroke:#000000;stroke-width:0.8;" x="55.28" xlink:href="#m7b74cd4fc8" y="40.253281"/>
      </g>
     </g>
     <g id="text_13">
      <!-- 10.0 -->
      <g transform="translate(26.014375 44.052499)scale(0.1 -0.1)">
       <use xlink:href="#DejaVuSans-49"/>
       <use x="63.623047" xlink:href="#DejaVuSans-48"/>
       <use x="127.246094" xlink:href="#DejaVuSans-46"/>
       <use x="159.033203" xlink:href="#DejaVuSans-48"/>
      </g>
     </g>
    </g>
    <g id="text_14">
     <!-- (%) -->
     <g transform="translate(18.125469 179.482422)rotate(-90)scale(0.09 -0.09)">
      <defs>
       <path d="M 37.703125 -13.1875 
L 23.1875 -13.1875 
Q 15.71875 -1.125 12.15625 9.734375 
Q 8.59375 20.609375 8.59375 31.296875 
Q 8.59375 42 12.171875 52.953125 
Q 15.765625 63.921875 23.1875 75.875 
L 37.703125 75.875 
Q 31.453125 64.3125 28.328125 53.25 
Q 25.203125 42.1875 25.203125 31.390625 
Q 25.203125 20.609375 28.296875 9.515625 
Q 31.390625 -1.5625 37.703125 -13.1875 
z
" id="DejaVuSans-Bold-40"/>
       <path d="M 77.484375 30.078125 
Q 74.03125 30.078125 72.125 27.078125 
Q 70.21875 24.078125 70.21875 18.5 
Q 70.21875 12.890625 72.09375 9.890625 
Q 73.96875 6.890625 77.484375 6.890625 
Q 81 6.890625 82.859375 9.890625 
Q 84.71875 12.890625 84.71875 18.5 
Q 84.71875 24.078125 82.828125 27.078125 
Q 80.953125 30.078125 77.484375 30.078125 
z
M 77.484375 38.28125 
Q 86.578125 38.28125 91.796875 33 
Q 97.015625 27.734375 97.015625 18.5 
Q 97.015625 9.28125 91.796875 3.921875 
Q 86.578125 -1.421875 77.484375 -1.421875 
Q 68.40625 -1.421875 63.15625 3.921875 
Q 57.90625 9.28125 57.90625 18.5 
Q 57.90625 27.6875 63.15625 32.984375 
Q 68.40625 38.28125 77.484375 38.28125 
z
M 32.71875 -1.421875 
L 21.921875 -1.421875 
L 67.484375 74.21875 
L 78.328125 74.21875 
z
M 22.703125 74.21875 
Q 31.78125 74.21875 36.984375 68.921875 
Q 42.1875 63.625 42.1875 54.390625 
Q 42.1875 45.171875 36.984375 39.84375 
Q 31.78125 34.515625 22.703125 34.515625 
Q 13.625 34.515625 8.421875 39.84375 
Q 3.21875 45.171875 3.21875 54.390625 
Q 3.21875 63.625 8.421875 68.921875 
Q 13.625 74.21875 22.703125 74.21875 
z
M 22.703125 66.015625 
Q 19.1875 66.015625 17.28125 62.984375 
Q 15.375 59.96875 15.375 54.390625 
Q 15.375 48.78125 17.28125 45.71875 
Q 19.1875 42.671875 22.703125 42.671875 
Q 26.21875 42.671875 28.09375 45.71875 
Q 29.984375 48.78125 29.984375 54.390625 
Q 29.984375 59.96875 28.078125 62.984375 
Q 26.171875 66.015625 22.703125 66.015625 
z
" id="DejaVuSans-Bold-37"/>
       <path d="M 8.015625 -13.1875 
Q 14.265625 -1.5625 17.390625 9.515625 
Q 20.515625 20.609375 20.515625 31.390625 
Q 20.515625 42.1875 17.390625 53.25 
Q 14.265625 64.3125 8.015625 75.875 
L 22.515625 75.875 
Q 29.9375 63.921875 33.515625 52.953125 
Q 37.109375 42 37.109375 31.296875 
Q 37.109375 20.609375 33.546875 9.734375 
Q 29.984375 -1.125 22.515625 -13.1875 
z
" id="DejaVuSans-Bold-41"/>
      </defs>
      <use xlink:href="#DejaVuSans-Bold-40"/>
      <use x="45.703125" xlink:href="#DejaVuSans-Bold-37"/>
      <use x="145.898438" xlink:href="#DejaVuSans-Bold-41"/>
     </g>
    </g>
   </g>
   <g id="line2d_14">
    <path clip-path="url(#p0d70f8e0dd)" d="M 73.221818 101.203083 
L 76.061704 104.105455 
L 77.505713 102.654269 
L 78.997856 108.459012 
L 80.441866 115.714941 
L 81.934009 133.12917 
L 83.426152 146.189842 
L 84.870162 163.604071 
L 86.362305 191.176601 
L 87.806314 199.883715 
L 89.298457 192.627787 
L 90.790601 196.981344 
L 92.138343 199.883715 
L 93.630486 196.981344 
L 95.074495 204.237273 
L 96.566639 210.042016 
L 98.010648 212.944387 
L 100.994934 204.237273 
L 102.438944 201.334901 
L 103.931087 179.567115 
L 105.375097 179.567115 
L 106.86724 175.213557 
L 108.359383 160.7017 
L 109.707125 156.348142 
L 111.199268 159.250514 
L 114.135421 179.567115 
L 115.579431 178.115929 
L 117.071574 170.86 
L 118.563717 166.506443 
L 120.007726 169.408814 
L 121.49987 175.213557 
L 122.943879 167.957628 
L 124.436022 172.311186 
L 125.928165 192.627787 
L 127.324041 195.530158 
L 128.816184 191.176601 
L 130.260194 173.762372 
L 131.752337 150.543399 
L 133.196347 149.092213 
L 134.68849 149.092213 
L 136.180633 144.738656 
L 137.624642 143.28747 
L 139.116786 127.324427 
L 140.560795 136.031542 
L 142.052938 143.28747 
L 143.545081 128.775613 
L 146.384967 125.873241 
L 147.828976 128.775613 
L 149.321119 144.738656 
L 150.765129 136.031542 
L 152.257272 134.580356 
L 153.749415 136.031542 
L 155.193425 131.677984 
L 156.685568 140.385099 
L 158.129577 134.580356 
L 159.621721 124.422055 
L 161.113864 122.97087 
L 162.461606 118.617312 
L 163.953749 121.519684 
L 165.397759 117.166126 
L 166.889902 109.910198 
L 168.333911 114.263755 
L 169.826055 111.361383 
L 171.318198 115.714941 
L 172.762207 134.580356 
L 174.25435 141.836285 
L 175.69836 140.385099 
L 177.190503 143.28747 
L 178.682646 153.445771 
L 180.030388 157.799328 
L 181.522532 159.250514 
L 182.966541 163.604071 
L 184.458684 162.152885 
L 185.902694 163.604071 
L 187.394837 169.408814 
L 188.88698 167.957628 
L 190.33099 154.896957 
L 191.823133 147.641028 
L 193.267142 134.580356 
L 194.759285 133.12917 
L 196.251429 127.324427 
L 199.139448 118.617312 
L 200.583457 117.166126 
L 203.51961 93.947154 
L 205.011753 79.435296 
L 206.503896 86.691225 
L 207.947906 89.593597 
L 209.440049 108.459012 
L 210.884058 150.543399 
L 212.376201 178.115929 
L 213.868345 196.981344 
L 215.216087 210.042016 
L 218.152239 244.870474 
L 219.644383 259.382332 
L 221.088392 269.540632 
L 222.580535 291.308419 
L 224.072678 281.150119 
L 225.516688 284.05249 
L 227.008831 272.443004 
L 228.452841 240.516917 
L 229.944984 215.846759 
L 231.437127 194.078972 
L 232.784869 186.823043 
L 234.277012 166.506443 
L 235.721022 144.738656 
L 237.213165 138.933913 
L 238.657175 137.482727 
L 240.149318 125.873241 
L 241.641461 133.12917 
L 243.08547 124.422055 
L 244.577614 125.873241 
L 246.021623 124.422055 
L 247.513766 112.812569 
L 249.005909 107.007826 
L 250.353652 101.203083 
L 251.845795 99.751897 
L 253.289804 102.654269 
L 254.781947 108.459012 
L 256.225957 115.714941 
L 257.7181 111.361383 
L 260.654253 114.263755 
L 262.146396 114.263755 
L 263.590405 117.166126 
L 265.082549 128.775613 
L 266.574692 137.482727 
L 267.970568 138.933913 
L 269.462711 143.28747 
L 270.90672 151.994585 
L 272.398863 154.896957 
L 273.842873 159.250514 
L 275.335016 162.152885 
L 276.827159 149.092213 
L 278.271169 153.445771 
L 279.763312 154.896957 
L 281.207322 160.7017 
L 282.699465 163.604071 
L 284.191608 169.408814 
L 285.53935 175.213557 
L 287.031493 182.469486 
L 288.475503 192.627787 
L 289.967646 192.627787 
L 291.411655 188.274229 
L 292.903799 189.725415 
L 294.395942 201.334901 
L 295.839951 201.334901 
L 297.332094 204.237273 
L 298.776104 204.237273 
L 300.268247 199.883715 
L 301.76039 204.237273 
L 303.108132 207.139644 
L 304.600276 208.59083 
L 306.044285 202.786087 
L 307.536428 201.334901 
L 308.980438 196.981344 
L 310.472581 201.334901 
L 311.964724 204.237273 
L 314.900877 198.43253 
L 316.344886 201.334901 
L 317.837029 215.846759 
L 319.329173 223.102688 
L 320.676915 211.493202 
L 322.169058 202.786087 
L 323.613067 198.43253 
L 325.105211 196.981344 
L 326.54922 201.334901 
L 328.041363 201.334901 
L 329.533506 211.493202 
L 330.977516 218.74913 
L 332.469659 221.651502 
L 333.913669 215.846759 
L 335.405812 211.493202 
L 336.897955 215.846759 
L 338.293831 233.260988 
L 339.785974 237.614545 
L 341.229984 243.419289 
L 344.166136 226.005059 
L 345.658279 221.651502 
L 347.150423 208.59083 
L 348.594432 202.786087 
L 350.086575 188.274229 
L 351.530585 183.920672 
L 353.022728 162.152885 
L 354.514871 134.580356 
L 355.862613 127.324427 
L 357.354756 130.226798 
L 358.798766 125.873241 
L 360.290909 138.933913 
L 361.734919 153.445771 
L 363.227062 157.799328 
L 366.163214 151.994585 
L 367.655358 159.250514 
L 369.099367 154.896957 
L 370.59151 163.604071 
L 372.083653 170.86 
L 373.431396 172.311186 
L 374.923539 169.408814 
L 376.367548 169.408814 
L 377.859691 153.445771 
L 379.303701 141.836285 
L 380.795844 133.12917 
L 383.731997 130.226798 
L 385.22414 125.873241 
L 386.66815 138.933913 
L 388.160293 153.445771 
L 389.652436 153.445771 
L 391.000178 151.994585 
L 393.936331 154.896957 
L 396.872483 181.0183 
L 398.364627 186.823043 
L 399.85677 196.981344 
L 401.300779 198.43253 
L 402.792922 205.688458 
L 404.236932 201.334901 
L 405.729075 189.725415 
L 407.221218 191.176601 
L 408.617094 198.43253 
L 411.553247 241.968103 
L 413.04539 246.32166 
L 414.489399 233.260988 
L 415.981543 228.907431 
L 417.473686 223.102688 
L 418.917695 224.553874 
L 420.409838 217.297945 
L 421.853848 215.846759 
L 423.345991 208.59083 
L 424.838134 192.627787 
L 426.185876 175.213557 
L 429.122029 98.300711 
L 430.614172 76.532925 
L 432.058182 64.923439 
L 432.058182 64.923439 
" style="fill:none;stroke:#0072b2;stroke-linecap:square;stroke-width:1.5;"/>
   </g>
   <g id="line2d_15">
    <path clip-path="url(#p0d70f8e0dd)" d="M 73.221818 130.226798 
L 74.56956 134.580356 
L 76.061704 137.482727 
L 77.505713 144.738656 
L 78.997856 150.543399 
L 80.441866 154.896957 
L 81.934009 163.604071 
L 83.426152 173.762372 
L 84.870162 185.371858 
L 86.362305 195.530158 
L 87.806314 198.43253 
L 89.298457 196.981344 
L 90.790601 196.981344 
L 92.138343 199.883715 
L 95.074495 194.078972 
L 96.566639 195.530158 
L 98.010648 195.530158 
L 99.502791 189.725415 
L 100.994934 182.469486 
L 102.438944 178.115929 
L 103.931087 175.213557 
L 105.375097 176.664743 
L 106.86724 170.86 
L 108.359383 163.604071 
L 109.707125 157.799328 
L 111.199268 160.7017 
L 112.643278 172.311186 
L 114.135421 178.115929 
L 115.579431 182.469486 
L 118.563717 185.371858 
L 120.007726 185.371858 
L 121.49987 183.920672 
L 122.943879 178.115929 
L 124.436022 185.371858 
L 125.928165 189.725415 
L 127.324041 196.981344 
L 128.816184 186.823043 
L 131.752337 163.604071 
L 133.196347 160.7017 
L 134.68849 151.994585 
L 136.180633 146.189842 
L 137.624642 144.738656 
L 139.116786 133.12917 
L 140.560795 136.031542 
L 142.052938 143.28747 
L 143.545081 127.324427 
L 144.892824 125.873241 
L 146.384967 130.226798 
L 147.828976 131.677984 
L 149.321119 146.189842 
L 150.765129 141.836285 
L 152.257272 146.189842 
L 153.749415 149.092213 
L 155.193425 147.641028 
L 156.685568 156.348142 
L 158.129577 153.445771 
L 159.621721 146.189842 
L 161.113864 159.250514 
L 162.461606 154.896957 
L 163.953749 157.799328 
L 165.397759 153.445771 
L 166.889902 141.836285 
L 168.333911 144.738656 
L 169.826055 137.482727 
L 171.318198 143.28747 
L 172.762207 150.543399 
L 174.25435 153.445771 
L 175.69836 153.445771 
L 177.190503 154.896957 
L 178.682646 157.799328 
L 180.030388 162.152885 
L 182.966541 162.152885 
L 184.458684 163.604071 
L 185.902694 163.604071 
L 187.394837 173.762372 
L 188.88698 173.762372 
L 191.823133 162.152885 
L 193.267142 157.799328 
L 194.759285 157.799328 
L 196.251429 150.543399 
L 197.647304 146.189842 
L 199.139448 147.641028 
L 200.583457 146.189842 
L 202.0756 137.482727 
L 203.51961 130.226798 
L 205.011753 120.068498 
L 206.503896 125.873241 
L 207.947906 128.775613 
L 209.440049 147.641028 
L 210.884058 178.115929 
L 212.376201 201.334901 
L 213.868345 218.74913 
L 215.216087 228.907431 
L 216.70823 239.065731 
L 218.152239 253.577589 
L 219.644383 263.735889 
L 221.088392 268.089447 
L 222.580535 279.698933 
L 224.072678 272.443004 
L 225.516688 269.540632 
L 227.008831 255.028775 
L 228.452841 234.712174 
L 229.944984 208.59083 
L 231.437127 189.725415 
L 232.784869 182.469486 
L 234.277012 166.506443 
L 235.721022 144.738656 
L 237.213165 134.580356 
L 238.657175 134.580356 
L 240.149318 130.226798 
L 241.641461 131.677984 
L 243.08547 130.226798 
L 244.577614 130.226798 
L 246.021623 122.97087 
L 247.513766 112.812569 
L 250.353652 96.849526 
L 251.845795 93.947154 
L 253.289804 99.751897 
L 254.781947 111.361383 
L 256.225957 120.068498 
L 257.7181 118.617312 
L 259.210243 124.422055 
L 260.654253 124.422055 
L 263.590405 127.324427 
L 265.082549 141.836285 
L 266.574692 153.445771 
L 267.970568 154.896957 
L 270.90672 169.408814 
L 272.398863 172.311186 
L 273.842873 176.664743 
L 275.335016 178.115929 
L 276.827159 165.055257 
L 279.763312 167.957628 
L 281.207322 173.762372 
L 282.699465 175.213557 
L 284.191608 179.567115 
L 285.53935 183.920672 
L 287.031493 188.274229 
L 288.475503 194.078972 
L 289.967646 194.078972 
L 291.411655 189.725415 
L 292.903799 189.725415 
L 294.395942 195.530158 
L 295.839951 196.981344 
L 297.332094 201.334901 
L 298.776104 198.43253 
L 300.268247 196.981344 
L 301.76039 201.334901 
L 303.108132 205.688458 
L 304.600276 207.139644 
L 307.536428 201.334901 
L 308.980438 196.981344 
L 310.472581 198.43253 
L 311.964724 205.688458 
L 314.900877 202.786087 
L 316.344886 208.59083 
L 317.837029 217.297945 
L 319.329173 221.651502 
L 320.676915 211.493202 
L 322.169058 201.334901 
L 323.613067 194.078972 
L 325.105211 192.627787 
L 326.54922 196.981344 
L 328.041363 199.883715 
L 329.533506 208.59083 
L 330.977516 215.846759 
L 332.469659 220.200316 
L 333.913669 210.042016 
L 335.405812 207.139644 
L 336.897955 208.59083 
L 338.293831 226.005059 
L 339.785974 231.809802 
L 341.229984 236.16336 
L 344.166136 224.553874 
L 345.658279 221.651502 
L 347.150423 208.59083 
L 348.594432 199.883715 
L 350.086575 179.567115 
L 351.530585 175.213557 
L 354.514871 131.677984 
L 355.862613 124.422055 
L 357.354756 122.97087 
L 358.798766 125.873241 
L 360.290909 134.580356 
L 361.734919 149.092213 
L 363.227062 150.543399 
L 364.719205 150.543399 
L 366.163214 147.641028 
L 367.655358 170.86 
L 369.099367 167.957628 
L 370.59151 170.86 
L 372.083653 182.469486 
L 373.431396 181.0183 
L 374.923539 181.0183 
L 376.367548 179.567115 
L 377.859691 169.408814 
L 379.303701 151.994585 
L 380.795844 149.092213 
L 382.287987 147.641028 
L 383.731997 149.092213 
L 385.22414 147.641028 
L 386.66815 159.250514 
L 388.160293 178.115929 
L 389.652436 178.115929 
L 391.000178 181.0183 
L 392.492321 181.0183 
L 393.936331 173.762372 
L 395.428474 183.920672 
L 396.872483 198.43253 
L 398.364627 199.883715 
L 399.85677 205.688458 
L 401.300779 205.688458 
L 402.792922 212.944387 
L 404.236932 208.59083 
L 405.729075 198.43253 
L 407.221218 198.43253 
L 408.617094 201.334901 
L 410.109237 220.200316 
L 411.553247 246.32166 
L 413.04539 247.772846 
L 414.489399 233.260988 
L 417.473686 224.553874 
L 418.917695 223.102688 
L 420.409838 207.139644 
L 421.853848 212.944387 
L 423.345991 207.139644 
L 426.185876 170.86 
L 427.67802 136.031542 
L 429.122029 96.849526 
L 430.614172 79.435296 
L 432.058182 67.82581 
L 432.058182 67.82581 
" style="fill:none;stroke:#009e73;stroke-linecap:square;stroke-width:1.5;"/>
   </g>
   <g id="line2d_16">
    <path clip-path="url(#p0d70f8e0dd)" d="M 73.221818 122.97087 
L 74.56956 124.422055 
L 76.061704 128.775613 
L 77.505713 128.775613 
L 80.441866 140.385099 
L 81.934009 153.445771 
L 83.426152 159.250514 
L 84.870162 170.86 
L 86.362305 186.823043 
L 87.806314 198.43253 
L 89.298457 192.627787 
L 90.790601 192.627787 
L 92.138343 196.981344 
L 93.630486 192.627787 
L 95.074495 192.627787 
L 98.010648 195.530158 
L 99.502791 189.725415 
L 100.994934 185.371858 
L 102.438944 183.920672 
L 103.931087 170.86 
L 105.375097 169.408814 
L 106.86724 163.604071 
L 108.359383 156.348142 
L 109.707125 149.092213 
L 111.199268 150.543399 
L 112.643278 163.604071 
L 114.135421 169.408814 
L 115.579431 166.506443 
L 117.071574 169.408814 
L 118.563717 166.506443 
L 121.49987 175.213557 
L 122.943879 166.506443 
L 124.436022 172.311186 
L 125.928165 182.469486 
L 127.324041 186.823043 
L 128.816184 182.469486 
L 130.260194 163.604071 
L 131.752337 149.092213 
L 133.196347 149.092213 
L 134.68849 141.836285 
L 136.180633 138.933913 
L 137.624642 137.482727 
L 139.116786 122.97087 
L 140.560795 130.226798 
L 142.052938 130.226798 
L 143.545081 122.97087 
L 146.384967 120.068498 
L 147.828976 121.519684 
L 149.321119 133.12917 
L 150.765129 124.422055 
L 153.749415 124.422055 
L 155.193425 118.617312 
L 156.685568 124.422055 
L 158.129577 124.422055 
L 159.621721 120.068498 
L 161.113864 108.459012 
L 162.461606 104.105455 
L 163.953749 107.007826 
L 165.397759 104.105455 
L 166.889902 96.849526 
L 168.333911 102.654269 
L 169.826055 99.751897 
L 171.318198 102.654269 
L 172.762207 120.068498 
L 174.25435 130.226798 
L 175.69836 127.324427 
L 177.190503 130.226798 
L 178.682646 147.641028 
L 180.030388 149.092213 
L 181.522532 153.445771 
L 182.966541 156.348142 
L 184.458684 154.896957 
L 185.902694 156.348142 
L 187.394837 162.152885 
L 188.88698 163.604071 
L 190.33099 147.641028 
L 191.823133 137.482727 
L 193.267142 121.519684 
L 194.759285 118.617312 
L 196.251429 109.910198 
L 199.139448 101.203083 
L 200.583457 96.849526 
L 202.0756 85.24004 
L 205.011753 56.216324 
L 207.947906 73.630553 
L 209.440049 95.39834 
L 210.884058 140.385099 
L 212.376201 165.055257 
L 213.868345 192.627787 
L 215.216087 211.493202 
L 216.70823 228.907431 
L 218.152239 250.675217 
L 219.644383 268.089447 
L 221.088392 276.796561 
L 222.580535 304.369091 
L 224.072678 289.857233 
L 225.516688 294.210791 
L 227.008831 278.247747 
L 228.452841 247.772846 
L 229.944984 227.456245 
L 231.437127 202.786087 
L 232.784869 191.176601 
L 234.277012 175.213557 
L 235.721022 149.092213 
L 237.213165 143.28747 
L 238.657175 141.836285 
L 240.149318 127.324427 
L 241.641461 134.580356 
L 243.08547 124.422055 
L 244.577614 125.873241 
L 246.021623 122.97087 
L 247.513766 112.812569 
L 249.005909 105.55664 
L 250.353652 95.39834 
L 251.845795 92.495968 
L 253.289804 91.044783 
L 254.781947 99.751897 
L 256.225957 104.105455 
L 257.7181 99.751897 
L 259.210243 102.654269 
L 260.654253 104.105455 
L 262.146396 104.105455 
L 263.590405 107.007826 
L 265.082549 121.519684 
L 266.574692 130.226798 
L 267.970568 131.677984 
L 269.462711 136.031542 
L 270.90672 146.189842 
L 272.398863 147.641028 
L 273.842873 156.348142 
L 275.335016 157.799328 
L 276.827159 146.189842 
L 278.271169 146.189842 
L 279.763312 149.092213 
L 281.207322 156.348142 
L 282.699465 154.896957 
L 284.191608 159.250514 
L 285.53935 166.506443 
L 287.031493 176.664743 
L 288.475503 188.274229 
L 289.967646 189.725415 
L 291.411655 182.469486 
L 292.903799 186.823043 
L 294.395942 198.43253 
L 295.839951 198.43253 
L 297.332094 202.786087 
L 298.776104 201.334901 
L 300.268247 196.981344 
L 301.76039 205.688458 
L 303.108132 210.042016 
L 304.600276 210.042016 
L 306.044285 204.237273 
L 307.536428 202.786087 
L 308.980438 199.883715 
L 310.472581 202.786087 
L 311.964724 207.139644 
L 313.408734 207.139644 
L 314.900877 204.237273 
L 316.344886 207.139644 
L 317.837029 224.553874 
L 319.329173 236.16336 
L 320.676915 226.005059 
L 322.169058 217.297945 
L 323.613067 214.395573 
L 325.105211 212.944387 
L 326.54922 215.846759 
L 328.041363 215.846759 
L 330.977516 230.358617 
L 332.469659 230.358617 
L 336.897955 226.005059 
L 338.293831 241.968103 
L 339.785974 243.419289 
L 341.229984 247.772846 
L 342.722127 239.065731 
L 344.166136 228.907431 
L 347.150423 211.493202 
L 348.594432 204.237273 
L 350.086575 191.176601 
L 351.530585 183.920672 
L 353.022728 162.152885 
L 354.514871 130.226798 
L 355.862613 122.97087 
L 357.354756 130.226798 
L 358.798766 124.422055 
L 361.734919 150.543399 
L 363.227062 157.799328 
L 364.719205 150.543399 
L 366.163214 147.641028 
L 367.655358 150.543399 
L 369.099367 146.189842 
L 370.59151 153.445771 
L 372.083653 163.604071 
L 373.431396 160.7017 
L 374.923539 156.348142 
L 376.367548 159.250514 
L 377.859691 141.836285 
L 379.303701 133.12917 
L 380.795844 122.97087 
L 382.287987 120.068498 
L 383.731997 118.617312 
L 385.22414 112.812569 
L 386.66815 125.873241 
L 388.160293 140.385099 
L 392.492321 144.738656 
L 393.936331 147.641028 
L 396.872483 175.213557 
L 398.364627 183.920672 
L 399.85677 198.43253 
L 401.300779 202.786087 
L 402.792922 214.395573 
L 404.236932 205.688458 
L 405.729075 195.530158 
L 407.221218 196.981344 
L 408.617094 205.688458 
L 410.109237 226.005059 
L 411.553247 252.126403 
L 413.04539 257.931146 
L 414.489399 239.065731 
L 415.981543 231.809802 
L 417.473686 223.102688 
L 420.409838 214.395573 
L 421.853848 214.395573 
L 423.345991 201.334901 
L 424.838134 179.567115 
L 426.185876 163.604071 
L 427.67802 121.519684 
L 429.122029 75.081739 
L 430.614172 46.058024 
L 432.058182 37.350909 
L 432.058182 37.350909 
" style="fill:none;stroke:#d55e00;stroke-linecap:square;stroke-width:1.5;"/>
   </g>
   <g id="patch_3">
    <path d="M 55.28 317.72 
L 55.28 24 
" style="fill:none;stroke:#000000;stroke-linecap:square;stroke-linejoin:miter;stroke-width:0.8;"/>
   </g>
   <g id="patch_4">
    <path d="M 450 317.72 
L 450 24 
" style="fill:none;stroke:#000000;stroke-linecap:square;stroke-linejoin:miter;stroke-width:0.8;"/>
   </g>
   <g id="patch_5">
    <path d="M 55.28 317.72 
L 450 317.72 
" style="fill:none;stroke:#000000;stroke-linecap:square;stroke-linejoin:miter;stroke-width:0.8;"/>
   </g>
   <g id="patch_6">
    <path d="M 55.28 24 
L 450 24 
" style="fill:none;stroke:#000000;stroke-linecap:square;stroke-linejoin:miter;stroke-width:0.8;"/>
   </g>
   <g id="text_15">
    <!--  Graphique 1. Inflation (PPI)  - (variation inter-annuelle - %) -->
    <g transform="translate(100.966094 18)scale(0.09 -0.09)">
     <defs>
      <path id="DejaVuSans-Bold-32"/>
      <path d="M 74.703125 5.421875 
Q 67.671875 2 60.109375 0.28125 
Q 52.546875 -1.421875 44.484375 -1.421875 
Q 26.265625 -1.421875 15.625 8.765625 
Q 4.984375 18.953125 4.984375 36.375 
Q 4.984375 54 15.8125 64.109375 
Q 26.65625 74.21875 45.515625 74.21875 
Q 52.78125 74.21875 59.4375 72.84375 
Q 66.109375 71.484375 72.015625 68.796875 
L 72.015625 53.71875 
Q 65.921875 57.171875 59.890625 58.875 
Q 53.859375 60.59375 47.796875 60.59375 
Q 36.578125 60.59375 30.5 54.3125 
Q 24.421875 48.046875 24.421875 36.375 
Q 24.421875 24.8125 30.28125 18.5 
Q 36.140625 12.203125 46.921875 12.203125 
Q 49.859375 12.203125 52.375 12.5625 
Q 54.890625 12.9375 56.890625 13.71875 
L 56.890625 27.875 
L 45.40625 27.875 
L 45.40625 40.484375 
L 74.703125 40.484375 
z
" id="DejaVuSans-Bold-71"/>
      <path d="M 49.03125 39.796875 
Q 46.734375 40.875 44.453125 41.375 
Q 42.1875 41.890625 39.890625 41.890625 
Q 33.15625 41.890625 29.515625 37.5625 
Q 25.875 33.25 25.875 25.203125 
L 25.875 0 
L 8.40625 0 
L 8.40625 54.6875 
L 25.875 54.6875 
L 25.875 45.703125 
Q 29.25 51.078125 33.609375 53.53125 
Q 37.984375 56 44.09375 56 
Q 44.96875 56 45.984375 55.921875 
Q 47.015625 55.859375 48.96875 55.609375 
z
" id="DejaVuSans-Bold-114"/>
      <path d="M 32.90625 24.609375 
Q 27.4375 24.609375 24.671875 22.75 
Q 21.921875 20.90625 21.921875 17.28125 
Q 21.921875 13.96875 24.140625 12.078125 
Q 26.375 10.203125 30.328125 10.203125 
Q 35.25 10.203125 38.625 13.734375 
Q 42 17.28125 42 22.609375 
L 42 24.609375 
z
M 59.625 31.203125 
L 59.625 0 
L 42 0 
L 42 8.109375 
Q 38.484375 3.125 34.078125 0.84375 
Q 29.6875 -1.421875 23.390625 -1.421875 
Q 14.890625 -1.421875 9.59375 3.53125 
Q 4.296875 8.5 4.296875 16.40625 
Q 4.296875 26.03125 10.90625 30.515625 
Q 17.53125 35.015625 31.6875 35.015625 
L 42 35.015625 
L 42 36.375 
Q 42 40.53125 38.71875 42.453125 
Q 35.453125 44.390625 28.515625 44.390625 
Q 22.90625 44.390625 18.0625 43.265625 
Q 13.234375 42.140625 9.078125 39.890625 
L 9.078125 53.21875 
Q 14.703125 54.59375 20.359375 55.296875 
Q 26.03125 56 31.6875 56 
Q 46.484375 56 53.046875 50.171875 
Q 59.625 44.34375 59.625 31.203125 
z
" id="DejaVuSans-Bold-97"/>
      <path d="M 25.875 7.90625 
L 25.875 -20.796875 
L 8.40625 -20.796875 
L 8.40625 54.6875 
L 25.875 54.6875 
L 25.875 46.6875 
Q 29.5 51.46875 33.890625 53.734375 
Q 38.28125 56 44 56 
Q 54.109375 56 60.59375 47.96875 
Q 67.09375 39.9375 67.09375 27.296875 
Q 67.09375 14.65625 60.59375 6.609375 
Q 54.109375 -1.421875 44 -1.421875 
Q 38.28125 -1.421875 33.890625 0.84375 
Q 29.5 3.125 25.875 7.90625 
z
M 37.5 43.3125 
Q 31.890625 43.3125 28.875 39.1875 
Q 25.875 35.0625 25.875 27.296875 
Q 25.875 19.53125 28.875 15.40625 
Q 31.890625 11.28125 37.5 11.28125 
Q 43.109375 11.28125 46.0625 15.375 
Q 49.03125 19.484375 49.03125 27.296875 
Q 49.03125 35.109375 46.0625 39.203125 
Q 43.109375 43.3125 37.5 43.3125 
z
" id="DejaVuSans-Bold-112"/>
      <path d="M 63.375 33.296875 
L 63.375 0 
L 45.796875 0 
L 45.796875 5.421875 
L 45.796875 25.390625 
Q 45.796875 32.5625 45.484375 35.25 
Q 45.171875 37.9375 44.390625 39.203125 
Q 43.359375 40.921875 41.59375 41.875 
Q 39.84375 42.828125 37.59375 42.828125 
Q 32.125 42.828125 29 38.59375 
Q 25.875 34.375 25.875 26.90625 
L 25.875 0 
L 8.40625 0 
L 8.40625 75.984375 
L 25.875 75.984375 
L 25.875 46.6875 
Q 29.828125 51.46875 34.265625 53.734375 
Q 38.71875 56 44.09375 56 
Q 53.5625 56 58.46875 50.1875 
Q 63.375 44.390625 63.375 33.296875 
z
" id="DejaVuSans-Bold-104"/>
      <path d="M 8.40625 54.6875 
L 25.875 54.6875 
L 25.875 0 
L 8.40625 0 
z
M 8.40625 75.984375 
L 25.875 75.984375 
L 25.875 61.71875 
L 8.40625 61.71875 
z
" id="DejaVuSans-Bold-105"/>
      <path d="M 34.078125 43.3125 
Q 28.515625 43.3125 25.5625 39.203125 
Q 22.609375 35.109375 22.609375 27.296875 
Q 22.609375 19.484375 25.5625 15.375 
Q 28.515625 11.28125 34.078125 11.28125 
Q 39.703125 11.28125 42.65625 15.375 
Q 45.609375 19.484375 45.609375 27.296875 
Q 45.609375 35.109375 42.65625 39.203125 
Q 39.703125 43.3125 34.078125 43.3125 
z
M 45.609375 7.90625 
Q 42 3.078125 37.640625 0.828125 
Q 33.296875 -1.421875 27.59375 -1.421875 
Q 17.484375 -1.421875 10.984375 6.609375 
Q 4.5 14.65625 4.5 27.296875 
Q 4.5 39.9375 10.984375 47.921875 
Q 17.484375 55.90625 27.59375 55.90625 
Q 33.296875 55.90625 37.640625 53.65625 
Q 42 51.421875 45.609375 46.578125 
L 45.609375 54.6875 
L 63.1875 54.6875 
L 63.1875 -20.796875 
L 45.609375 -20.796875 
z
" id="DejaVuSans-Bold-113"/>
      <path d="M 7.8125 21.296875 
L 7.8125 54.6875 
L 25.390625 54.6875 
L 25.390625 49.21875 
Q 25.390625 44.78125 25.34375 38.0625 
Q 25.296875 31.34375 25.296875 29.109375 
Q 25.296875 22.515625 25.640625 19.609375 
Q 25.984375 16.703125 26.8125 15.375 
Q 27.875 13.671875 29.609375 12.734375 
Q 31.34375 11.8125 33.59375 11.8125 
Q 39.0625 11.8125 42.1875 16.015625 
Q 45.3125 20.21875 45.3125 27.6875 
L 45.3125 54.6875 
L 62.796875 54.6875 
L 62.796875 0 
L 45.3125 0 
L 45.3125 7.90625 
Q 41.359375 3.125 36.9375 0.84375 
Q 32.515625 -1.421875 27.203125 -1.421875 
Q 17.71875 -1.421875 12.765625 4.390625 
Q 7.8125 10.203125 7.8125 21.296875 
z
" id="DejaVuSans-Bold-117"/>
      <path d="M 62.984375 27.484375 
L 62.984375 22.515625 
L 22.125 22.515625 
Q 22.75 16.359375 26.5625 13.28125 
Q 30.375 10.203125 37.203125 10.203125 
Q 42.71875 10.203125 48.5 11.84375 
Q 54.296875 13.484375 60.40625 16.796875 
L 60.40625 3.328125 
Q 54.203125 0.984375 48 -0.21875 
Q 41.796875 -1.421875 35.59375 -1.421875 
Q 20.75 -1.421875 12.515625 6.125 
Q 4.296875 13.671875 4.296875 27.296875 
Q 4.296875 40.671875 12.375 48.328125 
Q 20.453125 56 34.625 56 
Q 47.515625 56 55.25 48.234375 
Q 62.984375 40.484375 62.984375 27.484375 
z
M 45.015625 33.296875 
Q 45.015625 38.28125 42.109375 41.328125 
Q 39.203125 44.390625 34.515625 44.390625 
Q 29.4375 44.390625 26.265625 41.53125 
Q 23.09375 38.671875 22.3125 33.296875 
z
" id="DejaVuSans-Bold-101"/>
      <path d="M 11.71875 12.984375 
L 28.328125 12.984375 
L 28.328125 60.109375 
L 11.28125 56.59375 
L 11.28125 69.390625 
L 28.21875 72.90625 
L 46.09375 72.90625 
L 46.09375 12.984375 
L 62.703125 12.984375 
L 62.703125 0 
L 11.71875 0 
z
" id="DejaVuSans-Bold-49"/>
      <path d="M 10.203125 18.890625 
L 27.78125 18.890625 
L 27.78125 0 
L 10.203125 0 
z
" id="DejaVuSans-Bold-46"/>
      <path d="M 9.1875 72.90625 
L 27.984375 72.90625 
L 27.984375 0 
L 9.1875 0 
z
" id="DejaVuSans-Bold-73"/>
      <path d="M 63.375 33.296875 
L 63.375 0 
L 45.796875 0 
L 45.796875 5.421875 
L 45.796875 25.484375 
Q 45.796875 32.5625 45.484375 35.25 
Q 45.171875 37.9375 44.390625 39.203125 
Q 43.359375 40.921875 41.59375 41.875 
Q 39.84375 42.828125 37.59375 42.828125 
Q 32.125 42.828125 29 38.59375 
Q 25.875 34.375 25.875 26.90625 
L 25.875 0 
L 8.40625 0 
L 8.40625 54.6875 
L 25.875 54.6875 
L 25.875 46.6875 
Q 29.828125 51.46875 34.265625 53.734375 
Q 38.71875 56 44.09375 56 
Q 53.5625 56 58.46875 50.1875 
Q 63.375 44.390625 63.375 33.296875 
z
" id="DejaVuSans-Bold-110"/>
      <path d="M 44.390625 75.984375 
L 44.390625 64.5 
L 34.71875 64.5 
Q 31 64.5 29.53125 63.15625 
Q 28.078125 61.8125 28.078125 58.5 
L 28.078125 54.6875 
L 43.015625 54.6875 
L 43.015625 42.1875 
L 28.078125 42.1875 
L 28.078125 0 
L 10.59375 0 
L 10.59375 42.1875 
L 1.90625 42.1875 
L 1.90625 54.6875 
L 10.59375 54.6875 
L 10.59375 58.5 
Q 10.59375 67.4375 15.578125 71.703125 
Q 20.5625 75.984375 31 75.984375 
z
" id="DejaVuSans-Bold-102"/>
      <path d="M 8.40625 75.984375 
L 25.875 75.984375 
L 25.875 0 
L 8.40625 0 
z
" id="DejaVuSans-Bold-108"/>
      <path d="M 27.484375 70.21875 
L 27.484375 54.6875 
L 45.515625 54.6875 
L 45.515625 42.1875 
L 27.484375 42.1875 
L 27.484375 19 
Q 27.484375 15.1875 29 13.84375 
Q 30.515625 12.5 35.015625 12.5 
L 44 12.5 
L 44 0 
L 29 0 
Q 18.65625 0 14.328125 4.3125 
Q 10.015625 8.640625 10.015625 19 
L 10.015625 42.1875 
L 1.3125 42.1875 
L 1.3125 54.6875 
L 10.015625 54.6875 
L 10.015625 70.21875 
z
" id="DejaVuSans-Bold-116"/>
      <path d="M 34.421875 43.5 
Q 28.609375 43.5 25.5625 39.328125 
Q 22.515625 35.15625 22.515625 27.296875 
Q 22.515625 19.4375 25.5625 15.25 
Q 28.609375 11.078125 34.421875 11.078125 
Q 40.140625 11.078125 43.15625 15.25 
Q 46.1875 19.4375 46.1875 27.296875 
Q 46.1875 35.15625 43.15625 39.328125 
Q 40.140625 43.5 34.421875 43.5 
z
M 34.421875 56 
Q 48.53125 56 56.46875 48.375 
Q 64.40625 40.765625 64.40625 27.296875 
Q 64.40625 13.8125 56.46875 6.1875 
Q 48.53125 -1.421875 34.421875 -1.421875 
Q 20.265625 -1.421875 12.28125 6.1875 
Q 4.296875 13.8125 4.296875 27.296875 
Q 4.296875 40.765625 12.28125 48.375 
Q 20.265625 56 34.421875 56 
z
" id="DejaVuSans-Bold-111"/>
      <path d="M 9.1875 72.90625 
L 40.375 72.90625 
Q 54.296875 72.90625 61.734375 66.71875 
Q 69.1875 60.546875 69.1875 49.125 
Q 69.1875 37.640625 61.734375 31.46875 
Q 54.296875 25.296875 40.375 25.296875 
L 27.984375 25.296875 
L 27.984375 0 
L 9.1875 0 
z
M 27.984375 59.28125 
L 27.984375 38.921875 
L 38.375 38.921875 
Q 43.84375 38.921875 46.828125 41.578125 
Q 49.8125 44.234375 49.8125 49.125 
Q 49.8125 54 46.828125 56.640625 
Q 43.84375 59.28125 38.375 59.28125 
z
" id="DejaVuSans-Bold-80"/>
      <path d="M 5.421875 35.890625 
L 36.078125 35.890625 
L 36.078125 21.6875 
L 5.421875 21.6875 
z
" id="DejaVuSans-Bold-45"/>
      <path d="M 1.515625 54.6875 
L 19 54.6875 
L 32.625 16.890625 
L 46.1875 54.6875 
L 63.71875 54.6875 
L 42.1875 0 
L 23 0 
z
" id="DejaVuSans-Bold-118"/>
     </defs>
     <use xlink:href="#DejaVuSans-Bold-32"/>
     <use x="34.814453" xlink:href="#DejaVuSans-Bold-71"/>
     <use x="116.894531" xlink:href="#DejaVuSans-Bold-114"/>
     <use x="166.210938" xlink:href="#DejaVuSans-Bold-97"/>
     <use x="233.691406" xlink:href="#DejaVuSans-Bold-112"/>
     <use x="305.273438" xlink:href="#DejaVuSans-Bold-104"/>
     <use x="376.464844" xlink:href="#DejaVuSans-Bold-105"/>
     <use x="410.742188" xlink:href="#DejaVuSans-Bold-113"/>
     <use x="482.324219" xlink:href="#DejaVuSans-Bold-117"/>
     <use x="553.515625" xlink:href="#DejaVuSans-Bold-101"/>
     <use x="621.337891" xlink:href="#DejaVuSans-Bold-32"/>
     <use x="656.152344" xlink:href="#DejaVuSans-Bold-49"/>
     <use x="725.732422" xlink:href="#DejaVuSans-Bold-46"/>
     <use x="763.720703" xlink:href="#DejaVuSans-Bold-32"/>
     <use x="798.535156" xlink:href="#DejaVuSans-Bold-73"/>
     <use x="835.742188" xlink:href="#DejaVuSans-Bold-110"/>
     <use x="906.933594" xlink:href="#DejaVuSans-Bold-102"/>
     <use x="950.439453" xlink:href="#DejaVuSans-Bold-108"/>
     <use x="984.716797" xlink:href="#DejaVuSans-Bold-97"/>
     <use x="1052.197266" xlink:href="#DejaVuSans-Bold-116"/>
     <use x="1100" xlink:href="#DejaVuSans-Bold-105"/>
     <use x="1134.277344" xlink:href="#DejaVuSans-Bold-111"/>
     <use x="1202.978516" xlink:href="#DejaVuSans-Bold-110"/>
     <use x="1274.169922" xlink:href="#DejaVuSans-Bold-32"/>
     <use x="1308.984375" xlink:href="#DejaVuSans-Bold-40"/>
     <use x="1354.6875" xlink:href="#DejaVuSans-Bold-80"/>
     <use x="1427.978516" xlink:href="#DejaVuSans-Bold-80"/>
     <use x="1501.269531" xlink:href="#DejaVuSans-Bold-73"/>
     <use x="1538.476562" xlink:href="#DejaVuSans-Bold-41"/>
     <use x="1584.179688" xlink:href="#DejaVuSans-Bold-32"/>
     <use x="1618.994141" xlink:href="#DejaVuSans-Bold-32"/>
     <use x="1653.808594" xlink:href="#DejaVuSans-Bold-45"/>
     <use x="1695.3125" xlink:href="#DejaVuSans-Bold-32"/>
     <use x="1730.126953" xlink:href="#DejaVuSans-Bold-40"/>
     <use x="1775.830078" xlink:href="#DejaVuSans-Bold-118"/>
     <use x="1841.015625" xlink:href="#DejaVuSans-Bold-97"/>
     <use x="1908.496094" xlink:href="#DejaVuSans-Bold-114"/>
     <use x="1957.8125" xlink:href="#DejaVuSans-Bold-105"/>
     <use x="1992.089844" xlink:href="#DejaVuSans-Bold-97"/>
     <use x="2059.570312" xlink:href="#DejaVuSans-Bold-116"/>
     <use x="2107.373047" xlink:href="#DejaVuSans-Bold-105"/>
     <use x="2141.650391" xlink:href="#DejaVuSans-Bold-111"/>
     <use x="2210.351562" xlink:href="#DejaVuSans-Bold-110"/>
     <use x="2281.542969" xlink:href="#DejaVuSans-Bold-32"/>
     <use x="2316.357422" xlink:href="#DejaVuSans-Bold-105"/>
     <use x="2350.634766" xlink:href="#DejaVuSans-Bold-110"/>
     <use x="2421.826172" xlink:href="#DejaVuSans-Bold-116"/>
     <use x="2469.628906" xlink:href="#DejaVuSans-Bold-101"/>
     <use x="2537.451172" xlink:href="#DejaVuSans-Bold-114"/>
     <use x="2586.767578" xlink:href="#DejaVuSans-Bold-45"/>
     <use x="2628.271484" xlink:href="#DejaVuSans-Bold-97"/>
     <use x="2695.751953" xlink:href="#DejaVuSans-Bold-110"/>
     <use x="2766.943359" xlink:href="#DejaVuSans-Bold-110"/>
     <use x="2838.134766" xlink:href="#DejaVuSans-Bold-117"/>
     <use x="2909.326172" xlink:href="#DejaVuSans-Bold-101"/>
     <use x="2977.148438" xlink:href="#DejaVuSans-Bold-108"/>
     <use x="3011.425781" xlink:href="#DejaVuSans-Bold-108"/>
     <use x="3045.703125" xlink:href="#DejaVuSans-Bold-101"/>
     <use x="3113.525391" xlink:href="#DejaVuSans-Bold-32"/>
     <use x="3148.339844" xlink:href="#DejaVuSans-Bold-45"/>
     <use x="3189.84375" xlink:href="#DejaVuSans-Bold-32"/>
     <use x="3224.658203" xlink:href="#DejaVuSans-Bold-37"/>
     <use x="3324.853516" xlink:href="#DejaVuSans-Bold-41"/>
    </g>
   </g>
   <g id="legend_1">
    <g id="patch_7">
     <path d="M 62.28 76.834375 
L 254.169062 76.834375 
Q 256.169062 76.834375 256.169062 74.834375 
L 256.169062 31 
Q 256.169062 29 254.169062 29 
L 62.28 29 
Q 60.28 29 60.28 31 
L 60.28 74.834375 
Q 60.28 76.834375 62.28 76.834375 
z
" style="fill:#ffffff;opacity:0.8;stroke:#cccccc;stroke-linejoin:miter;"/>
    </g>
    <g id="line2d_17">
     <path d="M 64.28 37.098437 
L 84.28 37.098437 
" style="fill:none;stroke:#0072b2;stroke-linecap:square;stroke-width:1.5;"/>
    </g>
    <g id="line2d_18"/>
    <g id="text_16">
     <!-- PPI - Global -->
     <g transform="translate(92.28 40.598437)scale(0.1 -0.1)">
      <defs>
       <path d="M 19.671875 64.796875 
L 19.671875 37.40625 
L 32.078125 37.40625 
Q 38.96875 37.40625 42.71875 40.96875 
Q 46.484375 44.53125 46.484375 51.125 
Q 46.484375 57.671875 42.71875 61.234375 
Q 38.96875 64.796875 32.078125 64.796875 
z
M 9.8125 72.90625 
L 32.078125 72.90625 
Q 44.34375 72.90625 50.609375 67.359375 
Q 56.890625 61.8125 56.890625 51.125 
Q 56.890625 40.328125 50.609375 34.8125 
Q 44.34375 29.296875 32.078125 29.296875 
L 19.671875 29.296875 
L 19.671875 0 
L 9.8125 0 
z
" id="DejaVuSans-80"/>
       <path d="M 9.8125 72.90625 
L 19.671875 72.90625 
L 19.671875 0 
L 9.8125 0 
z
" id="DejaVuSans-73"/>
       <path id="DejaVuSans-32"/>
       <path d="M 4.890625 31.390625 
L 31.203125 31.390625 
L 31.203125 23.390625 
L 4.890625 23.390625 
z
" id="DejaVuSans-45"/>
       <path d="M 59.515625 10.40625 
L 59.515625 29.984375 
L 43.40625 29.984375 
L 43.40625 38.09375 
L 69.28125 38.09375 
L 69.28125 6.78125 
Q 63.578125 2.734375 56.6875 0.65625 
Q 49.8125 -1.421875 42 -1.421875 
Q 24.90625 -1.421875 15.25 8.5625 
Q 5.609375 18.5625 5.609375 36.375 
Q 5.609375 54.25 15.25 64.234375 
Q 24.90625 74.21875 42 74.21875 
Q 49.125 74.21875 55.546875 72.453125 
Q 61.96875 70.703125 67.390625 67.28125 
L 67.390625 56.78125 
Q 61.921875 61.421875 55.765625 63.765625 
Q 49.609375 66.109375 42.828125 66.109375 
Q 29.4375 66.109375 22.71875 58.640625 
Q 16.015625 51.171875 16.015625 36.375 
Q 16.015625 21.625 22.71875 14.15625 
Q 29.4375 6.6875 42.828125 6.6875 
Q 48.046875 6.6875 52.140625 7.59375 
Q 56.25 8.5 59.515625 10.40625 
z
" id="DejaVuSans-71"/>
       <path d="M 9.421875 75.984375 
L 18.40625 75.984375 
L 18.40625 0 
L 9.421875 0 
z
" id="DejaVuSans-108"/>
       <path d="M 30.609375 48.390625 
Q 23.390625 48.390625 19.1875 42.75 
Q 14.984375 37.109375 14.984375 27.296875 
Q 14.984375 17.484375 19.15625 11.84375 
Q 23.34375 6.203125 30.609375 6.203125 
Q 37.796875 6.203125 41.984375 11.859375 
Q 46.1875 17.53125 46.1875 27.296875 
Q 46.1875 37.015625 41.984375 42.703125 
Q 37.796875 48.390625 30.609375 48.390625 
z
M 30.609375 56 
Q 42.328125 56 49.015625 48.375 
Q 55.71875 40.765625 55.71875 27.296875 
Q 55.71875 13.875 49.015625 6.21875 
Q 42.328125 -1.421875 30.609375 -1.421875 
Q 18.84375 -1.421875 12.171875 6.21875 
Q 5.515625 13.875 5.515625 27.296875 
Q 5.515625 40.765625 12.171875 48.375 
Q 18.84375 56 30.609375 56 
z
" id="DejaVuSans-111"/>
       <path d="M 48.6875 27.296875 
Q 48.6875 37.203125 44.609375 42.84375 
Q 40.53125 48.484375 33.40625 48.484375 
Q 26.265625 48.484375 22.1875 42.84375 
Q 18.109375 37.203125 18.109375 27.296875 
Q 18.109375 17.390625 22.1875 11.75 
Q 26.265625 6.109375 33.40625 6.109375 
Q 40.53125 6.109375 44.609375 11.75 
Q 48.6875 17.390625 48.6875 27.296875 
z
M 18.109375 46.390625 
Q 20.953125 51.265625 25.265625 53.625 
Q 29.59375 56 35.59375 56 
Q 45.5625 56 51.78125 48.09375 
Q 58.015625 40.1875 58.015625 27.296875 
Q 58.015625 14.40625 51.78125 6.484375 
Q 45.5625 -1.421875 35.59375 -1.421875 
Q 29.59375 -1.421875 25.265625 0.953125 
Q 20.953125 3.328125 18.109375 8.203125 
L 18.109375 0 
L 9.078125 0 
L 9.078125 75.984375 
L 18.109375 75.984375 
z
" id="DejaVuSans-98"/>
       <path d="M 34.28125 27.484375 
Q 23.390625 27.484375 19.1875 25 
Q 14.984375 22.515625 14.984375 16.5 
Q 14.984375 11.71875 18.140625 8.90625 
Q 21.296875 6.109375 26.703125 6.109375 
Q 34.1875 6.109375 38.703125 11.40625 
Q 43.21875 16.703125 43.21875 25.484375 
L 43.21875 27.484375 
z
M 52.203125 31.203125 
L 52.203125 0 
L 43.21875 0 
L 43.21875 8.296875 
Q 40.140625 3.328125 35.546875 0.953125 
Q 30.953125 -1.421875 24.3125 -1.421875 
Q 15.921875 -1.421875 10.953125 3.296875 
Q 6 8.015625 6 15.921875 
Q 6 25.140625 12.171875 29.828125 
Q 18.359375 34.515625 30.609375 34.515625 
L 43.21875 34.515625 
L 43.21875 35.40625 
Q 43.21875 41.609375 39.140625 45 
Q 35.0625 48.390625 27.6875 48.390625 
Q 23 48.390625 18.546875 47.265625 
Q 14.109375 46.140625 10.015625 43.890625 
L 10.015625 52.203125 
Q 14.9375 54.109375 19.578125 55.046875 
Q 24.21875 56 28.609375 56 
Q 40.484375 56 46.34375 49.84375 
Q 52.203125 43.703125 52.203125 31.203125 
z
" id="DejaVuSans-97"/>
      </defs>
      <use xlink:href="#DejaVuSans-80"/>
      <use x="60.302734" xlink:href="#DejaVuSans-80"/>
      <use x="120.605469" xlink:href="#DejaVuSans-73"/>
      <use x="150.097656" xlink:href="#DejaVuSans-32"/>
      <use x="181.884766" xlink:href="#DejaVuSans-45"/>
      <use x="217.96875" xlink:href="#DejaVuSans-32"/>
      <use x="249.755859" xlink:href="#DejaVuSans-71"/>
      <use x="327.246094" xlink:href="#DejaVuSans-108"/>
      <use x="355.029297" xlink:href="#DejaVuSans-111"/>
      <use x="416.210938" xlink:href="#DejaVuSans-98"/>
      <use x="479.6875" xlink:href="#DejaVuSans-97"/>
      <use x="540.966797" xlink:href="#DejaVuSans-108"/>
     </g>
    </g>
    <g id="line2d_19">
     <path d="M 64.28 52.176562 
L 84.28 52.176562 
" style="fill:none;stroke:#009e73;stroke-linecap:square;stroke-width:1.5;"/>
    </g>
    <g id="line2d_20"/>
    <g id="text_17">
     <!-- PPI - Marchés non-domestiques  -->
     <g transform="translate(92.28 55.676562)scale(0.1 -0.1)">
      <defs>
       <path d="M 9.8125 72.90625 
L 24.515625 72.90625 
L 43.109375 23.296875 
L 61.8125 72.90625 
L 76.515625 72.90625 
L 76.515625 0 
L 66.890625 0 
L 66.890625 64.015625 
L 48.09375 14.015625 
L 38.1875 14.015625 
L 19.390625 64.015625 
L 19.390625 0 
L 9.8125 0 
z
" id="DejaVuSans-77"/>
       <path d="M 41.109375 46.296875 
Q 39.59375 47.171875 37.8125 47.578125 
Q 36.03125 48 33.890625 48 
Q 26.265625 48 22.1875 43.046875 
Q 18.109375 38.09375 18.109375 28.8125 
L 18.109375 0 
L 9.078125 0 
L 9.078125 54.6875 
L 18.109375 54.6875 
L 18.109375 46.1875 
Q 20.953125 51.171875 25.484375 53.578125 
Q 30.03125 56 36.53125 56 
Q 37.453125 56 38.578125 55.875 
Q 39.703125 55.765625 41.0625 55.515625 
z
" id="DejaVuSans-114"/>
       <path d="M 48.78125 52.59375 
L 48.78125 44.1875 
Q 44.96875 46.296875 41.140625 47.34375 
Q 37.3125 48.390625 33.40625 48.390625 
Q 24.65625 48.390625 19.8125 42.84375 
Q 14.984375 37.3125 14.984375 27.296875 
Q 14.984375 17.28125 19.8125 11.734375 
Q 24.65625 6.203125 33.40625 6.203125 
Q 37.3125 6.203125 41.140625 7.25 
Q 44.96875 8.296875 48.78125 10.40625 
L 48.78125 2.09375 
Q 45.015625 0.34375 40.984375 -0.53125 
Q 36.96875 -1.421875 32.421875 -1.421875 
Q 20.0625 -1.421875 12.78125 6.34375 
Q 5.515625 14.109375 5.515625 27.296875 
Q 5.515625 40.671875 12.859375 48.328125 
Q 20.21875 56 33.015625 56 
Q 37.15625 56 41.109375 55.140625 
Q 45.0625 54.296875 48.78125 52.59375 
z
" id="DejaVuSans-99"/>
       <path d="M 54.890625 33.015625 
L 54.890625 0 
L 45.90625 0 
L 45.90625 32.71875 
Q 45.90625 40.484375 42.875 44.328125 
Q 39.84375 48.1875 33.796875 48.1875 
Q 26.515625 48.1875 22.3125 43.546875 
Q 18.109375 38.921875 18.109375 30.90625 
L 18.109375 0 
L 9.078125 0 
L 9.078125 75.984375 
L 18.109375 75.984375 
L 18.109375 46.1875 
Q 21.34375 51.125 25.703125 53.5625 
Q 30.078125 56 35.796875 56 
Q 45.21875 56 50.046875 50.171875 
Q 54.890625 44.34375 54.890625 33.015625 
z
" id="DejaVuSans-104"/>
       <path d="M 56.203125 29.59375 
L 56.203125 25.203125 
L 14.890625 25.203125 
Q 15.484375 15.921875 20.484375 11.0625 
Q 25.484375 6.203125 34.421875 6.203125 
Q 39.59375 6.203125 44.453125 7.46875 
Q 49.3125 8.734375 54.109375 11.28125 
L 54.109375 2.78125 
Q 49.265625 0.734375 44.1875 -0.34375 
Q 39.109375 -1.421875 33.890625 -1.421875 
Q 20.796875 -1.421875 13.15625 6.1875 
Q 5.515625 13.8125 5.515625 26.8125 
Q 5.515625 40.234375 12.765625 48.109375 
Q 20.015625 56 32.328125 56 
Q 43.359375 56 49.78125 48.890625 
Q 56.203125 41.796875 56.203125 29.59375 
z
M 47.21875 32.234375 
Q 47.125 39.59375 43.09375 43.984375 
Q 39.0625 48.390625 32.421875 48.390625 
Q 24.90625 48.390625 20.390625 44.140625 
Q 15.875 39.890625 15.1875 32.171875 
z
M 38.53125 79.984375 
L 48.25 79.984375 
L 32.34375 61.625 
L 24.859375 61.625 
z
" id="DejaVuSans-233"/>
       <path d="M 44.28125 53.078125 
L 44.28125 44.578125 
Q 40.484375 46.53125 36.375 47.5 
Q 32.28125 48.484375 27.875 48.484375 
Q 21.1875 48.484375 17.84375 46.4375 
Q 14.5 44.390625 14.5 40.28125 
Q 14.5 37.15625 16.890625 35.375 
Q 19.28125 33.59375 26.515625 31.984375 
L 29.59375 31.296875 
Q 39.15625 29.25 43.1875 25.515625 
Q 47.21875 21.78125 47.21875 15.09375 
Q 47.21875 7.46875 41.1875 3.015625 
Q 35.15625 -1.421875 24.609375 -1.421875 
Q 20.21875 -1.421875 15.453125 -0.5625 
Q 10.6875 0.296875 5.421875 2 
L 5.421875 11.28125 
Q 10.40625 8.6875 15.234375 7.390625 
Q 20.0625 6.109375 24.8125 6.109375 
Q 31.15625 6.109375 34.5625 8.28125 
Q 37.984375 10.453125 37.984375 14.40625 
Q 37.984375 18.0625 35.515625 20.015625 
Q 33.0625 21.96875 24.703125 23.78125 
L 21.578125 24.515625 
Q 13.234375 26.265625 9.515625 29.90625 
Q 5.8125 33.546875 5.8125 39.890625 
Q 5.8125 47.609375 11.28125 51.796875 
Q 16.75 56 26.8125 56 
Q 31.78125 56 36.171875 55.265625 
Q 40.578125 54.546875 44.28125 53.078125 
z
" id="DejaVuSans-115"/>
       <path d="M 54.890625 33.015625 
L 54.890625 0 
L 45.90625 0 
L 45.90625 32.71875 
Q 45.90625 40.484375 42.875 44.328125 
Q 39.84375 48.1875 33.796875 48.1875 
Q 26.515625 48.1875 22.3125 43.546875 
Q 18.109375 38.921875 18.109375 30.90625 
L 18.109375 0 
L 9.078125 0 
L 9.078125 54.6875 
L 18.109375 54.6875 
L 18.109375 46.1875 
Q 21.34375 51.125 25.703125 53.5625 
Q 30.078125 56 35.796875 56 
Q 45.21875 56 50.046875 50.171875 
Q 54.890625 44.34375 54.890625 33.015625 
z
" id="DejaVuSans-110"/>
       <path d="M 45.40625 46.390625 
L 45.40625 75.984375 
L 54.390625 75.984375 
L 54.390625 0 
L 45.40625 0 
L 45.40625 8.203125 
Q 42.578125 3.328125 38.25 0.953125 
Q 33.9375 -1.421875 27.875 -1.421875 
Q 17.96875 -1.421875 11.734375 6.484375 
Q 5.515625 14.40625 5.515625 27.296875 
Q 5.515625 40.1875 11.734375 48.09375 
Q 17.96875 56 27.875 56 
Q 33.9375 56 38.25 53.625 
Q 42.578125 51.265625 45.40625 46.390625 
z
M 14.796875 27.296875 
Q 14.796875 17.390625 18.875 11.75 
Q 22.953125 6.109375 30.078125 6.109375 
Q 37.203125 6.109375 41.296875 11.75 
Q 45.40625 17.390625 45.40625 27.296875 
Q 45.40625 37.203125 41.296875 42.84375 
Q 37.203125 48.484375 30.078125 48.484375 
Q 22.953125 48.484375 18.875 42.84375 
Q 14.796875 37.203125 14.796875 27.296875 
z
" id="DejaVuSans-100"/>
       <path d="M 52 44.1875 
Q 55.375 50.25 60.0625 53.125 
Q 64.75 56 71.09375 56 
Q 79.640625 56 84.28125 50.015625 
Q 88.921875 44.046875 88.921875 33.015625 
L 88.921875 0 
L 79.890625 0 
L 79.890625 32.71875 
Q 79.890625 40.578125 77.09375 44.375 
Q 74.3125 48.1875 68.609375 48.1875 
Q 61.625 48.1875 57.5625 43.546875 
Q 53.515625 38.921875 53.515625 30.90625 
L 53.515625 0 
L 44.484375 0 
L 44.484375 32.71875 
Q 44.484375 40.625 41.703125 44.40625 
Q 38.921875 48.1875 33.109375 48.1875 
Q 26.21875 48.1875 22.15625 43.53125 
Q 18.109375 38.875 18.109375 30.90625 
L 18.109375 0 
L 9.078125 0 
L 9.078125 54.6875 
L 18.109375 54.6875 
L 18.109375 46.1875 
Q 21.1875 51.21875 25.484375 53.609375 
Q 29.78125 56 35.6875 56 
Q 41.65625 56 45.828125 52.96875 
Q 50 49.953125 52 44.1875 
z
" id="DejaVuSans-109"/>
       <path d="M 56.203125 29.59375 
L 56.203125 25.203125 
L 14.890625 25.203125 
Q 15.484375 15.921875 20.484375 11.0625 
Q 25.484375 6.203125 34.421875 6.203125 
Q 39.59375 6.203125 44.453125 7.46875 
Q 49.3125 8.734375 54.109375 11.28125 
L 54.109375 2.78125 
Q 49.265625 0.734375 44.1875 -0.34375 
Q 39.109375 -1.421875 33.890625 -1.421875 
Q 20.796875 -1.421875 13.15625 6.1875 
Q 5.515625 13.8125 5.515625 26.8125 
Q 5.515625 40.234375 12.765625 48.109375 
Q 20.015625 56 32.328125 56 
Q 43.359375 56 49.78125 48.890625 
Q 56.203125 41.796875 56.203125 29.59375 
z
M 47.21875 32.234375 
Q 47.125 39.59375 43.09375 43.984375 
Q 39.0625 48.390625 32.421875 48.390625 
Q 24.90625 48.390625 20.390625 44.140625 
Q 15.875 39.890625 15.1875 32.171875 
z
" id="DejaVuSans-101"/>
       <path d="M 18.3125 70.21875 
L 18.3125 54.6875 
L 36.8125 54.6875 
L 36.8125 47.703125 
L 18.3125 47.703125 
L 18.3125 18.015625 
Q 18.3125 11.328125 20.140625 9.421875 
Q 21.96875 7.515625 27.59375 7.515625 
L 36.8125 7.515625 
L 36.8125 0 
L 27.59375 0 
Q 17.1875 0 13.234375 3.875 
Q 9.28125 7.765625 9.28125 18.015625 
L 9.28125 47.703125 
L 2.6875 47.703125 
L 2.6875 54.6875 
L 9.28125 54.6875 
L 9.28125 70.21875 
z
" id="DejaVuSans-116"/>
       <path d="M 9.421875 54.6875 
L 18.40625 54.6875 
L 18.40625 0 
L 9.421875 0 
z
M 9.421875 75.984375 
L 18.40625 75.984375 
L 18.40625 64.59375 
L 9.421875 64.59375 
z
" id="DejaVuSans-105"/>
       <path d="M 14.796875 27.296875 
Q 14.796875 17.390625 18.875 11.75 
Q 22.953125 6.109375 30.078125 6.109375 
Q 37.203125 6.109375 41.296875 11.75 
Q 45.40625 17.390625 45.40625 27.296875 
Q 45.40625 37.203125 41.296875 42.84375 
Q 37.203125 48.484375 30.078125 48.484375 
Q 22.953125 48.484375 18.875 42.84375 
Q 14.796875 37.203125 14.796875 27.296875 
z
M 45.40625 8.203125 
Q 42.578125 3.328125 38.25 0.953125 
Q 33.9375 -1.421875 27.875 -1.421875 
Q 17.96875 -1.421875 11.734375 6.484375 
Q 5.515625 14.40625 5.515625 27.296875 
Q 5.515625 40.1875 11.734375 48.09375 
Q 17.96875 56 27.875 56 
Q 33.9375 56 38.25 53.625 
Q 42.578125 51.265625 45.40625 46.390625 
L 45.40625 54.6875 
L 54.390625 54.6875 
L 54.390625 -20.796875 
L 45.40625 -20.796875 
z
" id="DejaVuSans-113"/>
       <path d="M 8.5 21.578125 
L 8.5 54.6875 
L 17.484375 54.6875 
L 17.484375 21.921875 
Q 17.484375 14.15625 20.5 10.265625 
Q 23.53125 6.390625 29.59375 6.390625 
Q 36.859375 6.390625 41.078125 11.03125 
Q 45.3125 15.671875 45.3125 23.6875 
L 45.3125 54.6875 
L 54.296875 54.6875 
L 54.296875 0 
L 45.3125 0 
L 45.3125 8.40625 
Q 42.046875 3.421875 37.71875 1 
Q 33.40625 -1.421875 27.6875 -1.421875 
Q 18.265625 -1.421875 13.375 4.4375 
Q 8.5 10.296875 8.5 21.578125 
z
M 31.109375 56 
z
" id="DejaVuSans-117"/>
      </defs>
      <use xlink:href="#DejaVuSans-80"/>
      <use x="60.302734" xlink:href="#DejaVuSans-80"/>
      <use x="120.605469" xlink:href="#DejaVuSans-73"/>
      <use x="150.097656" xlink:href="#DejaVuSans-32"/>
      <use x="181.884766" xlink:href="#DejaVuSans-45"/>
      <use x="217.96875" xlink:href="#DejaVuSans-32"/>
      <use x="249.755859" xlink:href="#DejaVuSans-77"/>
      <use x="336.035156" xlink:href="#DejaVuSans-97"/>
      <use x="397.314453" xlink:href="#DejaVuSans-114"/>
      <use x="436.177734" xlink:href="#DejaVuSans-99"/>
      <use x="491.158203" xlink:href="#DejaVuSans-104"/>
      <use x="554.537109" xlink:href="#DejaVuSans-233"/>
      <use x="616.060547" xlink:href="#DejaVuSans-115"/>
      <use x="668.160156" xlink:href="#DejaVuSans-32"/>
      <use x="699.947266" xlink:href="#DejaVuSans-110"/>
      <use x="763.326172" xlink:href="#DejaVuSans-111"/>
      <use x="824.507812" xlink:href="#DejaVuSans-110"/>
      <use x="887.886719" xlink:href="#DejaVuSans-45"/>
      <use x="923.970703" xlink:href="#DejaVuSans-100"/>
      <use x="987.447266" xlink:href="#DejaVuSans-111"/>
      <use x="1048.628906" xlink:href="#DejaVuSans-109"/>
      <use x="1146.041016" xlink:href="#DejaVuSans-101"/>
      <use x="1207.564453" xlink:href="#DejaVuSans-115"/>
      <use x="1259.664062" xlink:href="#DejaVuSans-116"/>
      <use x="1298.873047" xlink:href="#DejaVuSans-105"/>
      <use x="1326.65625" xlink:href="#DejaVuSans-113"/>
      <use x="1390.132812" xlink:href="#DejaVuSans-117"/>
      <use x="1453.511719" xlink:href="#DejaVuSans-101"/>
      <use x="1515.035156" xlink:href="#DejaVuSans-115"/>
      <use x="1567.134766" xlink:href="#DejaVuSans-32"/>
     </g>
    </g>
    <g id="line2d_21">
     <path d="M 64.28 67.254687 
L 84.28 67.254687 
" style="fill:none;stroke:#d55e00;stroke-linecap:square;stroke-width:1.5;"/>
    </g>
    <g id="line2d_22"/>
    <g id="text_18">
     <!-- PPI - Marchés domestiques -->
     <g transform="translate(92.28 70.754687)scale(0.1 -0.1)">
      <use xlink:href="#DejaVuSans-80"/>
      <use x="60.302734" xlink:href="#DejaVuSans-80"/>
      <use x="120.605469" xlink:href="#DejaVuSans-73"/>
      <use x="150.097656" xlink:href="#DejaVuSans-32"/>
      <use x="181.884766" xlink:href="#DejaVuSans-45"/>
      <use x="217.96875" xlink:href="#DejaVuSans-32"/>
      <use x="249.755859" xlink:href="#DejaVuSans-77"/>
      <use x="336.035156" xlink:href="#DejaVuSans-97"/>
      <use x="397.314453" xlink:href="#DejaVuSans-114"/>
      <use x="436.177734" xlink:href="#DejaVuSans-99"/>
      <use x="491.158203" xlink:href="#DejaVuSans-104"/>
      <use x="554.537109" xlink:href="#DejaVuSans-233"/>
      <use x="616.060547" xlink:href="#DejaVuSans-115"/>
      <use x="668.160156" xlink:href="#DejaVuSans-32"/>
      <use x="699.947266" xlink:href="#DejaVuSans-100"/>
      <use x="763.423828" xlink:href="#DejaVuSans-111"/>
      <use x="824.605469" xlink:href="#DejaVuSans-109"/>
      <use x="922.017578" xlink:href="#DejaVuSans-101"/>
      <use x="983.541016" xlink:href="#DejaVuSans-115"/>
      <use x="1035.640625" xlink:href="#DejaVuSans-116"/>
      <use x="1074.849609" xlink:href="#DejaVuSans-105"/>
      <use x="1102.632812" xlink:href="#DejaVuSans-113"/>
      <use x="1166.109375" xlink:href="#DejaVuSans-117"/>
      <use x="1229.488281" xlink:href="#DejaVuSans-101"/>
      <use x="1291.011719" xlink:href="#DejaVuSans-115"/>
     </g>
    </g>
   </g>
  </g>
 </g>
 <defs>
  <clipPath id="p0d70f8e0dd">
   <rect height="293.72" width="394.72" x="55.28" y="24"/>
  </clipPath>
 </defs>
</svg>
