<?xml version="1.0" encoding="utf-8" standalone="no"?>
<!DOCTYPE svg PUBLIC "-//W3C//DTD SVG 1.1//EN"
  "http://www.w3.org/Graphics/SVG/1.1/DTD/svg11.dtd">
<!-- Created with matplotlib (https://matplotlib.org/) -->
<svg height="345.6pt" version="1.1" viewBox="0 0 460.8 345.6" width="460.8pt" xmlns="http://www.w3.org/2000/svg" xmlns:xlink="http://www.w3.org/1999/xlink">
 <metadata>
  <rdf:RDF xmlns:cc="http://creativecommons.org/ns#" xmlns:dc="http://purl.org/dc/elements/1.1/" xmlns:rdf="http://www.w3.org/1999/02/22-rdf-syntax-ns#">
   <cc:Work>
    <dc:type rdf:resource="http://purl.org/dc/dcmitype/StillImage"/>
    <dc:date>2021-08-19T12:25:35.891282</dc:date>
    <dc:format>image/svg+xml</dc:format>
    <dc:creator>
     <cc:Agent>
      <dc:title>Matplotlib v3.3.4, https://matplotlib.org/</dc:title>
     </cc:Agent>
    </dc:creator>
   </cc:Work>
  </rdf:RDF>
 </metadata>
 <defs>
  <style type="text/css">*{stroke-linecap:butt;stroke-linejoin:round;}</style>
 </defs>
 <g id="figure_1">
  <g id="patch_1">
   <path d="M 0 345.6 
L 460.8 345.6 
L 460.8 0 
L 0 0 
z
" style="fill:#ffffff;"/>
  </g>
  <g id="axes_1">
   <g id="patch_2">
    <path d="M 55.28 317.72 
L 450 317.72 
L 450 24 
L 55.28 24 
z
" style="fill:#ffffff;"/>
   </g>
   <g id="patch_3">
    <path clip-path="url(#pba05fece48)" d="M 73.221818 235.506376 
L 85.595486 235.506376 
L 85.595486 37.350909 
L 73.221818 37.350909 
z
" style="fill:#0072b2;"/>
   </g>
   <g id="patch_4">
    <path clip-path="url(#pba05fece48)" d="M 97.969154 235.506376 
L 110.342821 235.506376 
L 110.342821 105.467719 
L 97.969154 105.467719 
z
" style="fill:#0072b2;"/>
   </g>
   <g id="patch_5">
    <path clip-path="url(#pba05fece48)" d="M 122.716489 235.506376 
L 135.090157 235.506376 
L 135.090157 118.739642 
L 122.716489 118.739642 
z
" style="fill:#0072b2;"/>
   </g>
   <g id="patch_6">
    <path clip-path="url(#pba05fece48)" d="M 0 0 
z
" style="fill:#0072b2;"/>
   </g>
   <g id="patch_7">
    <path clip-path="url(#pba05fece48)" d="M 172.21116 235.506376 
L 184.584828 235.506376 
L 184.584828 139.979385 
L 172.21116 139.979385 
z
" style="fill:#0072b2;"/>
   </g>
   <g id="patch_8">
    <path clip-path="url(#pba05fece48)" d="M 196.958495 235.506376 
L 209.332163 235.506376 
L 209.332163 143.270864 
L 196.958495 143.270864 
z
" style="fill:#0072b2;"/>
   </g>
   <g id="patch_9">
    <path clip-path="url(#pba05fece48)" d="M 221.705831 235.506376 
L 234.079498 235.506376 
L 234.079498 145.327125 
L 221.705831 145.327125 
z
" style="fill:#0072b2;"/>
   </g>
   <g id="patch_10">
    <path clip-path="url(#pba05fece48)" d="M 246.453166 235.506376 
L 258.826834 235.506376 
L 258.826834 150.679159 
L 246.453166 150.679159 
z
" style="fill:#0072b2;"/>
   </g>
   <g id="patch_11">
    <path clip-path="url(#pba05fece48)" d="M 271.200502 235.506376 
L 283.574169 235.506376 
L 283.574169 159.200856 
L 271.200502 159.200856 
z
" style="fill:#0072b2;"/>
   </g>
   <g id="patch_12">
    <path clip-path="url(#pba05fece48)" d="M 0 0 
z
" style="fill:#0072b2;"/>
   </g>
   <g id="patch_13">
    <path clip-path="url(#pba05fece48)" d="M 147.463824 235.506376 
L 159.837492 235.506376 
L 159.837492 168.347004 
L 147.463824 168.347004 
z
" style="fill:#0072b2;"/>
   </g>
   <g id="patch_14">
    <path clip-path="url(#pba05fece48)" d="M 0 0 
z
" style="fill:#0072b2;"/>
   </g>
   <g id="patch_15">
    <path clip-path="url(#pba05fece48)" d="M 345.442508 235.506376 
L 357.816176 235.506376 
L 357.816176 198.156407 
L 345.442508 198.156407 
z
" style="fill:#0072b2;"/>
   </g>
   <g id="patch_16">
    <path clip-path="url(#pba05fece48)" d="M 370.189843 235.506376 
L 382.563511 235.506376 
L 382.563511 214.282461 
L 370.189843 214.282461 
z
" style="fill:#0072b2;"/>
   </g>
   <g id="patch_17">
    <path clip-path="url(#pba05fece48)" d="M 394.937179 235.506376 
L 407.310846 235.506376 
L 407.310846 225.823051 
L 394.937179 225.823051 
z
" style="fill:#0072b2;"/>
   </g>
   <g id="patch_18">
    <path clip-path="url(#pba05fece48)" d="M 419.684514 235.506376 
L 432.058182 235.506376 
L 432.058182 304.369091 
L 419.684514 304.369091 
z
" style="fill:#0072b2;"/>
   </g>
   <g id="patch_19">
    <path clip-path="url(#pba05fece48)" d="M 0 0 
z
" style="fill:#009e73;"/>
   </g>
   <g id="patch_20">
    <path clip-path="url(#pba05fece48)" d="M 0 0 
z
" style="fill:#009e73;"/>
   </g>
   <g id="patch_21">
    <path clip-path="url(#pba05fece48)" d="M 0 0 
z
" style="fill:#009e73;"/>
   </g>
   <g id="patch_22">
    <path clip-path="url(#pba05fece48)" d="M 0 0 
z
" style="fill:#009e73;"/>
   </g>
   <g id="patch_23">
    <path clip-path="url(#pba05fece48)" d="M 0 0 
z
" style="fill:#009e73;"/>
   </g>
   <g id="patch_24">
    <path clip-path="url(#pba05fece48)" d="M 0 0 
z
" style="fill:#009e73;"/>
   </g>
   <g id="patch_25">
    <path clip-path="url(#pba05fece48)" d="M 0 0 
z
" style="fill:#009e73;"/>
   </g>
   <g id="patch_26">
    <path clip-path="url(#pba05fece48)" d="M 0 0 
z
" style="fill:#009e73;"/>
   </g>
   <g id="patch_27">
    <path clip-path="url(#pba05fece48)" d="M 0 0 
z
" style="fill:#009e73;"/>
   </g>
   <g id="patch_28">
    <path clip-path="url(#pba05fece48)" d="M 295.947837 235.506376 
L 308.321505 235.506376 
L 308.321505 159.552835 
L 295.947837 159.552835 
z
" style="fill:#009e73;"/>
   </g>
   <g id="patch_29">
    <path clip-path="url(#pba05fece48)" d="M 0 0 
z
" style="fill:#009e73;"/>
   </g>
   <g id="patch_30">
    <path clip-path="url(#pba05fece48)" d="M 0 0 
z
" style="fill:#009e73;"/>
   </g>
   <g id="patch_31">
    <path clip-path="url(#pba05fece48)" d="M 0 0 
z
" style="fill:#009e73;"/>
   </g>
   <g id="patch_32">
    <path clip-path="url(#pba05fece48)" d="M 0 0 
z
" style="fill:#009e73;"/>
   </g>
   <g id="patch_33">
    <path clip-path="url(#pba05fece48)" d="M 0 0 
z
" style="fill:#009e73;"/>
   </g>
   <g id="patch_34">
    <path clip-path="url(#pba05fece48)" d="M 0 0 
z
" style="fill:#009e73;"/>
   </g>
   <g id="patch_35">
    <path clip-path="url(#pba05fece48)" d="M 0 0 
z
" style="fill:#d55e00;"/>
   </g>
   <g id="patch_36">
    <path clip-path="url(#pba05fece48)" d="M 0 0 
z
" style="fill:#d55e00;"/>
   </g>
   <g id="patch_37">
    <path clip-path="url(#pba05fece48)" d="M 0 0 
z
" style="fill:#d55e00;"/>
   </g>
   <g id="patch_38">
    <path clip-path="url(#pba05fece48)" d="M 147.463824 235.506376 
L 159.837492 235.506376 
L 159.837492 125.475349 
L 147.463824 125.475349 
z
" style="fill:#d55e00;"/>
   </g>
   <g id="patch_39">
    <path clip-path="url(#pba05fece48)" d="M 0 0 
z
" style="fill:#d55e00;"/>
   </g>
   <g id="patch_40">
    <path clip-path="url(#pba05fece48)" d="M 0 0 
z
" style="fill:#d55e00;"/>
   </g>
   <g id="patch_41">
    <path clip-path="url(#pba05fece48)" d="M 0 0 
z
" style="fill:#d55e00;"/>
   </g>
   <g id="patch_42">
    <path clip-path="url(#pba05fece48)" d="M 0 0 
z
" style="fill:#d55e00;"/>
   </g>
   <g id="patch_43">
    <path clip-path="url(#pba05fece48)" d="M 0 0 
z
" style="fill:#d55e00;"/>
   </g>
   <g id="patch_44">
    <path clip-path="url(#pba05fece48)" d="M 0 0 
z
" style="fill:#d55e00;"/>
   </g>
   <g id="patch_45">
    <path clip-path="url(#pba05fece48)" d="M 0 0 
z
" style="fill:#d55e00;"/>
   </g>
   <g id="patch_46">
    <path clip-path="url(#pba05fece48)" d="M 320.695172 235.506376 
L 333.06884 235.506376 
L 333.06884 170.299841 
L 320.695172 170.299841 
z
" style="fill:#d55e00;"/>
   </g>
   <g id="patch_47">
    <path clip-path="url(#pba05fece48)" d="M 345.442508 235.506376 
L 357.816176 235.506376 
L 357.816176 198.156407 
L 345.442508 198.156407 
z
" style="fill:#d55e00;"/>
   </g>
   <g id="patch_48">
    <path clip-path="url(#pba05fece48)" d="M 0 0 
z
" style="fill:#d55e00;"/>
   </g>
   <g id="patch_49">
    <path clip-path="url(#pba05fece48)" d="M 394.937179 235.506376 
L 407.310846 235.506376 
L 407.310846 225.823051 
L 394.937179 225.823051 
z
" style="fill:#d55e00;"/>
   </g>
   <g id="patch_50">
    <path clip-path="url(#pba05fece48)" d="M 0 0 
z
" style="fill:#d55e00;"/>
   </g>
   <g id="patch_51">
    <path clip-path="url(#pba05fece48)" d="M 0 0 
z
" style="fill:#cc79a7;"/>
   </g>
   <g id="patch_52">
    <path clip-path="url(#pba05fece48)" d="M 0 0 
z
" style="fill:#cc79a7;"/>
   </g>
   <g id="patch_53">
    <path clip-path="url(#pba05fece48)" d="M 0 0 
z
" style="fill:#cc79a7;"/>
   </g>
   <g id="patch_54">
    <path clip-path="url(#pba05fece48)" d="M 0 0 
z
" style="fill:#cc79a7;"/>
   </g>
   <g id="patch_55">
    <path clip-path="url(#pba05fece48)" d="M 0 0 
z
" style="fill:#cc79a7;"/>
   </g>
   <g id="patch_56">
    <path clip-path="url(#pba05fece48)" d="M 0 0 
z
" style="fill:#cc79a7;"/>
   </g>
   <g id="patch_57">
    <path clip-path="url(#pba05fece48)" d="M 0 0 
z
" style="fill:#cc79a7;"/>
   </g>
   <g id="patch_58">
    <path clip-path="url(#pba05fece48)" d="M 0 0 
z
" style="fill:#cc79a7;"/>
   </g>
   <g id="patch_59">
    <path clip-path="url(#pba05fece48)" d="M 271.200502 235.506376 
L 283.574169 235.506376 
L 283.574169 159.200856 
L 271.200502 159.200856 
z
" style="fill:#cc79a7;"/>
   </g>
   <g id="patch_60">
    <path clip-path="url(#pba05fece48)" d="M 0 0 
z
" style="fill:#cc79a7;"/>
   </g>
   <g id="patch_61">
    <path clip-path="url(#pba05fece48)" d="M 0 0 
z
" style="fill:#cc79a7;"/>
   </g>
   <g id="patch_62">
    <path clip-path="url(#pba05fece48)" d="M 0 0 
z
" style="fill:#cc79a7;"/>
   </g>
   <g id="patch_63">
    <path clip-path="url(#pba05fece48)" d="M 0 0 
z
" style="fill:#cc79a7;"/>
   </g>
   <g id="patch_64">
    <path clip-path="url(#pba05fece48)" d="M 0 0 
z
" style="fill:#cc79a7;"/>
   </g>
   <g id="patch_65">
    <path clip-path="url(#pba05fece48)" d="M 0 0 
z
" style="fill:#cc79a7;"/>
   </g>
   <g id="patch_66">
    <path clip-path="url(#pba05fece48)" d="M 0 0 
z
" style="fill:#cc79a7;"/>
   </g>
   <g id="matplotlib.axis_1">
    <g id="xtick_1">
     <g id="line2d_1">
      <defs>
       <path d="M 0 0 
L 0 3.5 
" id="mb50aaa2795" style="stroke:#000000;stroke-width:0.8;"/>
      </defs>
      <g>
       <use style="stroke:#000000;stroke-width:0.8;" x="79.408652" xlink:href="#mb50aaa2795" y="317.72"/>
      </g>
     </g>
     <g id="text_1">
      <!-- LV -->
      <g transform="translate(77.360252 338.092052)rotate(-45)scale(0.1 -0.1)">
       <defs>
        <path d="M 9.8125 72.90625 
L 19.671875 72.90625 
L 19.671875 8.296875 
L 55.171875 8.296875 
L 55.171875 0 
L 9.8125 0 
z
" id="DejaVuSans-76"/>
        <path d="M 28.609375 0 
L 0.78125 72.90625 
L 11.078125 72.90625 
L 34.1875 11.53125 
L 57.328125 72.90625 
L 67.578125 72.90625 
L 39.796875 0 
z
" id="DejaVuSans-86"/>
       </defs>
       <use xlink:href="#DejaVuSans-76"/>
       <use x="44.712891" xlink:href="#DejaVuSans-86"/>
      </g>
     </g>
    </g>
    <g id="xtick_2">
     <g id="line2d_2">
      <g>
       <use style="stroke:#000000;stroke-width:0.8;" x="104.155987" xlink:href="#mb50aaa2795" y="317.72"/>
      </g>
     </g>
     <g id="text_2">
      <!-- BE -->
      <g transform="translate(101.447437 339.412353)rotate(-45)scale(0.1 -0.1)">
       <defs>
        <path d="M 19.671875 34.8125 
L 19.671875 8.109375 
L 35.5 8.109375 
Q 43.453125 8.109375 47.28125 11.40625 
Q 51.125 14.703125 51.125 21.484375 
Q 51.125 28.328125 47.28125 31.5625 
Q 43.453125 34.8125 35.5 34.8125 
z
M 19.671875 64.796875 
L 19.671875 42.828125 
L 34.28125 42.828125 
Q 41.5 42.828125 45.03125 45.53125 
Q 48.578125 48.25 48.578125 53.8125 
Q 48.578125 59.328125 45.03125 62.0625 
Q 41.5 64.796875 34.28125 64.796875 
z
M 9.8125 72.90625 
L 35.015625 72.90625 
Q 46.296875 72.90625 52.390625 68.21875 
Q 58.5 63.53125 58.5 54.890625 
Q 58.5 48.1875 55.375 44.234375 
Q 52.25 40.28125 46.1875 39.3125 
Q 53.46875 37.75 57.5 32.78125 
Q 61.53125 27.828125 61.53125 20.40625 
Q 61.53125 10.640625 54.890625 5.3125 
Q 48.25 0 35.984375 0 
L 9.8125 0 
z
" id="DejaVuSans-66"/>
        <path d="M 9.8125 72.90625 
L 55.90625 72.90625 
L 55.90625 64.59375 
L 19.671875 64.59375 
L 19.671875 43.015625 
L 54.390625 43.015625 
L 54.390625 34.71875 
L 19.671875 34.71875 
L 19.671875 8.296875 
L 56.78125 8.296875 
L 56.78125 0 
L 9.8125 0 
z
" id="DejaVuSans-69"/>
       </defs>
       <use xlink:href="#DejaVuSans-66"/>
       <use x="68.603516" xlink:href="#DejaVuSans-69"/>
      </g>
     </g>
    </g>
    <g id="xtick_3">
     <g id="line2d_3">
      <g>
       <use style="stroke:#000000;stroke-width:0.8;" x="128.903323" xlink:href="#mb50aaa2795" y="317.72"/>
      </g>
     </g>
     <g id="text_3">
      <!-- FR -->
      <g transform="translate(126.364368 339.073163)rotate(-45)scale(0.1 -0.1)">
       <defs>
        <path d="M 9.8125 72.90625 
L 51.703125 72.90625 
L 51.703125 64.59375 
L 19.671875 64.59375 
L 19.671875 43.109375 
L 48.578125 43.109375 
L 48.578125 34.8125 
L 19.671875 34.8125 
L 19.671875 0 
L 9.8125 0 
z
" id="DejaVuSans-70"/>
        <path d="M 44.390625 34.1875 
Q 47.5625 33.109375 50.5625 29.59375 
Q 53.5625 26.078125 56.59375 19.921875 
L 66.609375 0 
L 56 0 
L 46.6875 18.703125 
Q 43.0625 26.03125 39.671875 28.421875 
Q 36.28125 30.8125 30.421875 30.8125 
L 19.671875 30.8125 
L 19.671875 0 
L 9.8125 0 
L 9.8125 72.90625 
L 32.078125 72.90625 
Q 44.578125 72.90625 50.734375 67.671875 
Q 56.890625 62.453125 56.890625 51.90625 
Q 56.890625 45.015625 53.6875 40.46875 
Q 50.484375 35.9375 44.390625 34.1875 
z
M 19.671875 64.796875 
L 19.671875 38.921875 
L 32.078125 38.921875 
Q 39.203125 38.921875 42.84375 42.21875 
Q 46.484375 45.515625 46.484375 51.90625 
Q 46.484375 58.296875 42.84375 61.546875 
Q 39.203125 64.796875 32.078125 64.796875 
z
" id="DejaVuSans-82"/>
       </defs>
       <use xlink:href="#DejaVuSans-70"/>
       <use x="57.519531" xlink:href="#DejaVuSans-82"/>
      </g>
     </g>
    </g>
    <g id="xtick_4">
     <g id="line2d_4">
      <g>
       <use style="stroke:#000000;stroke-width:0.8;" x="153.650658" xlink:href="#mb50aaa2795" y="317.72"/>
      </g>
     </g>
     <g id="text_4">
      <!-- ES -->
      <g transform="translate(151.123304 339.049961)rotate(-45)scale(0.1 -0.1)">
       <defs>
        <path d="M 53.515625 70.515625 
L 53.515625 60.890625 
Q 47.90625 63.578125 42.921875 64.890625 
Q 37.9375 66.21875 33.296875 66.21875 
Q 25.25 66.21875 20.875 63.09375 
Q 16.5 59.96875 16.5 54.203125 
Q 16.5 49.359375 19.40625 46.890625 
Q 22.3125 44.4375 30.421875 42.921875 
L 36.375 41.703125 
Q 47.40625 39.59375 52.65625 34.296875 
Q 57.90625 29 57.90625 20.125 
Q 57.90625 9.515625 50.796875 4.046875 
Q 43.703125 -1.421875 29.984375 -1.421875 
Q 24.8125 -1.421875 18.96875 -0.25 
Q 13.140625 0.921875 6.890625 3.21875 
L 6.890625 13.375 
Q 12.890625 10.015625 18.65625 8.296875 
Q 24.421875 6.59375 29.984375 6.59375 
Q 38.421875 6.59375 43.015625 9.90625 
Q 47.609375 13.234375 47.609375 19.390625 
Q 47.609375 24.75 44.3125 27.78125 
Q 41.015625 30.8125 33.5 32.328125 
L 27.484375 33.5 
Q 16.453125 35.6875 11.515625 40.375 
Q 6.59375 45.0625 6.59375 53.421875 
Q 6.59375 63.09375 13.40625 68.65625 
Q 20.21875 74.21875 32.171875 74.21875 
Q 37.3125 74.21875 42.625 73.28125 
Q 47.953125 72.359375 53.515625 70.515625 
z
" id="DejaVuSans-83"/>
       </defs>
       <use xlink:href="#DejaVuSans-69"/>
       <use x="63.183594" xlink:href="#DejaVuSans-83"/>
      </g>
     </g>
    </g>
    <g id="xtick_5">
     <g id="line2d_5">
      <g>
       <use style="stroke:#000000;stroke-width:0.8;" x="178.397994" xlink:href="#mb50aaa2795" y="317.72"/>
      </g>
     </g>
     <g id="text_5">
      <!-- LU  -->
      <g transform="translate(174.844782 341.101675)rotate(-45)scale(0.1 -0.1)">
       <defs>
        <path d="M 8.6875 72.90625 
L 18.609375 72.90625 
L 18.609375 28.609375 
Q 18.609375 16.890625 22.84375 11.734375 
Q 27.09375 6.59375 36.625 6.59375 
Q 46.09375 6.59375 50.34375 11.734375 
Q 54.59375 16.890625 54.59375 28.609375 
L 54.59375 72.90625 
L 64.5 72.90625 
L 64.5 27.390625 
Q 64.5 13.140625 57.4375 5.859375 
Q 50.390625 -1.421875 36.625 -1.421875 
Q 22.796875 -1.421875 15.734375 5.859375 
Q 8.6875 13.140625 8.6875 27.390625 
z
" id="DejaVuSans-85"/>
        <path id="DejaVuSans-32"/>
       </defs>
       <use xlink:href="#DejaVuSans-76"/>
       <use x="50.712891" xlink:href="#DejaVuSans-85"/>
       <use x="123.90625" xlink:href="#DejaVuSans-32"/>
      </g>
     </g>
    </g>
    <g id="xtick_6">
     <g id="line2d_6">
      <g>
       <use style="stroke:#000000;stroke-width:0.8;" x="203.145329" xlink:href="#mb50aaa2795" y="317.72"/>
      </g>
     </g>
     <g id="text_6">
      <!-- NL  -->
      <g transform="translate(199.357888 341.570134)rotate(-45)scale(0.1 -0.1)">
       <defs>
        <path d="M 9.8125 72.90625 
L 23.09375 72.90625 
L 55.421875 11.921875 
L 55.421875 72.90625 
L 64.984375 72.90625 
L 64.984375 0 
L 51.703125 0 
L 19.390625 60.984375 
L 19.390625 0 
L 9.8125 0 
z
" id="DejaVuSans-78"/>
       </defs>
       <use xlink:href="#DejaVuSans-78"/>
       <use x="74.804688" xlink:href="#DejaVuSans-76"/>
       <use x="130.517578" xlink:href="#DejaVuSans-32"/>
      </g>
     </g>
    </g>
    <g id="xtick_7">
     <g id="line2d_7">
      <g>
       <use style="stroke:#000000;stroke-width:0.8;" x="227.892665" xlink:href="#mb50aaa2795" y="317.72"/>
      </g>
     </g>
     <g id="text_7">
      <!-- AT -->
      <g transform="translate(225.539877 338.700827)rotate(-45)scale(0.1 -0.1)">
       <defs>
        <path d="M 34.1875 63.1875 
L 20.796875 26.90625 
L 47.609375 26.90625 
z
M 28.609375 72.90625 
L 39.796875 72.90625 
L 67.578125 0 
L 57.328125 0 
L 50.6875 18.703125 
L 17.828125 18.703125 
L 11.1875 0 
L 0.78125 0 
z
" id="DejaVuSans-65"/>
        <path d="M -0.296875 72.90625 
L 61.375 72.90625 
L 61.375 64.59375 
L 35.5 64.59375 
L 35.5 0 
L 25.59375 0 
L 25.59375 64.59375 
L -0.296875 64.59375 
z
" id="DejaVuSans-84"/>
       </defs>
       <use xlink:href="#DejaVuSans-65"/>
       <use x="60.658203" xlink:href="#DejaVuSans-84"/>
      </g>
     </g>
    </g>
    <g id="xtick_8">
     <g id="line2d_8">
      <g>
       <use style="stroke:#000000;stroke-width:0.8;" x="252.64" xlink:href="#mb50aaa2795" y="317.72"/>
      </g>
     </g>
     <g id="text_8">
      <!-- MT  -->
      <g transform="translate(248.257595 342.760062)rotate(-45)scale(0.1 -0.1)">
       <defs>
        <path d="M 9.8125 72.90625 
L 24.515625 72.90625 
L 43.109375 23.296875 
L 61.8125 72.90625 
L 76.515625 72.90625 
L 76.515625 0 
L 66.890625 0 
L 66.890625 64.015625 
L 48.09375 14.015625 
L 38.1875 14.015625 
L 19.390625 64.015625 
L 19.390625 0 
L 9.8125 0 
z
" id="DejaVuSans-77"/>
       </defs>
       <use xlink:href="#DejaVuSans-77"/>
       <use x="86.279297" xlink:href="#DejaVuSans-84"/>
       <use x="147.363281" xlink:href="#DejaVuSans-32"/>
      </g>
     </g>
    </g>
    <g id="xtick_9">
     <g id="line2d_9">
      <g>
       <use style="stroke:#000000;stroke-width:0.8;" x="277.387335" xlink:href="#mb50aaa2795" y="317.72"/>
      </g>
     </g>
     <g id="text_9">
      <!-- DE -->
      <g transform="translate(274.382132 340.00566)rotate(-45)scale(0.1 -0.1)">
       <defs>
        <path d="M 19.671875 64.796875 
L 19.671875 8.109375 
L 31.59375 8.109375 
Q 46.6875 8.109375 53.6875 14.9375 
Q 60.6875 21.78125 60.6875 36.53125 
Q 60.6875 51.171875 53.6875 57.984375 
Q 46.6875 64.796875 31.59375 64.796875 
z
M 9.8125 72.90625 
L 30.078125 72.90625 
Q 51.265625 72.90625 61.171875 64.09375 
Q 71.09375 55.28125 71.09375 36.53125 
Q 71.09375 17.671875 61.125 8.828125 
Q 51.171875 0 30.078125 0 
L 9.8125 0 
z
" id="DejaVuSans-68"/>
       </defs>
       <use xlink:href="#DejaVuSans-68"/>
       <use x="77.001953" xlink:href="#DejaVuSans-69"/>
      </g>
     </g>
    </g>
    <g id="xtick_10">
     <g id="line2d_10">
      <g>
       <use style="stroke:#000000;stroke-width:0.8;" x="302.134671" xlink:href="#mb50aaa2795" y="317.72"/>
      </g>
     </g>
     <g id="text_10">
      <!-- EA -->
      <g transform="translate(299.433302 339.39799)rotate(-45)scale(0.1 -0.1)">
       <use xlink:href="#DejaVuSans-69"/>
       <use x="63.183594" xlink:href="#DejaVuSans-65"/>
      </g>
     </g>
    </g>
    <g id="xtick_11">
     <g id="line2d_11">
      <g>
       <use style="stroke:#000000;stroke-width:0.8;" x="326.882006" xlink:href="#mb50aaa2795" y="317.72"/>
      </g>
     </g>
     <g id="text_11">
      <!-- IT -->
      <g transform="translate(325.630759 336.497747)rotate(-45)scale(0.1 -0.1)">
       <defs>
        <path d="M 9.8125 72.90625 
L 19.671875 72.90625 
L 19.671875 0 
L 9.8125 0 
z
" id="DejaVuSans-73"/>
       </defs>
       <use xlink:href="#DejaVuSans-73"/>
       <use x="29.492188" xlink:href="#DejaVuSans-84"/>
      </g>
     </g>
    </g>
    <g id="xtick_12">
     <g id="line2d_12">
      <g>
       <use style="stroke:#000000;stroke-width:0.8;" x="351.629342" xlink:href="#mb50aaa2795" y="317.72"/>
      </g>
     </g>
     <g id="text_12">
      <!-- GR -->
      <g transform="translate(348.384384 340.485167)rotate(-45)scale(0.1 -0.1)">
       <defs>
        <path d="M 59.515625 10.40625 
L 59.515625 29.984375 
L 43.40625 29.984375 
L 43.40625 38.09375 
L 69.28125 38.09375 
L 69.28125 6.78125 
Q 63.578125 2.734375 56.6875 0.65625 
Q 49.8125 -1.421875 42 -1.421875 
Q 24.90625 -1.421875 15.25 8.5625 
Q 5.609375 18.5625 5.609375 36.375 
Q 5.609375 54.25 15.25 64.234375 
Q 24.90625 74.21875 42 74.21875 
Q 49.125 74.21875 55.546875 72.453125 
Q 61.96875 70.703125 67.390625 67.28125 
L 67.390625 56.78125 
Q 61.921875 61.421875 55.765625 63.765625 
Q 49.609375 66.109375 42.828125 66.109375 
Q 29.4375 66.109375 22.71875 58.640625 
Q 16.015625 51.171875 16.015625 36.375 
Q 16.015625 21.625 22.71875 14.15625 
Q 29.4375 6.6875 42.828125 6.6875 
Q 48.046875 6.6875 52.140625 7.59375 
Q 56.25 8.5 59.515625 10.40625 
z
" id="DejaVuSans-71"/>
       </defs>
       <use xlink:href="#DejaVuSans-71"/>
       <use x="77.490234" xlink:href="#DejaVuSans-82"/>
      </g>
     </g>
    </g>
    <g id="xtick_13">
     <g id="line2d_13">
      <g>
       <use style="stroke:#000000;stroke-width:0.8;" x="376.376677" xlink:href="#mb50aaa2795" y="317.72"/>
      </g>
     </g>
     <g id="text_13">
      <!-- SK -->
      <g transform="translate(373.764801 339.219004)rotate(-45)scale(0.1 -0.1)">
       <defs>
        <path d="M 9.8125 72.90625 
L 19.671875 72.90625 
L 19.671875 42.09375 
L 52.390625 72.90625 
L 65.09375 72.90625 
L 28.90625 38.921875 
L 67.671875 0 
L 54.6875 0 
L 19.671875 35.109375 
L 19.671875 0 
L 9.8125 0 
z
" id="DejaVuSans-75"/>
       </defs>
       <use xlink:href="#DejaVuSans-83"/>
       <use x="63.476562" xlink:href="#DejaVuSans-75"/>
      </g>
     </g>
    </g>
    <g id="xtick_14">
     <g id="line2d_14">
      <g>
       <use style="stroke:#000000;stroke-width:0.8;" x="401.124013" xlink:href="#mb50aaa2795" y="317.72"/>
      </g>
     </g>
     <g id="text_14">
      <!-- PT -->
      <g transform="translate(398.783931 338.675415)rotate(-45)scale(0.1 -0.1)">
       <defs>
        <path d="M 19.671875 64.796875 
L 19.671875 37.40625 
L 32.078125 37.40625 
Q 38.96875 37.40625 42.71875 40.96875 
Q 46.484375 44.53125 46.484375 51.125 
Q 46.484375 57.671875 42.71875 61.234375 
Q 38.96875 64.796875 32.078125 64.796875 
z
M 9.8125 72.90625 
L 32.078125 72.90625 
Q 44.34375 72.90625 50.609375 67.359375 
Q 56.890625 61.8125 56.890625 51.125 
Q 56.890625 40.328125 50.609375 34.8125 
Q 44.34375 29.296875 32.078125 29.296875 
L 19.671875 29.296875 
L 19.671875 0 
L 9.8125 0 
z
" id="DejaVuSans-80"/>
       </defs>
       <use xlink:href="#DejaVuSans-80"/>
       <use x="60.302734" xlink:href="#DejaVuSans-84"/>
      </g>
     </g>
    </g>
    <g id="xtick_15">
     <g id="line2d_15">
      <g>
       <use style="stroke:#000000;stroke-width:0.8;" x="425.871348" xlink:href="#mb50aaa2795" y="317.72"/>
      </g>
     </g>
     <g id="text_15">
      <!-- LT -->
      <g transform="translate(424.179264 337.379421)rotate(-45)scale(0.1 -0.1)">
       <use xlink:href="#DejaVuSans-76"/>
       <use x="41.962891" xlink:href="#DejaVuSans-84"/>
      </g>
     </g>
    </g>
   </g>
   <g id="matplotlib.axis_2">
    <g id="ytick_1">
     <g id="line2d_16">
      <defs>
       <path d="M 0 0 
L -3.5 0 
" id="m1cf86ee696" style="stroke:#000000;stroke-width:0.8;"/>
      </defs>
      <g>
       <use style="stroke:#000000;stroke-width:0.8;" x="55.28" xlink:href="#m1cf86ee696" y="306.747985"/>
      </g>
     </g>
     <g id="text_16">
      <!-- −5.0 -->
      <g transform="translate(23.997188 310.547203)scale(0.1 -0.1)">
       <defs>
        <path d="M 10.59375 35.5 
L 73.1875 35.5 
L 73.1875 27.203125 
L 10.59375 27.203125 
z
" id="DejaVuSans-8722"/>
        <path d="M 10.796875 72.90625 
L 49.515625 72.90625 
L 49.515625 64.59375 
L 19.828125 64.59375 
L 19.828125 46.734375 
Q 21.96875 47.46875 24.109375 47.828125 
Q 26.265625 48.1875 28.421875 48.1875 
Q 40.625 48.1875 47.75 41.5 
Q 54.890625 34.8125 54.890625 23.390625 
Q 54.890625 11.625 47.5625 5.09375 
Q 40.234375 -1.421875 26.90625 -1.421875 
Q 22.3125 -1.421875 17.546875 -0.640625 
Q 12.796875 0.140625 7.71875 1.703125 
L 7.71875 11.625 
Q 12.109375 9.234375 16.796875 8.0625 
Q 21.484375 6.890625 26.703125 6.890625 
Q 35.15625 6.890625 40.078125 11.328125 
Q 45.015625 15.765625 45.015625 23.390625 
Q 45.015625 31 40.078125 35.4375 
Q 35.15625 39.890625 26.703125 39.890625 
Q 22.75 39.890625 18.8125 39.015625 
Q 14.890625 38.140625 10.796875 36.28125 
z
" id="DejaVuSans-53"/>
        <path d="M 10.6875 12.40625 
L 21 12.40625 
L 21 0 
L 10.6875 0 
z
" id="DejaVuSans-46"/>
        <path d="M 31.78125 66.40625 
Q 24.171875 66.40625 20.328125 58.90625 
Q 16.5 51.421875 16.5 36.375 
Q 16.5 21.390625 20.328125 13.890625 
Q 24.171875 6.390625 31.78125 6.390625 
Q 39.453125 6.390625 43.28125 13.890625 
Q 47.125 21.390625 47.125 36.375 
Q 47.125 51.421875 43.28125 58.90625 
Q 39.453125 66.40625 31.78125 66.40625 
z
M 31.78125 74.21875 
Q 44.046875 74.21875 50.515625 64.515625 
Q 56.984375 54.828125 56.984375 36.375 
Q 56.984375 17.96875 50.515625 8.265625 
Q 44.046875 -1.421875 31.78125 -1.421875 
Q 19.53125 -1.421875 13.0625 8.265625 
Q 6.59375 17.96875 6.59375 36.375 
Q 6.59375 54.828125 13.0625 64.515625 
Q 19.53125 74.21875 31.78125 74.21875 
z
" id="DejaVuSans-48"/>
       </defs>
       <use xlink:href="#DejaVuSans-8722"/>
       <use x="83.789062" xlink:href="#DejaVuSans-53"/>
       <use x="147.412109" xlink:href="#DejaVuSans-46"/>
       <use x="179.199219" xlink:href="#DejaVuSans-48"/>
      </g>
     </g>
    </g>
    <g id="ytick_2">
     <g id="line2d_17">
      <g>
       <use style="stroke:#000000;stroke-width:0.8;" x="55.28" xlink:href="#m1cf86ee696" y="271.12718"/>
      </g>
     </g>
     <g id="text_17">
      <!-- −2.5 -->
      <g transform="translate(23.997188 274.926399)scale(0.1 -0.1)">
       <defs>
        <path d="M 19.1875 8.296875 
L 53.609375 8.296875 
L 53.609375 0 
L 7.328125 0 
L 7.328125 8.296875 
Q 12.9375 14.109375 22.625 23.890625 
Q 32.328125 33.6875 34.8125 36.53125 
Q 39.546875 41.84375 41.421875 45.53125 
Q 43.3125 49.21875 43.3125 52.78125 
Q 43.3125 58.59375 39.234375 62.25 
Q 35.15625 65.921875 28.609375 65.921875 
Q 23.96875 65.921875 18.8125 64.3125 
Q 13.671875 62.703125 7.8125 59.421875 
L 7.8125 69.390625 
Q 13.765625 71.78125 18.9375 73 
Q 24.125 74.21875 28.421875 74.21875 
Q 39.75 74.21875 46.484375 68.546875 
Q 53.21875 62.890625 53.21875 53.421875 
Q 53.21875 48.921875 51.53125 44.890625 
Q 49.859375 40.875 45.40625 35.40625 
Q 44.1875 33.984375 37.640625 27.21875 
Q 31.109375 20.453125 19.1875 8.296875 
z
" id="DejaVuSans-50"/>
       </defs>
       <use xlink:href="#DejaVuSans-8722"/>
       <use x="83.789062" xlink:href="#DejaVuSans-50"/>
       <use x="147.412109" xlink:href="#DejaVuSans-46"/>
       <use x="179.199219" xlink:href="#DejaVuSans-53"/>
      </g>
     </g>
    </g>
    <g id="ytick_3">
     <g id="line2d_18">
      <g>
       <use style="stroke:#000000;stroke-width:0.8;" x="55.28" xlink:href="#m1cf86ee696" y="235.506376"/>
      </g>
     </g>
     <g id="text_18">
      <!-- 0.0 -->
      <g transform="translate(32.376875 239.305595)scale(0.1 -0.1)">
       <use xlink:href="#DejaVuSans-48"/>
       <use x="63.623047" xlink:href="#DejaVuSans-46"/>
       <use x="95.410156" xlink:href="#DejaVuSans-48"/>
      </g>
     </g>
    </g>
    <g id="ytick_4">
     <g id="line2d_19">
      <g>
       <use style="stroke:#000000;stroke-width:0.8;" x="55.28" xlink:href="#m1cf86ee696" y="199.885572"/>
      </g>
     </g>
     <g id="text_19">
      <!-- 2.5 -->
      <g transform="translate(32.376875 203.684791)scale(0.1 -0.1)">
       <use xlink:href="#DejaVuSans-50"/>
       <use x="63.623047" xlink:href="#DejaVuSans-46"/>
       <use x="95.410156" xlink:href="#DejaVuSans-53"/>
      </g>
     </g>
    </g>
    <g id="ytick_5">
     <g id="line2d_20">
      <g>
       <use style="stroke:#000000;stroke-width:0.8;" x="55.28" xlink:href="#m1cf86ee696" y="164.264768"/>
      </g>
     </g>
     <g id="text_20">
      <!-- 5.0 -->
      <g transform="translate(32.376875 168.063987)scale(0.1 -0.1)">
       <use xlink:href="#DejaVuSans-53"/>
       <use x="63.623047" xlink:href="#DejaVuSans-46"/>
       <use x="95.410156" xlink:href="#DejaVuSans-48"/>
      </g>
     </g>
    </g>
    <g id="ytick_6">
     <g id="line2d_21">
      <g>
       <use style="stroke:#000000;stroke-width:0.8;" x="55.28" xlink:href="#m1cf86ee696" y="128.643964"/>
      </g>
     </g>
     <g id="text_21">
      <!-- 7.5 -->
      <g transform="translate(32.376875 132.443182)scale(0.1 -0.1)">
       <defs>
        <path d="M 8.203125 72.90625 
L 55.078125 72.90625 
L 55.078125 68.703125 
L 28.609375 0 
L 18.3125 0 
L 43.21875 64.59375 
L 8.203125 64.59375 
z
" id="DejaVuSans-55"/>
       </defs>
       <use xlink:href="#DejaVuSans-55"/>
       <use x="63.623047" xlink:href="#DejaVuSans-46"/>
       <use x="95.410156" xlink:href="#DejaVuSans-53"/>
      </g>
     </g>
    </g>
    <g id="ytick_7">
     <g id="line2d_22">
      <g>
       <use style="stroke:#000000;stroke-width:0.8;" x="55.28" xlink:href="#m1cf86ee696" y="93.023159"/>
      </g>
     </g>
     <g id="text_22">
      <!-- 10.0 -->
      <g transform="translate(26.014375 96.822378)scale(0.1 -0.1)">
       <defs>
        <path d="M 12.40625 8.296875 
L 28.515625 8.296875 
L 28.515625 63.921875 
L 10.984375 60.40625 
L 10.984375 69.390625 
L 28.421875 72.90625 
L 38.28125 72.90625 
L 38.28125 8.296875 
L 54.390625 8.296875 
L 54.390625 0 
L 12.40625 0 
z
" id="DejaVuSans-49"/>
       </defs>
       <use xlink:href="#DejaVuSans-49"/>
       <use x="63.623047" xlink:href="#DejaVuSans-48"/>
       <use x="127.246094" xlink:href="#DejaVuSans-46"/>
       <use x="159.033203" xlink:href="#DejaVuSans-48"/>
      </g>
     </g>
    </g>
    <g id="ytick_8">
     <g id="line2d_23">
      <g>
       <use style="stroke:#000000;stroke-width:0.8;" x="55.28" xlink:href="#m1cf86ee696" y="57.402355"/>
      </g>
     </g>
     <g id="text_23">
      <!-- 12.5 -->
      <g transform="translate(26.014375 61.201574)scale(0.1 -0.1)">
       <use xlink:href="#DejaVuSans-49"/>
       <use x="63.623047" xlink:href="#DejaVuSans-50"/>
       <use x="127.246094" xlink:href="#DejaVuSans-46"/>
       <use x="159.033203" xlink:href="#DejaVuSans-53"/>
      </g>
     </g>
    </g>
    <g id="text_24">
     <!-- Taux d'inflation (%) -->
     <g transform="translate(18.125469 220.118828)rotate(-90)scale(0.09 -0.09)">
      <defs>
       <path d="M 0.484375 72.90625 
L 67.671875 72.90625 
L 67.671875 58.6875 
L 43.5 58.6875 
L 43.5 0 
L 24.703125 0 
L 24.703125 58.6875 
L 0.484375 58.6875 
z
" id="DejaVuSans-Bold-84"/>
       <path d="M 32.90625 24.609375 
Q 27.4375 24.609375 24.671875 22.75 
Q 21.921875 20.90625 21.921875 17.28125 
Q 21.921875 13.96875 24.140625 12.078125 
Q 26.375 10.203125 30.328125 10.203125 
Q 35.25 10.203125 38.625 13.734375 
Q 42 17.28125 42 22.609375 
L 42 24.609375 
z
M 59.625 31.203125 
L 59.625 0 
L 42 0 
L 42 8.109375 
Q 38.484375 3.125 34.078125 0.84375 
Q 29.6875 -1.421875 23.390625 -1.421875 
Q 14.890625 -1.421875 9.59375 3.53125 
Q 4.296875 8.5 4.296875 16.40625 
Q 4.296875 26.03125 10.90625 30.515625 
Q 17.53125 35.015625 31.6875 35.015625 
L 42 35.015625 
L 42 36.375 
Q 42 40.53125 38.71875 42.453125 
Q 35.453125 44.390625 28.515625 44.390625 
Q 22.90625 44.390625 18.0625 43.265625 
Q 13.234375 42.140625 9.078125 39.890625 
L 9.078125 53.21875 
Q 14.703125 54.59375 20.359375 55.296875 
Q 26.03125 56 31.6875 56 
Q 46.484375 56 53.046875 50.171875 
Q 59.625 44.34375 59.625 31.203125 
z
" id="DejaVuSans-Bold-97"/>
       <path d="M 7.8125 21.296875 
L 7.8125 54.6875 
L 25.390625 54.6875 
L 25.390625 49.21875 
Q 25.390625 44.78125 25.34375 38.0625 
Q 25.296875 31.34375 25.296875 29.109375 
Q 25.296875 22.515625 25.640625 19.609375 
Q 25.984375 16.703125 26.8125 15.375 
Q 27.875 13.671875 29.609375 12.734375 
Q 31.34375 11.8125 33.59375 11.8125 
Q 39.0625 11.8125 42.1875 16.015625 
Q 45.3125 20.21875 45.3125 27.6875 
L 45.3125 54.6875 
L 62.796875 54.6875 
L 62.796875 0 
L 45.3125 0 
L 45.3125 7.90625 
Q 41.359375 3.125 36.9375 0.84375 
Q 32.515625 -1.421875 27.203125 -1.421875 
Q 17.71875 -1.421875 12.765625 4.390625 
Q 7.8125 10.203125 7.8125 21.296875 
z
" id="DejaVuSans-Bold-117"/>
       <path d="M 22.21875 27.984375 
L 2.484375 54.6875 
L 21 54.6875 
L 32.171875 38.484375 
L 43.5 54.6875 
L 62.015625 54.6875 
L 42.28125 28.078125 
L 62.984375 0 
L 44.484375 0 
L 32.171875 17.28125 
L 20.015625 0 
L 1.515625 0 
z
" id="DejaVuSans-Bold-120"/>
       <path id="DejaVuSans-Bold-32"/>
       <path d="M 45.609375 46.6875 
L 45.609375 75.984375 
L 63.1875 75.984375 
L 63.1875 0 
L 45.609375 0 
L 45.609375 7.90625 
Q 42 3.078125 37.640625 0.828125 
Q 33.296875 -1.421875 27.59375 -1.421875 
Q 17.484375 -1.421875 10.984375 6.609375 
Q 4.5 14.65625 4.5 27.296875 
Q 4.5 39.9375 10.984375 47.96875 
Q 17.484375 56 27.59375 56 
Q 33.25 56 37.625 53.734375 
Q 42 51.46875 45.609375 46.6875 
z
M 34.078125 11.28125 
Q 39.703125 11.28125 42.65625 15.375 
Q 45.609375 19.484375 45.609375 27.296875 
Q 45.609375 35.109375 42.65625 39.203125 
Q 39.703125 43.3125 34.078125 43.3125 
Q 28.515625 43.3125 25.5625 39.203125 
Q 22.609375 35.109375 22.609375 27.296875 
Q 22.609375 19.484375 25.5625 15.375 
Q 28.515625 11.28125 34.078125 11.28125 
z
" id="DejaVuSans-Bold-100"/>
       <path d="M 21.09375 72.90625 
L 21.09375 45.796875 
L 9.515625 45.796875 
L 9.515625 72.90625 
z
" id="DejaVuSans-Bold-39"/>
       <path d="M 8.40625 54.6875 
L 25.875 54.6875 
L 25.875 0 
L 8.40625 0 
z
M 8.40625 75.984375 
L 25.875 75.984375 
L 25.875 61.71875 
L 8.40625 61.71875 
z
" id="DejaVuSans-Bold-105"/>
       <path d="M 63.375 33.296875 
L 63.375 0 
L 45.796875 0 
L 45.796875 5.421875 
L 45.796875 25.484375 
Q 45.796875 32.5625 45.484375 35.25 
Q 45.171875 37.9375 44.390625 39.203125 
Q 43.359375 40.921875 41.59375 41.875 
Q 39.84375 42.828125 37.59375 42.828125 
Q 32.125 42.828125 29 38.59375 
Q 25.875 34.375 25.875 26.90625 
L 25.875 0 
L 8.40625 0 
L 8.40625 54.6875 
L 25.875 54.6875 
L 25.875 46.6875 
Q 29.828125 51.46875 34.265625 53.734375 
Q 38.71875 56 44.09375 56 
Q 53.5625 56 58.46875 50.1875 
Q 63.375 44.390625 63.375 33.296875 
z
" id="DejaVuSans-Bold-110"/>
       <path d="M 44.390625 75.984375 
L 44.390625 64.5 
L 34.71875 64.5 
Q 31 64.5 29.53125 63.15625 
Q 28.078125 61.8125 28.078125 58.5 
L 28.078125 54.6875 
L 43.015625 54.6875 
L 43.015625 42.1875 
L 28.078125 42.1875 
L 28.078125 0 
L 10.59375 0 
L 10.59375 42.1875 
L 1.90625 42.1875 
L 1.90625 54.6875 
L 10.59375 54.6875 
L 10.59375 58.5 
Q 10.59375 67.4375 15.578125 71.703125 
Q 20.5625 75.984375 31 75.984375 
z
" id="DejaVuSans-Bold-102"/>
       <path d="M 8.40625 75.984375 
L 25.875 75.984375 
L 25.875 0 
L 8.40625 0 
z
" id="DejaVuSans-Bold-108"/>
       <path d="M 27.484375 70.21875 
L 27.484375 54.6875 
L 45.515625 54.6875 
L 45.515625 42.1875 
L 27.484375 42.1875 
L 27.484375 19 
Q 27.484375 15.1875 29 13.84375 
Q 30.515625 12.5 35.015625 12.5 
L 44 12.5 
L 44 0 
L 29 0 
Q 18.65625 0 14.328125 4.3125 
Q 10.015625 8.640625 10.015625 19 
L 10.015625 42.1875 
L 1.3125 42.1875 
L 1.3125 54.6875 
L 10.015625 54.6875 
L 10.015625 70.21875 
z
" id="DejaVuSans-Bold-116"/>
       <path d="M 34.421875 43.5 
Q 28.609375 43.5 25.5625 39.328125 
Q 22.515625 35.15625 22.515625 27.296875 
Q 22.515625 19.4375 25.5625 15.25 
Q 28.609375 11.078125 34.421875 11.078125 
Q 40.140625 11.078125 43.15625 15.25 
Q 46.1875 19.4375 46.1875 27.296875 
Q 46.1875 35.15625 43.15625 39.328125 
Q 40.140625 43.5 34.421875 43.5 
z
M 34.421875 56 
Q 48.53125 56 56.46875 48.375 
Q 64.40625 40.765625 64.40625 27.296875 
Q 64.40625 13.8125 56.46875 6.1875 
Q 48.53125 -1.421875 34.421875 -1.421875 
Q 20.265625 -1.421875 12.28125 6.1875 
Q 4.296875 13.8125 4.296875 27.296875 
Q 4.296875 40.765625 12.28125 48.375 
Q 20.265625 56 34.421875 56 
z
" id="DejaVuSans-Bold-111"/>
       <path d="M 37.703125 -13.1875 
L 23.1875 -13.1875 
Q 15.71875 -1.125 12.15625 9.734375 
Q 8.59375 20.609375 8.59375 31.296875 
Q 8.59375 42 12.171875 52.953125 
Q 15.765625 63.921875 23.1875 75.875 
L 37.703125 75.875 
Q 31.453125 64.3125 28.328125 53.25 
Q 25.203125 42.1875 25.203125 31.390625 
Q 25.203125 20.609375 28.296875 9.515625 
Q 31.390625 -1.5625 37.703125 -13.1875 
z
" id="DejaVuSans-Bold-40"/>
       <path d="M 77.484375 30.078125 
Q 74.03125 30.078125 72.125 27.078125 
Q 70.21875 24.078125 70.21875 18.5 
Q 70.21875 12.890625 72.09375 9.890625 
Q 73.96875 6.890625 77.484375 6.890625 
Q 81 6.890625 82.859375 9.890625 
Q 84.71875 12.890625 84.71875 18.5 
Q 84.71875 24.078125 82.828125 27.078125 
Q 80.953125 30.078125 77.484375 30.078125 
z
M 77.484375 38.28125 
Q 86.578125 38.28125 91.796875 33 
Q 97.015625 27.734375 97.015625 18.5 
Q 97.015625 9.28125 91.796875 3.921875 
Q 86.578125 -1.421875 77.484375 -1.421875 
Q 68.40625 -1.421875 63.15625 3.921875 
Q 57.90625 9.28125 57.90625 18.5 
Q 57.90625 27.6875 63.15625 32.984375 
Q 68.40625 38.28125 77.484375 38.28125 
z
M 32.71875 -1.421875 
L 21.921875 -1.421875 
L 67.484375 74.21875 
L 78.328125 74.21875 
z
M 22.703125 74.21875 
Q 31.78125 74.21875 36.984375 68.921875 
Q 42.1875 63.625 42.1875 54.390625 
Q 42.1875 45.171875 36.984375 39.84375 
Q 31.78125 34.515625 22.703125 34.515625 
Q 13.625 34.515625 8.421875 39.84375 
Q 3.21875 45.171875 3.21875 54.390625 
Q 3.21875 63.625 8.421875 68.921875 
Q 13.625 74.21875 22.703125 74.21875 
z
M 22.703125 66.015625 
Q 19.1875 66.015625 17.28125 62.984375 
Q 15.375 59.96875 15.375 54.390625 
Q 15.375 48.78125 17.28125 45.71875 
Q 19.1875 42.671875 22.703125 42.671875 
Q 26.21875 42.671875 28.09375 45.71875 
Q 29.984375 48.78125 29.984375 54.390625 
Q 29.984375 59.96875 28.078125 62.984375 
Q 26.171875 66.015625 22.703125 66.015625 
z
" id="DejaVuSans-Bold-37"/>
       <path d="M 8.015625 -13.1875 
Q 14.265625 -1.5625 17.390625 9.515625 
Q 20.515625 20.609375 20.515625 31.390625 
Q 20.515625 42.1875 17.390625 53.25 
Q 14.265625 64.3125 8.015625 75.875 
L 22.515625 75.875 
Q 29.9375 63.921875 33.515625 52.953125 
Q 37.109375 42 37.109375 31.296875 
Q 37.109375 20.609375 33.546875 9.734375 
Q 29.984375 -1.125 22.515625 -13.1875 
z
" id="DejaVuSans-Bold-41"/>
      </defs>
      <use xlink:href="#DejaVuSans-Bold-84"/>
      <use x="55.337891" xlink:href="#DejaVuSans-Bold-97"/>
      <use x="122.818359" xlink:href="#DejaVuSans-Bold-117"/>
      <use x="194.009766" xlink:href="#DejaVuSans-Bold-120"/>
      <use x="258.511719" xlink:href="#DejaVuSans-Bold-32"/>
      <use x="293.326172" xlink:href="#DejaVuSans-Bold-100"/>
      <use x="364.908203" xlink:href="#DejaVuSans-Bold-39"/>
      <use x="395.523438" xlink:href="#DejaVuSans-Bold-105"/>
      <use x="429.800781" xlink:href="#DejaVuSans-Bold-110"/>
      <use x="500.992188" xlink:href="#DejaVuSans-Bold-102"/>
      <use x="544.498047" xlink:href="#DejaVuSans-Bold-108"/>
      <use x="578.775391" xlink:href="#DejaVuSans-Bold-97"/>
      <use x="646.255859" xlink:href="#DejaVuSans-Bold-116"/>
      <use x="694.058594" xlink:href="#DejaVuSans-Bold-105"/>
      <use x="728.335938" xlink:href="#DejaVuSans-Bold-111"/>
      <use x="797.037109" xlink:href="#DejaVuSans-Bold-110"/>
      <use x="868.228516" xlink:href="#DejaVuSans-Bold-32"/>
      <use x="903.042969" xlink:href="#DejaVuSans-Bold-40"/>
      <use x="948.746094" xlink:href="#DejaVuSans-Bold-37"/>
      <use x="1048.941406" xlink:href="#DejaVuSans-Bold-41"/>
     </g>
    </g>
   </g>
   <g id="patch_67">
    <path d="M 55.28 317.72 
L 55.28 24 
" style="fill:none;stroke:#000000;stroke-linecap:square;stroke-linejoin:miter;stroke-width:0.8;"/>
   </g>
   <g id="patch_68">
    <path d="M 450 317.72 
L 450 24 
" style="fill:none;stroke:#000000;stroke-linecap:square;stroke-linejoin:miter;stroke-width:0.8;"/>
   </g>
   <g id="patch_69">
    <path d="M 55.28 317.72 
L 450 317.72 
" style="fill:none;stroke:#000000;stroke-linecap:square;stroke-linejoin:miter;stroke-width:0.8;"/>
   </g>
   <g id="patch_70">
    <path d="M 55.28 24 
L 450 24 
" style="fill:none;stroke:#000000;stroke-linecap:square;stroke-linejoin:miter;stroke-width:0.8;"/>
   </g>
   <g id="text_25">
    <!--  Graphique 3. Taux d'inflation (PPI) par rapport à janvier 2020 -->
    <g transform="translate(95.125937 18)scale(0.09 -0.09)">
     <defs>
      <path d="M 74.703125 5.421875 
Q 67.671875 2 60.109375 0.28125 
Q 52.546875 -1.421875 44.484375 -1.421875 
Q 26.265625 -1.421875 15.625 8.765625 
Q 4.984375 18.953125 4.984375 36.375 
Q 4.984375 54 15.8125 64.109375 
Q 26.65625 74.21875 45.515625 74.21875 
Q 52.78125 74.21875 59.4375 72.84375 
Q 66.109375 71.484375 72.015625 68.796875 
L 72.015625 53.71875 
Q 65.921875 57.171875 59.890625 58.875 
Q 53.859375 60.59375 47.796875 60.59375 
Q 36.578125 60.59375 30.5 54.3125 
Q 24.421875 48.046875 24.421875 36.375 
Q 24.421875 24.8125 30.28125 18.5 
Q 36.140625 12.203125 46.921875 12.203125 
Q 49.859375 12.203125 52.375 12.5625 
Q 54.890625 12.9375 56.890625 13.71875 
L 56.890625 27.875 
L 45.40625 27.875 
L 45.40625 40.484375 
L 74.703125 40.484375 
z
" id="DejaVuSans-Bold-71"/>
      <path d="M 49.03125 39.796875 
Q 46.734375 40.875 44.453125 41.375 
Q 42.1875 41.890625 39.890625 41.890625 
Q 33.15625 41.890625 29.515625 37.5625 
Q 25.875 33.25 25.875 25.203125 
L 25.875 0 
L 8.40625 0 
L 8.40625 54.6875 
L 25.875 54.6875 
L 25.875 45.703125 
Q 29.25 51.078125 33.609375 53.53125 
Q 37.984375 56 44.09375 56 
Q 44.96875 56 45.984375 55.921875 
Q 47.015625 55.859375 48.96875 55.609375 
z
" id="DejaVuSans-Bold-114"/>
      <path d="M 25.875 7.90625 
L 25.875 -20.796875 
L 8.40625 -20.796875 
L 8.40625 54.6875 
L 25.875 54.6875 
L 25.875 46.6875 
Q 29.5 51.46875 33.890625 53.734375 
Q 38.28125 56 44 56 
Q 54.109375 56 60.59375 47.96875 
Q 67.09375 39.9375 67.09375 27.296875 
Q 67.09375 14.65625 60.59375 6.609375 
Q 54.109375 -1.421875 44 -1.421875 
Q 38.28125 -1.421875 33.890625 0.84375 
Q 29.5 3.125 25.875 7.90625 
z
M 37.5 43.3125 
Q 31.890625 43.3125 28.875 39.1875 
Q 25.875 35.0625 25.875 27.296875 
Q 25.875 19.53125 28.875 15.40625 
Q 31.890625 11.28125 37.5 11.28125 
Q 43.109375 11.28125 46.0625 15.375 
Q 49.03125 19.484375 49.03125 27.296875 
Q 49.03125 35.109375 46.0625 39.203125 
Q 43.109375 43.3125 37.5 43.3125 
z
" id="DejaVuSans-Bold-112"/>
      <path d="M 63.375 33.296875 
L 63.375 0 
L 45.796875 0 
L 45.796875 5.421875 
L 45.796875 25.390625 
Q 45.796875 32.5625 45.484375 35.25 
Q 45.171875 37.9375 44.390625 39.203125 
Q 43.359375 40.921875 41.59375 41.875 
Q 39.84375 42.828125 37.59375 42.828125 
Q 32.125 42.828125 29 38.59375 
Q 25.875 34.375 25.875 26.90625 
L 25.875 0 
L 8.40625 0 
L 8.40625 75.984375 
L 25.875 75.984375 
L 25.875 46.6875 
Q 29.828125 51.46875 34.265625 53.734375 
Q 38.71875 56 44.09375 56 
Q 53.5625 56 58.46875 50.1875 
Q 63.375 44.390625 63.375 33.296875 
z
" id="DejaVuSans-Bold-104"/>
      <path d="M 34.078125 43.3125 
Q 28.515625 43.3125 25.5625 39.203125 
Q 22.609375 35.109375 22.609375 27.296875 
Q 22.609375 19.484375 25.5625 15.375 
Q 28.515625 11.28125 34.078125 11.28125 
Q 39.703125 11.28125 42.65625 15.375 
Q 45.609375 19.484375 45.609375 27.296875 
Q 45.609375 35.109375 42.65625 39.203125 
Q 39.703125 43.3125 34.078125 43.3125 
z
M 45.609375 7.90625 
Q 42 3.078125 37.640625 0.828125 
Q 33.296875 -1.421875 27.59375 -1.421875 
Q 17.484375 -1.421875 10.984375 6.609375 
Q 4.5 14.65625 4.5 27.296875 
Q 4.5 39.9375 10.984375 47.921875 
Q 17.484375 55.90625 27.59375 55.90625 
Q 33.296875 55.90625 37.640625 53.65625 
Q 42 51.421875 45.609375 46.578125 
L 45.609375 54.6875 
L 63.1875 54.6875 
L 63.1875 -20.796875 
L 45.609375 -20.796875 
z
" id="DejaVuSans-Bold-113"/>
      <path d="M 62.984375 27.484375 
L 62.984375 22.515625 
L 22.125 22.515625 
Q 22.75 16.359375 26.5625 13.28125 
Q 30.375 10.203125 37.203125 10.203125 
Q 42.71875 10.203125 48.5 11.84375 
Q 54.296875 13.484375 60.40625 16.796875 
L 60.40625 3.328125 
Q 54.203125 0.984375 48 -0.21875 
Q 41.796875 -1.421875 35.59375 -1.421875 
Q 20.75 -1.421875 12.515625 6.125 
Q 4.296875 13.671875 4.296875 27.296875 
Q 4.296875 40.671875 12.375 48.328125 
Q 20.453125 56 34.625 56 
Q 47.515625 56 55.25 48.234375 
Q 62.984375 40.484375 62.984375 27.484375 
z
M 45.015625 33.296875 
Q 45.015625 38.28125 42.109375 41.328125 
Q 39.203125 44.390625 34.515625 44.390625 
Q 29.4375 44.390625 26.265625 41.53125 
Q 23.09375 38.671875 22.3125 33.296875 
z
" id="DejaVuSans-Bold-101"/>
      <path d="M 46.578125 39.3125 
Q 53.953125 37.40625 57.78125 32.6875 
Q 61.625 27.984375 61.625 20.703125 
Q 61.625 9.859375 53.3125 4.21875 
Q 45.015625 -1.421875 29.109375 -1.421875 
Q 23.484375 -1.421875 17.84375 -0.515625 
Q 12.203125 0.390625 6.6875 2.203125 
L 6.6875 16.703125 
Q 11.96875 14.0625 17.15625 12.71875 
Q 22.359375 11.375 27.390625 11.375 
Q 34.859375 11.375 38.84375 13.953125 
Q 42.828125 16.546875 42.828125 21.390625 
Q 42.828125 26.375 38.75 28.9375 
Q 34.671875 31.5 26.703125 31.5 
L 19.1875 31.5 
L 19.1875 43.609375 
L 27.09375 43.609375 
Q 34.1875 43.609375 37.640625 45.828125 
Q 41.109375 48.046875 41.109375 52.59375 
Q 41.109375 56.78125 37.734375 59.078125 
Q 34.375 61.375 28.21875 61.375 
Q 23.6875 61.375 19.046875 60.34375 
Q 14.40625 59.328125 9.8125 57.328125 
L 9.8125 71.09375 
Q 15.375 72.65625 20.84375 73.4375 
Q 26.3125 74.21875 31.59375 74.21875 
Q 45.796875 74.21875 52.84375 69.546875 
Q 59.90625 64.890625 59.90625 55.515625 
Q 59.90625 49.125 56.53125 45.046875 
Q 53.171875 40.96875 46.578125 39.3125 
z
" id="DejaVuSans-Bold-51"/>
      <path d="M 10.203125 18.890625 
L 27.78125 18.890625 
L 27.78125 0 
L 10.203125 0 
z
" id="DejaVuSans-Bold-46"/>
      <path d="M 9.1875 72.90625 
L 40.375 72.90625 
Q 54.296875 72.90625 61.734375 66.71875 
Q 69.1875 60.546875 69.1875 49.125 
Q 69.1875 37.640625 61.734375 31.46875 
Q 54.296875 25.296875 40.375 25.296875 
L 27.984375 25.296875 
L 27.984375 0 
L 9.1875 0 
z
M 27.984375 59.28125 
L 27.984375 38.921875 
L 38.375 38.921875 
Q 43.84375 38.921875 46.828125 41.578125 
Q 49.8125 44.234375 49.8125 49.125 
Q 49.8125 54 46.828125 56.640625 
Q 43.84375 59.28125 38.375 59.28125 
z
" id="DejaVuSans-Bold-80"/>
      <path d="M 9.1875 72.90625 
L 27.984375 72.90625 
L 27.984375 0 
L 9.1875 0 
z
" id="DejaVuSans-Bold-73"/>
      <path d="M 32.90625 24.609375 
Q 27.4375 24.609375 24.671875 22.75 
Q 21.921875 20.90625 21.921875 17.28125 
Q 21.921875 13.96875 24.140625 12.078125 
Q 26.375 10.203125 30.328125 10.203125 
Q 35.25 10.203125 38.625 13.734375 
Q 42 17.28125 42 22.609375 
L 42 24.609375 
z
M 59.625 31.203125 
L 59.625 0 
L 42 0 
L 42 8.109375 
Q 38.484375 3.125 34.078125 0.84375 
Q 29.6875 -1.421875 23.390625 -1.421875 
Q 14.890625 -1.421875 9.59375 3.53125 
Q 4.296875 8.5 4.296875 16.40625 
Q 4.296875 26.03125 10.90625 30.515625 
Q 17.53125 35.015625 31.6875 35.015625 
L 42 35.015625 
L 42 36.375 
Q 42 40.53125 38.71875 42.453125 
Q 35.453125 44.390625 28.515625 44.390625 
Q 22.90625 44.390625 18.0625 43.265625 
Q 13.234375 42.140625 9.078125 39.890625 
L 9.078125 53.21875 
Q 14.703125 54.59375 20.359375 55.296875 
Q 26.03125 56 31.6875 56 
Q 46.484375 56 53.046875 50.171875 
Q 59.625 44.34375 59.625 31.203125 
z
M 27.53125 79.984375 
L 41.296875 61.625 
L 31.734375 61.625 
L 13.71875 79.984375 
z
" id="DejaVuSans-Bold-224"/>
      <path d="M 8.40625 54.6875 
L 25.875 54.6875 
L 25.875 0.984375 
Q 25.875 -10.015625 20.59375 -15.796875 
Q 15.328125 -21.578125 5.328125 -21.578125 
L -3.328125 -21.578125 
L -3.328125 -10.109375 
L -0.296875 -10.109375 
Q 4.6875 -10.109375 6.546875 -7.859375 
Q 8.40625 -5.609375 8.40625 0.984375 
z
M 8.40625 75.984375 
L 25.875 75.984375 
L 25.875 61.71875 
L 8.40625 61.71875 
z
" id="DejaVuSans-Bold-106"/>
      <path d="M 1.515625 54.6875 
L 19 54.6875 
L 32.625 16.890625 
L 46.1875 54.6875 
L 63.71875 54.6875 
L 42.1875 0 
L 23 0 
z
" id="DejaVuSans-Bold-118"/>
      <path d="M 28.8125 13.8125 
L 60.890625 13.8125 
L 60.890625 0 
L 7.90625 0 
L 7.90625 13.8125 
L 34.515625 37.3125 
Q 38.09375 40.53125 39.796875 43.609375 
Q 41.5 46.6875 41.5 50 
Q 41.5 55.125 38.0625 58.25 
Q 34.625 61.375 28.90625 61.375 
Q 24.515625 61.375 19.28125 59.5 
Q 14.0625 57.625 8.109375 53.90625 
L 8.109375 69.921875 
Q 14.453125 72.015625 20.65625 73.109375 
Q 26.859375 74.21875 32.8125 74.21875 
Q 45.90625 74.21875 53.15625 68.453125 
Q 60.40625 62.703125 60.40625 52.390625 
Q 60.40625 46.4375 57.328125 41.28125 
Q 54.25 36.140625 44.390625 27.484375 
z
" id="DejaVuSans-Bold-50"/>
      <path d="M 46 36.53125 
Q 46 50.203125 43.4375 55.78125 
Q 40.875 61.375 34.8125 61.375 
Q 28.765625 61.375 26.171875 55.78125 
Q 23.578125 50.203125 23.578125 36.53125 
Q 23.578125 22.703125 26.171875 17.03125 
Q 28.765625 11.375 34.8125 11.375 
Q 40.828125 11.375 43.40625 17.03125 
Q 46 22.703125 46 36.53125 
z
M 64.796875 36.375 
Q 64.796875 18.265625 56.984375 8.421875 
Q 49.171875 -1.421875 34.8125 -1.421875 
Q 20.40625 -1.421875 12.59375 8.421875 
Q 4.78125 18.265625 4.78125 36.375 
Q 4.78125 54.546875 12.59375 64.375 
Q 20.40625 74.21875 34.8125 74.21875 
Q 49.171875 74.21875 56.984375 64.375 
Q 64.796875 54.546875 64.796875 36.375 
z
" id="DejaVuSans-Bold-48"/>
     </defs>
     <use xlink:href="#DejaVuSans-Bold-32"/>
     <use x="34.814453" xlink:href="#DejaVuSans-Bold-71"/>
     <use x="116.894531" xlink:href="#DejaVuSans-Bold-114"/>
     <use x="166.210938" xlink:href="#DejaVuSans-Bold-97"/>
     <use x="233.691406" xlink:href="#DejaVuSans-Bold-112"/>
     <use x="305.273438" xlink:href="#DejaVuSans-Bold-104"/>
     <use x="376.464844" xlink:href="#DejaVuSans-Bold-105"/>
     <use x="410.742188" xlink:href="#DejaVuSans-Bold-113"/>
     <use x="482.324219" xlink:href="#DejaVuSans-Bold-117"/>
     <use x="553.515625" xlink:href="#DejaVuSans-Bold-101"/>
     <use x="621.337891" xlink:href="#DejaVuSans-Bold-32"/>
     <use x="656.152344" xlink:href="#DejaVuSans-Bold-51"/>
     <use x="725.732422" xlink:href="#DejaVuSans-Bold-46"/>
     <use x="763.720703" xlink:href="#DejaVuSans-Bold-32"/>
     <use x="798.535156" xlink:href="#DejaVuSans-Bold-84"/>
     <use x="853.873047" xlink:href="#DejaVuSans-Bold-97"/>
     <use x="921.353516" xlink:href="#DejaVuSans-Bold-117"/>
     <use x="992.544922" xlink:href="#DejaVuSans-Bold-120"/>
     <use x="1057.046875" xlink:href="#DejaVuSans-Bold-32"/>
     <use x="1091.861328" xlink:href="#DejaVuSans-Bold-100"/>
     <use x="1163.443359" xlink:href="#DejaVuSans-Bold-39"/>
     <use x="1194.058594" xlink:href="#DejaVuSans-Bold-105"/>
     <use x="1228.335938" xlink:href="#DejaVuSans-Bold-110"/>
     <use x="1299.527344" xlink:href="#DejaVuSans-Bold-102"/>
     <use x="1343.033203" xlink:href="#DejaVuSans-Bold-108"/>
     <use x="1377.310547" xlink:href="#DejaVuSans-Bold-97"/>
     <use x="1444.791016" xlink:href="#DejaVuSans-Bold-116"/>
     <use x="1492.59375" xlink:href="#DejaVuSans-Bold-105"/>
     <use x="1526.871094" xlink:href="#DejaVuSans-Bold-111"/>
     <use x="1595.572266" xlink:href="#DejaVuSans-Bold-110"/>
     <use x="1666.763672" xlink:href="#DejaVuSans-Bold-32"/>
     <use x="1701.578125" xlink:href="#DejaVuSans-Bold-40"/>
     <use x="1747.28125" xlink:href="#DejaVuSans-Bold-80"/>
     <use x="1820.572266" xlink:href="#DejaVuSans-Bold-80"/>
     <use x="1893.863281" xlink:href="#DejaVuSans-Bold-73"/>
     <use x="1931.070312" xlink:href="#DejaVuSans-Bold-41"/>
     <use x="1976.773438" xlink:href="#DejaVuSans-Bold-32"/>
     <use x="2011.587891" xlink:href="#DejaVuSans-Bold-112"/>
     <use x="2083.169922" xlink:href="#DejaVuSans-Bold-97"/>
     <use x="2150.650391" xlink:href="#DejaVuSans-Bold-114"/>
     <use x="2199.966797" xlink:href="#DejaVuSans-Bold-32"/>
     <use x="2234.78125" xlink:href="#DejaVuSans-Bold-114"/>
     <use x="2284.097656" xlink:href="#DejaVuSans-Bold-97"/>
     <use x="2351.578125" xlink:href="#DejaVuSans-Bold-112"/>
     <use x="2423.160156" xlink:href="#DejaVuSans-Bold-112"/>
     <use x="2494.742188" xlink:href="#DejaVuSans-Bold-111"/>
     <use x="2563.443359" xlink:href="#DejaVuSans-Bold-114"/>
     <use x="2612.759766" xlink:href="#DejaVuSans-Bold-116"/>
     <use x="2660.5625" xlink:href="#DejaVuSans-Bold-32"/>
     <use x="2695.376953" xlink:href="#DejaVuSans-Bold-224"/>
     <use x="2762.857422" xlink:href="#DejaVuSans-Bold-32"/>
     <use x="2797.671875" xlink:href="#DejaVuSans-Bold-106"/>
     <use x="2831.949219" xlink:href="#DejaVuSans-Bold-97"/>
     <use x="2899.429688" xlink:href="#DejaVuSans-Bold-110"/>
     <use x="2970.621094" xlink:href="#DejaVuSans-Bold-118"/>
     <use x="3035.806641" xlink:href="#DejaVuSans-Bold-105"/>
     <use x="3070.083984" xlink:href="#DejaVuSans-Bold-101"/>
     <use x="3137.90625" xlink:href="#DejaVuSans-Bold-114"/>
     <use x="3187.222656" xlink:href="#DejaVuSans-Bold-32"/>
     <use x="3222.037109" xlink:href="#DejaVuSans-Bold-50"/>
     <use x="3291.617188" xlink:href="#DejaVuSans-Bold-48"/>
     <use x="3361.197266" xlink:href="#DejaVuSans-Bold-50"/>
     <use x="3430.777344" xlink:href="#DejaVuSans-Bold-48"/>
    </g>
   </g>
  </g>
 </g>
 <defs>
  <clipPath id="pba05fece48">
   <rect height="293.72" width="394.72" x="55.28" y="24"/>
  </clipPath>
 </defs>
</svg>
